<svg width="280" height="332" viewBox="0 0 280 332" fill="none" xmlns="http://www.w3.org/2000/svg">
<mask id="mask0_1_46" style="mask-type:alpha" maskUnits="userSpaceOnUse" x="0" y="0" width="280" height="332">
<rect width="280" height="332" rx="24" fill="#5163FF"/>
</mask>
<g mask="url(#mask0_1_46)">
<rect width="852.671" height="454.276" transform="matrix(-1 0 0 1 820.836 -39.6723)" fill="url(#paint0_linear_1_46)"/>
<g style="mix-blend-mode:hard-light" opacity="0.78" filter="url(#filter0_f_1_46)">
<path d="M26.7604 -48.6552H835.653V422.303H566.247C415.379 389.58 336.682 347.737 279.329 280.502C190.425 185.541 226.121 66.197 26.7604 -48.6552Z" fill="url(#paint1_linear_1_46)"/>
</g>
<g style="mix-blend-mode:luminosity" filter="url(#filter1_f_1_46)">
<path d="M641.68 423.586L-47.9999 423.586L-47.9999 -63.4127H30.8015C30.8015 -63.4127 20.6987 -21.7066 77.9476 37.3236C135.196 96.3537 279.329 164.367 380.356 210.564C481.384 256.762 598.726 421.651 641.68 423.586Z" fill="url(#paint2_linear_1_46)"/>
</g>
<g style="mix-blend-mode:plus-lighter" opacity="0.36" filter="url(#filter2_f_1_46)">
<path fill-rule="evenodd" clip-rule="evenodd" d="M165.977 120.399C197.64 127.485 233.149 137.782 268.456 155.761C307.055 175.416 347.768 205.619 382.531 231.408C415.372 255.771 442.903 276.195 458.325 280.064L419.643 284.726C324.97 276.048 273.454 256.57 232.749 220.203C203.002 195.955 182.187 156.983 165.977 120.399Z" fill="white"/>
</g>
</g>
<defs>
<filter id="filter0_f_1_46" x="-37.2396" y="-112.655" width="936.893" height="598.958" filterUnits="userSpaceOnUse" color-interpolation-filters="sRGB">
<feFlood flood-opacity="0" result="BackgroundImageFix"/>
<feBlend mode="normal" in="SourceGraphic" in2="BackgroundImageFix" result="shape"/>
<feGaussianBlur stdDeviation="32" result="effect1_foregroundBlur_1_46"/>
</filter>
<filter id="filter1_f_1_46" x="-55.9999" y="-71.4127" width="705.68" height="502.999" filterUnits="userSpaceOnUse" color-interpolation-filters="sRGB">
<feFlood flood-opacity="0" result="BackgroundImageFix"/>
<feBlend mode="normal" in="SourceGraphic" in2="BackgroundImageFix" result="shape"/>
<feGaussianBlur stdDeviation="4" result="effect1_foregroundBlur_1_46"/>
</filter>
<filter id="filter2_f_1_46" x="115.977" y="70.3985" width="392.348" height="264.327" filterUnits="userSpaceOnUse" color-interpolation-filters="sRGB">
<feFlood flood-opacity="0" result="BackgroundImageFix"/>
<feBlend mode="normal" in="SourceGraphic" in2="BackgroundImageFix" result="shape"/>
<feGaussianBlur stdDeviation="25" result="effect1_foregroundBlur_1_46"/>
</filter>
<linearGradient id="paint0_linear_1_46" x1="719.644" y1="-5.41227e-07" x2="485.35" y2="321.18" gradientUnits="userSpaceOnUse">
<stop stop-color="#0239FE"/>
<stop offset="1" stop-color="#1D005A"/>
</linearGradient>
<linearGradient id="paint1_linear_1_46" x1="218.712" y1="8.45011" x2="705.131" y2="109.864" gradientUnits="userSpaceOnUse">
<stop stop-color="#00F0FF"/>
<stop offset="1" stop-color="#01DAC0"/>
</linearGradient>
<linearGradient id="paint2_linear_1_46" x1="493.361" y1="389.487" x2="35.3704" y2="21.3734" gradientUnits="userSpaceOnUse">
<stop stop-color="#AB83FF"/>
<stop offset="1" stop-color="#2555FF"/>
</linearGradient>
</defs>
</svg>
