<svg width="16" height="16" viewBox="0 0 16 16" fill="none" xmlns="http://www.w3.org/2000/svg">
<path d="M14.6663 8.00065C14.6663 11.6825 11.6816 14.6673 7.99967 14.6673C4.31778 14.6673 1.33301 11.6825 1.33301 8.00065C1.33301 4.31875 4.31778 1.33398 7.99967 1.33398C11.6816 1.33398 14.6663 4.31875 14.6663 8.00065Z" fill="#394375"/>
<path fill-rule="evenodd" clip-rule="evenodd" d="M7.99967 4.83398C8.27582 4.83398 8.49967 5.05784 8.49967 5.33398V7.79354L10.0199 9.31376C10.2152 9.50903 10.2152 9.82561 10.0199 10.0209C9.82463 10.2161 9.50805 10.2161 9.31279 10.0209L7.64612 8.35421C7.55235 8.26044 7.49967 8.13326 7.49967 8.00065V5.33398C7.49967 5.05784 7.72353 4.83398 7.99967 4.83398Z" fill="white"/>
</svg>
