<svg width="72" height="72" viewBox="0 0 72 72" fill="none" xmlns="http://www.w3.org/2000/svg">
<g clip-path="url(#clip0_16049_7948)">
<path d="M6.89648 9.26774C6.89648 8.13455 7.72226 7.17039 8.84199 6.99621L45.6236 1.27463C47.0173 1.05782 48.2758 2.13568 48.2758 3.54616V24.0918C48.2758 25.2632 47.395 26.2473 46.2308 26.3766L9.4492 30.4635C8.08744 30.6148 6.89648 29.5488 6.89648 28.1787V9.26774Z" fill="#AFB7DC"/>
<rect y="12.931" width="55.1724" height="41.3793" rx="4.5977" fill="#D5DAEF"/>
<circle cx="46.5513" cy="21.5517" r="5.17241" fill="white" fill-opacity="0.36"/>
</g>
<path d="M60.8187 30H41.2C34.0507 30 30 34.0507 30 41.2V60.8C30 67.9493 34.0507 72 41.2 72H60.8187C67.968 72 72 67.9493 72 60.8V41.2C72 34.0507 67.968 30 60.8187 30Z" fill="url(#paint0_linear_16049_7948)"/>
<path d="M50.9893 39C49.8984 39 49 39.7901 49 40.7682V62.2506C49 63.2099 49.8984 64 50.9893 64C52.1016 64 53 63.2099 53 62.2506V40.7682C53 39.7901 52.1016 39 50.9893 39Z" fill="white"/>
<path d="M41.9893 46C40.8984 46 40 46.7875 40 47.7625V62.2563C40 63.2125 40.8984 64 41.9893 64C43.1016 64 44 63.2125 44 62.2563V47.7625C44 46.7875 43.1016 46 41.9893 46Z" fill="white"/>
<path d="M61.0107 53C59.8984 53 59 53.837 59 54.8732V62.1467C59 63.163 59.8984 64 60.9893 64C62.1016 64 63 63.163 63 62.1467V54.8732C63 53.837 62.1016 53 61.0107 53Z" fill="white"/>
<defs>
<linearGradient id="paint0_linear_16049_7948" x1="48.7757" y1="47.7699" x2="55.0902" y2="73.6285" gradientUnits="userSpaceOnUse">
<stop offset="0.0076178" stop-color="#00D2D3"/>
<stop offset="0.91" stop-color="#00B3FF"/>
</linearGradient>
<clipPath id="clip0_16049_7948">
<rect width="55.1724" height="55.1724" fill="white"/>
</clipPath>
</defs>
</svg>
