<svg width="24" height="24" viewBox="0 0 24 24" fill="none" xmlns="http://www.w3.org/2000/svg">
<g clip-path="url(#clip0_16011_8659)">
<path d="M24 12.0005C24 5.37307 18.6274 0.000488281 12 0.000488281C5.37258 0.000488281 0 5.37307 0 12.0005C0 17.9899 4.3882 22.9545 10.125 23.8547V15.4692H7.07812V12.0005H10.125V9.35674C10.125 6.34924 11.9166 4.68799 14.6576 4.68799C15.9701 4.68799 17.3438 4.92236 17.3438 4.92236V7.87549H15.8306C14.34 7.87549 13.875 8.80057 13.875 9.75049V12.0005H17.2031L16.6711 15.4692H13.875V23.8547C19.6118 22.9545 24 17.9899 24 12.0005Z" fill="#AFB7DC"/>
<path d="M16.6711 15.4692L17.2031 12.0005H13.875V9.75049C13.875 8.8015 14.34 7.87549 15.8306 7.87549H17.3438V4.92236C17.3438 4.92236 15.9705 4.68799 14.6576 4.68799C11.9166 4.68799 10.125 6.34924 10.125 9.35674V12.0005H7.07812V15.4692H10.125V23.8547C11.3674 24.0491 12.6326 24.0491 13.875 23.8547V15.4692H16.6711Z" fill="white"/>
</g>
<defs>
<clipPath id="clip0_16011_8659">
<rect width="24" height="24" fill="white" transform="translate(0 0.000488281)"/>
</clipPath>
</defs>
</svg>
