<svg width="24" height="24" viewBox="0 0 24 24" fill="none" xmlns="http://www.w3.org/2000/svg">
<g clip-path="url(#clip0_16011_8662)">
<path d="M12 2.16143C15.2063 2.16143 15.5859 2.17549 16.8469 2.23174C18.0188 2.2833 18.6516 2.48018 19.0734 2.64424C19.6313 2.85986 20.0344 3.12236 20.4516 3.53955C20.8734 3.96143 21.1313 4.35986 21.3469 4.91768C21.5109 5.33955 21.7078 5.97705 21.7594 7.14424C21.8156 8.40986 21.8297 8.78955 21.8297 11.9911C21.8297 15.1974 21.8156 15.5771 21.7594 16.838C21.7078 18.0099 21.5109 18.6427 21.3469 19.0646C21.1313 19.6224 20.8687 20.0255 20.4516 20.4427C20.0297 20.8646 19.6313 21.1224 19.0734 21.338C18.6516 21.5021 18.0141 21.6989 16.8469 21.7505C15.5813 21.8067 15.2016 21.8208 12 21.8208C8.79375 21.8208 8.41406 21.8067 7.15313 21.7505C5.98125 21.6989 5.34844 21.5021 4.92656 21.338C4.36875 21.1224 3.96563 20.8599 3.54844 20.4427C3.12656 20.0208 2.86875 19.6224 2.65313 19.0646C2.48906 18.6427 2.29219 18.0052 2.24063 16.838C2.18438 15.5724 2.17031 15.1927 2.17031 11.9911C2.17031 8.78486 2.18438 8.40518 2.24063 7.14424C2.29219 5.97236 2.48906 5.33955 2.65313 4.91768C2.86875 4.35986 3.13125 3.95674 3.54844 3.53955C3.97031 3.11768 4.36875 2.85986 4.92656 2.64424C5.34844 2.48018 5.98594 2.2833 7.15313 2.23174C8.41406 2.17549 8.79375 2.16143 12 2.16143ZM12 0.000488281C8.74219 0.000488281 8.33438 0.0145508 7.05469 0.0708008C5.77969 0.127051 4.90313 0.333301 4.14375 0.628613C3.35156 0.937988 2.68125 1.3458 2.01563 2.01611C1.34531 2.68174 0.9375 3.35205 0.628125 4.13955C0.332812 4.90361 0.126563 5.77549 0.0703125 7.05049C0.0140625 8.33486 0 8.74268 0 12.0005C0 15.2583 0.0140625 15.6661 0.0703125 16.9458C0.126563 18.2208 0.332812 19.0974 0.628125 19.8567C0.9375 20.6489 1.34531 21.3192 2.01563 21.9849C2.68125 22.6505 3.35156 23.063 4.13906 23.3677C4.90313 23.663 5.775 23.8692 7.05 23.9255C8.32969 23.9817 8.7375 23.9958 11.9953 23.9958C15.2531 23.9958 15.6609 23.9817 16.9406 23.9255C18.2156 23.8692 19.0922 23.663 19.8516 23.3677C20.6391 23.063 21.3094 22.6505 21.975 21.9849C22.6406 21.3192 23.0531 20.6489 23.3578 19.8614C23.6531 19.0974 23.8594 18.2255 23.9156 16.9505C23.9719 15.6708 23.9859 15.263 23.9859 12.0052C23.9859 8.74736 23.9719 8.33955 23.9156 7.05986C23.8594 5.78486 23.6531 4.9083 23.3578 4.14893C23.0625 3.35205 22.6547 2.68174 21.9844 2.01611C21.3188 1.35049 20.6484 0.937988 19.8609 0.633301C19.0969 0.337988 18.225 0.131738 16.95 0.0754883C15.6656 0.0145508 15.2578 0.000488281 12 0.000488281Z" fill="#AFB7DC"/>
<path d="M12 5.83643C8.59688 5.83643 5.83594 8.59736 5.83594 12.0005C5.83594 15.4036 8.59688 18.1646 12 18.1646C15.4031 18.1646 18.1641 15.4036 18.1641 12.0005C18.1641 8.59736 15.4031 5.83643 12 5.83643ZM12 15.9989C9.79219 15.9989 8.00156 14.2083 8.00156 12.0005C8.00156 9.79268 9.79219 8.00205 12 8.00205C14.2078 8.00205 15.9984 9.79268 15.9984 12.0005C15.9984 14.2083 14.2078 15.9989 12 15.9989Z" fill="#AFB7DC"/>
<path d="M19.8469 5.59287C19.8469 6.38975 19.2 7.03194 18.4078 7.03194C17.6109 7.03194 16.9688 6.38506 16.9688 5.59287C16.9688 4.796 17.6156 4.15381 18.4078 4.15381C19.2 4.15381 19.8469 4.80068 19.8469 5.59287Z" fill="#AFB7DC"/>
</g>
<defs>
<clipPath id="clip0_16011_8662">
<rect width="24" height="24" fill="white" transform="translate(0 0.000488281)"/>
</clipPath>
</defs>
</svg>
