<svg width="16" height="16" viewBox="0 0 16 16" fill="none" xmlns="http://www.w3.org/2000/svg">
<path fill-rule="evenodd" clip-rule="evenodd" d="M2.11406 3.44804C1.33301 4.22909 1.33301 5.48617 1.33301 8.00033C1.33301 10.5145 1.33301 11.7716 2.11406 12.5526C2.89511 13.3337 4.15218 13.3337 6.66634 13.3337H9.33301C11.8472 13.3337 13.1042 13.3337 13.8853 12.5526C14.6663 11.7716 14.6663 10.5145 14.6663 8.00033C14.6663 5.48617 14.6663 4.22909 13.8853 3.44804C13.1042 2.66699 11.8472 2.66699 9.33301 2.66699H6.66634C4.15218 2.66699 2.89511 2.66699 2.11406 3.44804ZM12.3838 5.01357C12.5606 5.2257 12.5319 5.54099 12.3198 5.71777L10.8554 6.93804C10.2645 7.43048 9.7856 7.82961 9.36289 8.10147C8.92256 8.38468 8.49373 8.56358 7.99967 8.56358C7.50562 8.56358 7.07679 8.38468 6.63646 8.10147C6.21375 7.82961 5.73482 7.43048 5.14391 6.93804L3.67958 5.71777C3.46744 5.54099 3.43878 5.2257 3.61556 5.01357C3.79235 4.80143 4.10763 4.77277 4.31977 4.94955L5.75903 6.14893C6.381 6.66724 6.81283 7.02594 7.1774 7.26041C7.5303 7.48739 7.76963 7.56358 7.99967 7.56358C8.22972 7.56358 8.46905 7.48739 8.82195 7.26041C9.18652 7.02594 9.61835 6.66724 10.2403 6.14893L11.6796 4.94955C11.8917 4.77277 12.207 4.80143 12.3838 5.01357Z" fill="#394375"/>
</svg>
