<svg width="24" height="24" viewBox="0 0 24 24" fill="none" xmlns="http://www.w3.org/2000/svg">
<g clip-path="url(#clip0_16011_8667)">
<path d="M22.2283 0.000488281H1.77167C1.30179 0.000488281 0.851161 0.187146 0.518909 0.519398C0.186657 0.85165 0 1.30228 0 1.77216V22.2288C0 22.6987 0.186657 23.1493 0.518909 23.4816C0.851161 23.8138 1.30179 24.0005 1.77167 24.0005H22.2283C22.6982 24.0005 23.1488 23.8138 23.4811 23.4816C23.8133 23.1493 24 22.6987 24 22.2288V1.77216C24 1.30228 23.8133 0.85165 23.4811 0.519398C23.1488 0.187146 22.6982 0.000488281 22.2283 0.000488281ZM7.15333 20.4455H3.545V8.98382H7.15333V20.4455ZM5.34667 7.39549C4.93736 7.39318 4.53792 7.26968 4.19873 7.04058C3.85955 6.81147 3.59584 6.48702 3.44088 6.10818C3.28591 5.72934 3.24665 5.31308 3.32803 4.91194C3.40941 4.51081 3.6078 4.14277 3.89816 3.85427C4.18851 3.56577 4.55782 3.36976 4.95947 3.29095C5.36112 3.21214 5.77711 3.25408 6.15495 3.41147C6.53279 3.56887 6.85554 3.83466 7.08247 4.1753C7.30939 4.51595 7.43032 4.91618 7.43 5.32549C7.43386 5.59952 7.38251 5.87153 7.27901 6.12529C7.17551 6.37906 7.02198 6.60939 6.82757 6.80256C6.63316 6.99572 6.40185 7.14777 6.14742 7.24964C5.893 7.35151 5.62067 7.40111 5.34667 7.39549ZM20.4533 20.4555H16.8467V14.1938C16.8467 12.3472 16.0617 11.7772 15.0483 11.7772C13.9783 11.7772 12.9283 12.5838 12.9283 14.2405V20.4555H9.32V8.99216H12.79V10.5805H12.8367C13.185 9.87549 14.405 8.67049 16.2667 8.67049C18.28 8.67049 20.455 9.86549 20.455 13.3655L20.4533 20.4555Z" fill="#AFB7DC"/>
</g>
<defs>
<clipPath id="clip0_16011_8667">
<rect width="24" height="24" fill="white" transform="translate(0 0.000488281)"/>
</clipPath>
</defs>
</svg>
