<svg width="548" height="510" viewBox="0 0 548 510" fill="none" xmlns="http://www.w3.org/2000/svg">
<g filter="url(#filter0_d_15188_20380)">
<rect x="114" y="36" width="320" height="438" rx="24" fill="url(#paint0_linear_15188_20380)" shape-rendering="crispEdges"/>
<rect x="114.5" y="36.5" width="319" height="437" rx="23.5" stroke="#AFB7DC" shape-rendering="crispEdges"/>
</g>
<g filter="url(#filter1_ddi_15188_20380)">
<rect x="126" y="48" width="296" height="195" rx="16" fill="white"/>
<rect x="126.5" y="48.5" width="295" height="194" rx="15.5" stroke="#AFB7DC"/>
</g>
<path d="M193.415 147.64V148.808L193.159 148.808C192.85 148.808 192.594 148.845 192.391 148.92C192.199 148.995 192.103 149.149 192.103 149.384V157.72L193.831 157.72C194.258 157.72 194.605 157.704 194.871 157.672C195.138 157.629 195.335 157.56 195.463 157.464C195.602 157.368 195.677 157.224 195.687 157.032L195.879 155.064L197.319 155.064V159L187.943 159V157.832L188.119 157.832C188.397 157.832 188.626 157.795 188.807 157.72C188.999 157.645 189.095 157.491 189.095 157.256V149.384C189.095 149.149 188.999 148.995 188.807 148.92C188.626 148.845 188.397 148.808 188.119 148.808L187.943 148.808V147.64L193.415 147.64ZM208.039 154.76C208.039 155.656 207.847 156.435 207.463 157.096C207.09 157.757 206.551 158.269 205.847 158.632C205.143 158.995 204.301 159.176 203.319 159.176C202.338 159.176 201.495 158.995 200.791 158.632C200.087 158.269 199.543 157.757 199.159 157.096C198.786 156.435 198.599 155.656 198.599 154.76C198.599 154.088 198.706 153.48 198.919 152.936C199.133 152.392 199.442 151.928 199.847 151.544C200.263 151.16 200.759 150.867 201.335 150.664C201.922 150.451 202.583 150.344 203.319 150.344C204.055 150.344 204.711 150.451 205.287 150.664C205.874 150.867 206.37 151.16 206.775 151.544C207.191 151.928 207.506 152.392 207.719 152.936C207.933 153.48 208.039 154.088 208.039 154.76ZM201.527 154.76C201.527 155.475 201.591 156.067 201.719 156.536C201.847 156.995 202.045 157.336 202.311 157.56C202.578 157.784 202.914 157.896 203.319 157.896C203.735 157.896 204.071 157.784 204.327 157.56C204.594 157.336 204.791 156.995 204.919 156.536C205.047 156.067 205.111 155.475 205.111 154.76C205.111 154.045 205.047 153.464 204.919 153.016C204.791 152.557 204.594 152.216 204.327 151.992C204.061 151.768 203.725 151.656 203.319 151.656C202.914 151.656 202.578 151.768 202.311 151.992C202.045 152.216 201.847 152.557 201.719 153.016C201.591 153.464 201.527 154.045 201.527 154.76ZM214.345 157.832C214.719 157.832 215.044 157.752 215.321 157.592C215.609 157.432 215.855 157.229 216.057 156.984C216.271 156.739 216.452 156.488 216.601 156.232L217.609 156.936C217.396 157.373 217.119 157.763 216.777 158.104C216.447 158.445 216.041 158.712 215.561 158.904C215.092 159.085 214.543 159.176 213.913 159.176C212.975 159.176 212.148 159.005 211.433 158.664C210.729 158.312 210.18 157.805 209.785 157.144C209.391 156.483 209.193 155.688 209.193 154.76C209.193 153.821 209.385 153.027 209.769 152.376C210.164 151.715 210.719 151.213 211.433 150.872C212.159 150.52 213.017 150.344 214.009 150.344C214.617 150.344 215.145 150.392 215.593 150.488C216.052 150.584 216.431 150.696 216.729 150.824C217.039 150.952 217.257 151.064 217.385 151.16V153.64L215.177 153.64V151.4C215.316 151.4 215.428 151.437 215.513 151.512C215.599 151.587 215.657 151.672 215.689 151.768C215.732 151.864 215.748 151.965 215.737 152.072C215.727 152.168 215.7 152.243 215.657 152.296C215.497 152.104 215.289 151.949 215.033 151.832C214.788 151.715 214.489 151.656 214.137 151.656C213.679 151.656 213.3 151.773 213.001 152.008C212.703 152.243 212.479 152.595 212.329 153.064C212.191 153.523 212.121 154.088 212.121 154.76C212.121 155.272 212.164 155.72 212.249 156.104C212.345 156.488 212.484 156.808 212.665 157.064C212.847 157.32 213.076 157.512 213.353 157.64C213.641 157.768 213.972 157.832 214.345 157.832ZM224.182 153.864V154.904C223.744 154.968 223.366 155.048 223.046 155.144C222.726 155.229 222.454 155.331 222.23 155.448C222.016 155.555 221.846 155.677 221.718 155.816C221.59 155.955 221.494 156.109 221.43 156.28C221.376 156.44 221.35 156.616 221.35 156.808C221.35 157.064 221.392 157.277 221.478 157.448C221.563 157.608 221.686 157.725 221.846 157.8C222.006 157.875 222.192 157.912 222.406 157.912C222.64 157.912 222.859 157.853 223.062 157.736C223.264 157.619 223.456 157.443 223.638 157.208C223.83 156.963 224.011 156.664 224.182 156.312L224.246 157.272C224.054 157.699 223.824 158.051 223.558 158.328C223.291 158.605 222.982 158.819 222.63 158.968C222.288 159.107 221.883 159.176 221.414 159.176C220.838 159.176 220.347 159.096 219.942 158.936C219.536 158.765 219.227 158.515 219.014 158.184C218.811 157.853 218.71 157.437 218.71 156.936C218.71 156.477 218.811 156.088 219.014 155.768C219.227 155.437 219.558 155.155 220.006 154.92C220.454 154.685 221.019 154.483 221.702 154.312C222.395 154.141 223.222 153.992 224.182 153.864ZM224.182 159L224.054 157.304L223.91 157.32V152.776C223.91 152.509 223.867 152.291 223.782 152.12C223.707 151.949 223.579 151.827 223.398 151.752C223.216 151.667 222.971 151.624 222.662 151.624C222.203 151.624 221.824 151.699 221.526 151.848C221.227 151.987 221.014 152.152 220.886 152.344C220.8 152.269 220.752 152.189 220.742 152.104C220.731 152.008 220.752 151.917 220.806 151.832C220.87 151.747 220.96 151.672 221.078 151.608C221.195 151.544 221.339 151.507 221.51 151.496V153.288L219.238 153.288V151.368C219.398 151.251 219.638 151.112 219.958 150.952C220.288 150.792 220.699 150.653 221.19 150.536C221.691 150.408 222.272 150.344 222.934 150.344C223.499 150.344 224.011 150.397 224.47 150.504C224.939 150.611 225.339 150.776 225.67 151C226 151.224 226.251 151.512 226.422 151.864C226.603 152.205 226.694 152.616 226.694 153.096V157.352C226.694 157.469 226.726 157.56 226.79 157.624C226.854 157.677 226.944 157.725 227.062 157.768C227.19 157.8 227.344 157.827 227.526 157.848L227.622 157.88V159L224.182 159ZM232.154 147V157.288C232.154 157.544 232.234 157.72 232.394 157.816C232.565 157.912 232.784 157.96 233.05 157.96L233.098 157.96V159L228.394 159V157.96L228.426 157.96C228.693 157.96 228.906 157.912 229.066 157.816C229.237 157.72 229.322 157.544 229.322 157.288V148.696C229.322 148.579 229.29 148.493 229.226 148.44C229.173 148.376 229.088 148.323 228.97 148.28C228.853 148.237 228.704 148.195 228.522 148.152L228.378 148.12V147L232.154 147ZM244.147 147.64C244.809 147.64 245.39 147.699 245.891 147.816C246.393 147.933 246.809 148.109 247.139 148.344C247.481 148.579 247.737 148.872 247.907 149.224C248.089 149.565 248.179 149.955 248.179 150.392C248.179 150.968 248.035 151.448 247.747 151.832C247.459 152.216 247.054 152.509 246.531 152.712C246.019 152.904 245.406 153.016 244.691 153.048L245.171 152.68V153.384L244.771 152.952C245.561 152.995 246.243 153.128 246.819 153.352C247.395 153.565 247.843 153.875 248.163 154.28C248.483 154.685 248.643 155.197 248.643 155.816C248.643 156.339 248.547 156.797 248.355 157.192C248.163 157.587 247.881 157.917 247.507 158.184C247.145 158.451 246.691 158.653 246.147 158.792C245.614 158.931 244.995 159 244.291 159L238.099 159V157.832L238.275 157.832C238.553 157.832 238.782 157.795 238.963 157.72C239.155 157.645 239.251 157.491 239.251 157.256V149.384C239.251 149.149 239.155 148.995 238.963 148.92C238.782 148.845 238.553 148.808 238.275 148.808L238.099 148.808V147.64L244.147 147.64ZM241.635 152.472L243.459 152.472C243.865 152.472 244.19 152.403 244.435 152.264C244.691 152.125 244.878 151.917 244.995 151.64C245.113 151.352 245.171 150.995 245.171 150.568C245.171 150.205 245.107 149.901 244.979 149.656C244.862 149.411 244.681 149.224 244.435 149.096C244.19 148.957 243.886 148.888 243.523 148.888L242.259 148.888V157.752L243.619 157.752C244.046 157.752 244.403 157.677 244.691 157.528C244.979 157.379 245.198 157.149 245.347 156.84C245.497 156.531 245.571 156.147 245.571 155.688C245.571 155.251 245.497 154.883 245.347 154.584C245.209 154.285 244.985 154.056 244.675 153.896C244.377 153.736 243.987 153.656 243.507 153.656L241.635 153.656V152.472ZM253.37 150.504V156.408C253.37 156.653 253.397 156.861 253.45 157.032C253.514 157.203 253.61 157.331 253.738 157.416C253.877 157.491 254.053 157.528 254.266 157.528C254.522 157.528 254.768 157.464 255.002 157.336C255.237 157.197 255.472 156.989 255.706 156.712C255.941 156.424 256.176 156.061 256.41 155.624L256.378 157C256.144 157.459 255.861 157.848 255.53 158.168C255.2 158.488 254.832 158.733 254.426 158.904C254.032 159.075 253.6 159.16 253.13 159.16C252.597 159.16 252.133 159.059 251.738 158.856C251.344 158.653 251.04 158.355 250.826 157.96C250.624 157.565 250.522 157.075 250.522 156.488V152.216C250.522 152.045 250.458 151.928 250.33 151.864C250.202 151.789 250 151.731 249.722 151.688L249.546 151.656V150.504L253.37 150.504ZM258.874 150.504V157.352C258.874 157.469 258.906 157.56 258.97 157.624C259.045 157.677 259.141 157.725 259.258 157.768C259.386 157.8 259.536 157.827 259.706 157.848L259.818 157.88V159L256.314 159L256.17 157.064L256.026 157.032V152.216C256.026 152.045 255.941 151.923 255.77 151.848C255.61 151.773 255.392 151.72 255.114 151.688L254.858 151.656V150.504L258.874 150.504ZM265.858 156.904C265.858 156.701 265.805 156.536 265.698 156.408C265.592 156.28 265.442 156.173 265.25 156.088C265.069 156.003 264.856 155.933 264.61 155.88C264.376 155.816 264.125 155.752 263.858 155.688C263.517 155.603 263.176 155.507 262.834 155.4C262.493 155.283 262.178 155.133 261.89 154.952C261.602 154.76 261.373 154.509 261.202 154.2C261.032 153.891 260.946 153.501 260.946 153.032C260.946 152.424 261.101 151.923 261.41 151.528C261.72 151.123 262.157 150.819 262.722 150.616C263.288 150.413 263.944 150.312 264.69 150.312C265.309 150.312 265.837 150.355 266.274 150.44C266.722 150.525 267.085 150.621 267.362 150.728C267.64 150.824 267.832 150.904 267.938 150.968V152.84L265.922 152.84V151.352C266.082 151.331 266.205 151.341 266.29 151.384C266.386 151.427 266.445 151.485 266.466 151.56C266.498 151.635 266.509 151.715 266.498 151.8C266.488 151.885 266.466 151.971 266.434 152.056C266.306 151.939 266.157 151.843 265.986 151.768C265.816 151.693 265.624 151.64 265.41 151.608C265.197 151.565 264.962 151.544 264.706 151.544C264.258 151.544 263.922 151.619 263.698 151.768C263.474 151.917 263.362 152.136 263.362 152.424C263.362 152.627 263.416 152.792 263.522 152.92C263.629 153.037 263.778 153.139 263.97 153.224C264.162 153.309 264.381 153.384 264.626 153.448C264.882 153.512 265.154 153.576 265.442 153.64C265.794 153.736 266.146 153.843 266.498 153.96C266.861 154.067 267.186 154.221 267.474 154.424C267.773 154.616 268.008 154.861 268.178 155.16C268.36 155.459 268.45 155.837 268.45 156.296C268.45 156.925 268.296 157.453 267.986 157.88C267.688 158.307 267.234 158.632 266.626 158.856C266.018 159.069 265.261 159.176 264.354 159.176C263.757 159.176 263.218 159.133 262.738 159.048C262.269 158.973 261.864 158.872 261.522 158.744C261.192 158.616 260.936 158.499 260.754 158.392V156.376L262.802 156.376V158.36C262.61 158.285 262.456 158.195 262.338 158.088C262.232 157.971 262.157 157.859 262.114 157.752C262.082 157.645 262.082 157.555 262.114 157.48C262.146 157.405 262.205 157.368 262.29 157.368C262.44 157.485 262.616 157.592 262.818 157.688C263.021 157.773 263.25 157.843 263.506 157.896C263.773 157.939 264.061 157.96 264.37 157.96C264.701 157.96 264.973 157.923 265.186 157.848C265.41 157.773 265.576 157.661 265.682 157.512C265.8 157.352 265.858 157.149 265.858 156.904ZM271.682 149.384C271.191 149.384 270.802 149.272 270.514 149.048C270.226 148.813 270.082 148.477 270.082 148.04C270.082 147.603 270.226 147.272 270.514 147.048C270.802 146.813 271.191 146.696 271.682 146.696C272.173 146.696 272.562 146.813 272.85 147.048C273.138 147.272 273.282 147.603 273.282 148.04C273.282 148.477 273.138 148.813 272.85 149.048C272.562 149.272 272.173 149.384 271.682 149.384ZM273.186 150.504V157.288C273.186 157.544 273.266 157.72 273.426 157.816C273.597 157.912 273.815 157.96 274.082 157.96L274.114 157.96V159L269.41 159V157.96L269.442 157.96C269.709 157.96 269.922 157.912 270.082 157.816C270.253 157.72 270.338 157.544 270.338 157.288V152.216C270.338 152.045 270.274 151.928 270.146 151.864C270.018 151.8 269.815 151.741 269.538 151.688L269.41 151.656V150.504L273.186 150.504ZM274.941 159V157.96L274.957 157.96C275.149 157.96 275.309 157.939 275.437 157.896C275.576 157.853 275.677 157.784 275.741 157.688C275.816 157.581 275.853 157.437 275.853 157.256V152.216C275.853 152.099 275.827 152.013 275.773 151.96C275.72 151.896 275.635 151.848 275.517 151.816C275.4 151.773 275.251 151.731 275.069 151.688L274.941 151.656V150.504L278.445 150.504L278.573 152.408L278.701 152.44V157.816C278.701 157.848 278.744 157.875 278.829 157.896C278.915 157.917 279.016 157.933 279.133 157.944C279.251 157.955 279.357 157.96 279.453 157.96L279.517 157.96V159L274.941 159ZM285.213 159L280.637 159V157.96L280.685 157.96C280.781 157.96 280.888 157.955 281.005 157.944C281.133 157.933 281.235 157.917 281.309 157.896C281.395 157.875 281.437 157.848 281.437 157.816V153.08C281.437 152.824 281.405 152.616 281.341 152.456C281.288 152.296 281.192 152.179 281.053 152.104C280.925 152.019 280.749 151.976 280.525 151.976C280.259 151.976 280.003 152.045 279.757 152.184C279.512 152.323 279.272 152.536 279.037 152.824C278.803 153.101 278.568 153.459 278.333 153.896L278.349 152.536C278.584 152.088 278.861 151.699 279.181 151.368C279.512 151.037 279.885 150.787 280.301 150.616C280.728 150.435 281.176 150.344 281.645 150.344C282.2 150.344 282.675 150.445 283.069 150.648C283.464 150.851 283.763 151.149 283.965 151.544C284.179 151.928 284.285 152.419 284.285 153.016V157.256C284.285 157.437 284.323 157.581 284.397 157.688C284.472 157.784 284.573 157.853 284.701 157.896C284.84 157.939 285 157.96 285.181 157.96L285.213 157.96V159ZM288.963 154.808C288.963 155.331 289.005 155.784 289.091 156.168C289.187 156.552 289.331 156.867 289.523 157.112C289.715 157.357 289.955 157.539 290.243 157.656C290.531 157.773 290.867 157.832 291.251 157.832C291.656 157.832 292.003 157.768 292.291 157.64C292.579 157.501 292.824 157.32 293.027 157.096C293.24 156.872 293.421 156.632 293.571 156.376L294.643 157.128C294.419 157.544 294.136 157.907 293.795 158.216C293.453 158.525 293.043 158.765 292.563 158.936C292.083 159.096 291.517 159.176 290.867 159.176C289.907 159.176 289.069 159.005 288.355 158.664C287.64 158.323 287.091 157.827 286.707 157.176C286.323 156.515 286.131 155.725 286.131 154.808C286.131 153.912 286.317 153.128 286.691 152.456C287.064 151.784 287.587 151.267 288.259 150.904C288.931 150.531 289.704 150.344 290.579 150.344C291.283 150.344 291.891 150.451 292.403 150.664C292.925 150.867 293.357 151.171 293.699 151.576C294.051 151.981 294.312 152.493 294.483 153.112C294.664 153.731 294.755 154.445 294.755 155.256L288.419 155.256V154.104L292.467 154.104L292.115 154.568C292.104 153.992 292.067 153.512 292.003 153.128C291.949 152.744 291.864 152.445 291.747 152.232C291.629 152.008 291.48 151.853 291.299 151.768C291.117 151.672 290.893 151.624 290.627 151.624C290.371 151.624 290.141 151.683 289.939 151.8C289.736 151.907 289.56 152.088 289.411 152.344C289.261 152.589 289.149 152.915 289.075 153.32C289 153.725 288.963 154.221 288.963 154.808ZM300.889 156.904C300.889 156.701 300.836 156.536 300.729 156.408C300.623 156.28 300.473 156.173 300.281 156.088C300.1 156.003 299.887 155.933 299.641 155.88C299.407 155.816 299.156 155.752 298.889 155.688C298.548 155.603 298.207 155.507 297.865 155.4C297.524 155.283 297.209 155.133 296.921 154.952C296.633 154.76 296.404 154.509 296.233 154.2C296.063 153.891 295.977 153.501 295.977 153.032C295.977 152.424 296.132 151.923 296.441 151.528C296.751 151.123 297.188 150.819 297.753 150.616C298.319 150.413 298.975 150.312 299.721 150.312C300.34 150.312 300.868 150.355 301.305 150.44C301.753 150.525 302.116 150.621 302.393 150.728C302.671 150.824 302.863 150.904 302.969 150.968V152.84L300.953 152.84V151.352C301.113 151.331 301.236 151.341 301.321 151.384C301.417 151.427 301.476 151.485 301.497 151.56C301.529 151.635 301.54 151.715 301.529 151.8C301.519 151.885 301.497 151.971 301.465 152.056C301.337 151.939 301.188 151.843 301.017 151.768C300.847 151.693 300.655 151.64 300.441 151.608C300.228 151.565 299.993 151.544 299.737 151.544C299.289 151.544 298.953 151.619 298.729 151.768C298.505 151.917 298.393 152.136 298.393 152.424C298.393 152.627 298.447 152.792 298.553 152.92C298.66 153.037 298.809 153.139 299.001 153.224C299.193 153.309 299.412 153.384 299.657 153.448C299.913 153.512 300.185 153.576 300.473 153.64C300.825 153.736 301.177 153.843 301.529 153.96C301.892 154.067 302.217 154.221 302.505 154.424C302.804 154.616 303.039 154.861 303.209 155.16C303.391 155.459 303.481 155.837 303.481 156.296C303.481 156.925 303.327 157.453 303.017 157.88C302.719 158.307 302.265 158.632 301.657 158.856C301.049 159.069 300.292 159.176 299.385 159.176C298.788 159.176 298.249 159.133 297.769 159.048C297.3 158.973 296.895 158.872 296.553 158.744C296.223 158.616 295.967 158.499 295.785 158.392V156.376L297.833 156.376V158.36C297.641 158.285 297.487 158.195 297.369 158.088C297.263 157.971 297.188 157.859 297.145 157.752C297.113 157.645 297.113 157.555 297.145 157.48C297.177 157.405 297.236 157.368 297.321 157.368C297.471 157.485 297.647 157.592 297.849 157.688C298.052 157.773 298.281 157.843 298.537 157.896C298.804 157.939 299.092 157.96 299.401 157.96C299.732 157.96 300.004 157.923 300.217 157.848C300.441 157.773 300.607 157.661 300.713 157.512C300.831 157.352 300.889 157.149 300.889 156.904ZM309.53 156.904C309.53 156.701 309.477 156.536 309.37 156.408C309.263 156.28 309.114 156.173 308.922 156.088C308.741 156.003 308.527 155.933 308.282 155.88C308.047 155.816 307.797 155.752 307.53 155.688C307.189 155.603 306.847 155.507 306.506 155.4C306.165 155.283 305.85 155.133 305.562 154.952C305.274 154.76 305.045 154.509 304.874 154.2C304.703 153.891 304.618 153.501 304.618 153.032C304.618 152.424 304.773 151.923 305.082 151.528C305.391 151.123 305.829 150.819 306.394 150.616C306.959 150.413 307.615 150.312 308.362 150.312C308.981 150.312 309.509 150.355 309.946 150.44C310.394 150.525 310.757 150.621 311.034 150.728C311.311 150.824 311.503 150.904 311.61 150.968V152.84L309.594 152.84V151.352C309.754 151.331 309.877 151.341 309.962 151.384C310.058 151.427 310.117 151.485 310.138 151.56C310.17 151.635 310.181 151.715 310.17 151.8C310.159 151.885 310.138 151.971 310.106 152.056C309.978 151.939 309.829 151.843 309.658 151.768C309.487 151.693 309.295 151.64 309.082 151.608C308.869 151.565 308.634 151.544 308.378 151.544C307.93 151.544 307.594 151.619 307.37 151.768C307.146 151.917 307.034 152.136 307.034 152.424C307.034 152.627 307.087 152.792 307.194 152.92C307.301 153.037 307.45 153.139 307.642 153.224C307.834 153.309 308.053 153.384 308.298 153.448C308.554 153.512 308.826 153.576 309.114 153.64C309.466 153.736 309.818 153.843 310.17 153.96C310.533 154.067 310.858 154.221 311.146 154.424C311.445 154.616 311.679 154.861 311.85 155.16C312.031 155.459 312.122 155.837 312.122 156.296C312.122 156.925 311.967 157.453 311.658 157.88C311.359 158.307 310.906 158.632 310.298 158.856C309.69 159.069 308.933 159.176 308.026 159.176C307.429 159.176 306.89 159.133 306.41 159.048C305.941 158.973 305.535 158.872 305.194 158.744C304.863 158.616 304.607 158.499 304.426 158.392V156.376L306.474 156.376V158.36C306.282 158.285 306.127 158.195 306.01 158.088C305.903 157.971 305.829 157.859 305.786 157.752C305.754 157.645 305.754 157.555 305.786 157.48C305.818 157.405 305.877 157.368 305.962 157.368C306.111 157.485 306.287 157.592 306.49 157.688C306.693 157.773 306.922 157.843 307.178 157.896C307.445 157.939 307.733 157.96 308.042 157.96C308.373 157.96 308.645 157.923 308.858 157.848C309.082 157.773 309.247 157.661 309.354 157.512C309.471 157.352 309.53 157.149 309.53 156.904ZM323.335 147.64C323.996 147.64 324.578 147.699 325.079 147.816C325.58 147.933 325.996 148.109 326.327 148.344C326.668 148.579 326.924 148.872 327.095 149.224C327.276 149.565 327.367 149.955 327.367 150.392C327.367 150.968 327.223 151.448 326.935 151.832C326.647 152.216 326.242 152.509 325.719 152.712C325.207 152.904 324.594 153.016 323.879 153.048L324.359 152.68V153.384L323.959 152.952C324.748 152.995 325.431 153.128 326.007 153.352C326.583 153.565 327.031 153.875 327.351 154.28C327.671 154.685 327.831 155.197 327.831 155.816C327.831 156.339 327.735 156.797 327.543 157.192C327.351 157.587 327.068 157.917 326.695 158.184C326.332 158.451 325.879 158.653 325.335 158.792C324.802 158.931 324.183 159 323.479 159L317.287 159V157.832L317.463 157.832C317.74 157.832 317.97 157.795 318.151 157.72C318.343 157.645 318.439 157.491 318.439 157.256V149.384C318.439 149.149 318.343 148.995 318.151 148.92C317.97 148.845 317.74 148.808 317.463 148.808L317.287 148.808V147.64L323.335 147.64ZM320.823 152.472L322.647 152.472C323.052 152.472 323.378 152.403 323.623 152.264C323.879 152.125 324.066 151.917 324.183 151.64C324.3 151.352 324.359 150.995 324.359 150.568C324.359 150.205 324.295 149.901 324.167 149.656C324.05 149.411 323.868 149.224 323.623 149.096C323.378 148.957 323.074 148.888 322.711 148.888L321.447 148.888V157.752L322.807 157.752C323.234 157.752 323.591 157.677 323.879 157.528C324.167 157.379 324.386 157.149 324.535 156.84C324.684 156.531 324.759 156.147 324.759 155.688C324.759 155.251 324.684 154.883 324.535 154.584C324.396 154.285 324.172 154.056 323.863 153.896C323.564 153.736 323.175 153.656 322.695 153.656L320.823 153.656V152.472ZM334.541 153.864V154.904C334.104 154.968 333.725 155.048 333.405 155.144C333.085 155.229 332.813 155.331 332.589 155.448C332.376 155.555 332.205 155.677 332.077 155.816C331.949 155.955 331.853 156.109 331.789 156.28C331.736 156.44 331.709 156.616 331.709 156.808C331.709 157.064 331.752 157.277 331.837 157.448C331.922 157.608 332.045 157.725 332.205 157.8C332.365 157.875 332.552 157.912 332.765 157.912C333 157.912 333.218 157.853 333.421 157.736C333.624 157.619 333.816 157.443 333.997 157.208C334.189 156.963 334.37 156.664 334.541 156.312L334.605 157.272C334.413 157.699 334.184 158.051 333.917 158.328C333.65 158.605 333.341 158.819 332.989 158.968C332.648 159.107 332.242 159.176 331.773 159.176C331.197 159.176 330.706 159.096 330.301 158.936C329.896 158.765 329.586 158.515 329.373 158.184C329.17 157.853 329.069 157.437 329.069 156.936C329.069 156.477 329.17 156.088 329.373 155.768C329.586 155.437 329.917 155.155 330.365 154.92C330.813 154.685 331.378 154.483 332.061 154.312C332.754 154.141 333.581 153.992 334.541 153.864ZM334.541 159L334.413 157.304L334.269 157.32V152.776C334.269 152.509 334.226 152.291 334.141 152.12C334.066 151.949 333.938 151.827 333.757 151.752C333.576 151.667 333.33 151.624 333.021 151.624C332.562 151.624 332.184 151.699 331.885 151.848C331.586 151.987 331.373 152.152 331.245 152.344C331.16 152.269 331.112 152.189 331.101 152.104C331.09 152.008 331.112 151.917 331.165 151.832C331.229 151.747 331.32 151.672 331.437 151.608C331.554 151.544 331.698 151.507 331.869 151.496V153.288L329.597 153.288V151.368C329.757 151.251 329.997 151.112 330.317 150.952C330.648 150.792 331.058 150.653 331.549 150.536C332.05 150.408 332.632 150.344 333.293 150.344C333.858 150.344 334.37 150.397 334.829 150.504C335.298 150.611 335.698 150.776 336.029 151C336.36 151.224 336.61 151.512 336.781 151.864C336.962 152.205 337.053 152.616 337.053 153.096V157.352C337.053 157.469 337.085 157.56 337.149 157.624C337.213 157.677 337.304 157.725 337.421 157.768C337.549 157.8 337.704 157.827 337.885 157.848L337.981 157.88V159L334.541 159ZM338.754 159V157.96L338.77 157.96C338.962 157.96 339.122 157.939 339.25 157.896C339.388 157.853 339.49 157.784 339.554 157.688C339.628 157.581 339.666 157.437 339.666 157.256V152.216C339.666 152.099 339.639 152.013 339.586 151.96C339.532 151.896 339.447 151.848 339.33 151.816C339.212 151.773 339.063 151.731 338.882 151.688L338.754 151.656V150.504L342.258 150.504L342.386 152.408L342.514 152.44V157.816C342.514 157.848 342.556 157.875 342.642 157.896C342.727 157.917 342.828 157.933 342.946 157.944C343.063 157.955 343.17 157.96 343.266 157.96L343.33 157.96V159L338.754 159ZM349.026 159L344.45 159V157.96L344.498 157.96C344.594 157.96 344.7 157.955 344.818 157.944C344.946 157.933 345.047 157.917 345.122 157.896C345.207 157.875 345.25 157.848 345.25 157.816V153.08C345.25 152.824 345.218 152.616 345.154 152.456C345.1 152.296 345.004 152.179 344.866 152.104C344.738 152.019 344.562 151.976 344.338 151.976C344.071 151.976 343.815 152.045 343.57 152.184C343.324 152.323 343.084 152.536 342.85 152.824C342.615 153.101 342.38 153.459 342.146 153.896L342.162 152.536C342.396 152.088 342.674 151.699 342.994 151.368C343.324 151.037 343.698 150.787 344.114 150.616C344.54 150.435 344.988 150.344 345.458 150.344C346.012 150.344 346.487 150.445 346.882 150.648C347.276 150.851 347.575 151.149 347.778 151.544C347.991 151.928 348.098 152.419 348.098 153.016V157.256C348.098 157.437 348.135 157.581 348.21 157.688C348.284 157.784 348.386 157.853 348.514 157.896C348.652 157.939 348.812 157.96 348.994 157.96L349.026 157.96V159ZM360.361 159L355.385 159V157.96L355.449 157.96C355.556 157.96 355.662 157.955 355.769 157.944C355.886 157.933 355.982 157.917 356.057 157.896C356.142 157.875 356.185 157.848 356.185 157.816L353.977 154.712V154.408L356.841 151.816C356.841 151.752 356.772 151.704 356.633 151.672C356.505 151.629 356.35 151.603 356.169 151.592C355.988 151.571 355.817 151.56 355.657 151.56L355.497 151.56V150.504L359.801 150.504V151.56L359.673 151.56C359.46 151.56 359.262 151.587 359.081 151.64C358.9 151.683 358.729 151.752 358.569 151.848C358.409 151.933 358.249 152.051 358.089 152.2L355.417 154.632L356.025 153.272L359.081 157.4C359.198 157.549 359.316 157.667 359.433 157.752C359.561 157.827 359.694 157.88 359.833 157.912C359.982 157.944 360.137 157.96 360.297 157.96L360.361 157.96V159ZM353.561 147V157.816C353.561 157.848 353.598 157.875 353.673 157.896C353.758 157.917 353.86 157.933 353.977 157.944C354.094 157.955 354.196 157.96 354.281 157.96L354.345 157.96V159L349.785 159V157.96L349.817 157.96C349.998 157.96 350.153 157.939 350.281 157.896C350.42 157.853 350.526 157.784 350.601 157.688C350.676 157.581 350.713 157.437 350.713 157.256V148.696C350.713 148.579 350.681 148.493 350.617 148.44C350.564 148.376 350.478 148.323 350.361 148.28C350.244 148.237 350.094 148.195 349.913 148.152L349.785 148.12V147L353.561 147ZM237.434 178.184L241.834 178.184L241.898 179.384L237.338 179.384L237.434 178.184ZM239.338 172.552L239.786 173.096L237.098 181.512C237.098 181.576 237.146 181.635 237.242 181.688C237.338 181.731 237.461 181.768 237.61 181.8C237.77 181.821 237.946 181.832 238.138 181.832L238.33 181.832V183L234.81 183V181.832L234.906 181.832C235.141 181.832 235.333 181.779 235.482 181.672C235.642 181.565 235.77 181.352 235.866 181.032L238.906 171.592L242.042 171.592L245.146 181.192C245.231 181.448 245.354 181.619 245.514 181.704C245.674 181.789 245.871 181.832 246.106 181.832L246.186 181.832V183L240.954 183V181.832L241.162 181.832C241.354 181.832 241.53 181.827 241.69 181.816C241.85 181.805 241.978 181.789 242.074 181.768C242.17 181.736 242.218 181.704 242.218 181.672L239.338 172.552ZM251.955 181.832C252.328 181.832 252.653 181.752 252.931 181.592C253.219 181.432 253.464 181.229 253.667 180.984C253.88 180.739 254.061 180.488 254.211 180.232L255.219 180.936C255.005 181.373 254.728 181.763 254.387 182.104C254.056 182.445 253.651 182.712 253.171 182.904C252.701 183.085 252.152 183.176 251.523 183.176C250.584 183.176 249.757 183.005 249.043 182.664C248.339 182.312 247.789 181.805 247.395 181.144C247 180.483 246.803 179.688 246.803 178.76C246.803 177.821 246.995 177.027 247.379 176.376C247.773 175.715 248.328 175.213 249.043 174.872C249.768 174.52 250.627 174.344 251.619 174.344C252.227 174.344 252.755 174.392 253.203 174.488C253.661 174.584 254.04 174.696 254.339 174.824C254.648 174.952 254.867 175.064 254.995 175.16V177.64L252.787 177.64V175.4C252.925 175.4 253.037 175.437 253.123 175.512C253.208 175.587 253.267 175.672 253.299 175.768C253.341 175.864 253.357 175.965 253.347 176.072C253.336 176.168 253.309 176.243 253.267 176.296C253.107 176.104 252.899 175.949 252.643 175.832C252.397 175.715 252.099 175.656 251.747 175.656C251.288 175.656 250.909 175.773 250.611 176.008C250.312 176.243 250.088 176.595 249.939 177.064C249.8 177.523 249.731 178.088 249.731 178.76C249.731 179.272 249.773 179.72 249.859 180.104C249.955 180.488 250.093 180.808 250.275 181.064C250.456 181.32 250.685 181.512 250.963 181.64C251.251 181.768 251.581 181.832 251.955 181.832ZM261.345 181.832C261.719 181.832 262.044 181.752 262.321 181.592C262.609 181.432 262.855 181.229 263.057 180.984C263.271 180.739 263.452 180.488 263.601 180.232L264.609 180.936C264.396 181.373 264.119 181.763 263.777 182.104C263.447 182.445 263.041 182.712 262.561 182.904C262.092 183.085 261.543 183.176 260.913 183.176C259.975 183.176 259.148 183.005 258.433 182.664C257.729 182.312 257.18 181.805 256.785 181.144C256.391 180.483 256.193 179.688 256.193 178.76C256.193 177.821 256.385 177.027 256.769 176.376C257.164 175.715 257.719 175.213 258.433 174.872C259.159 174.52 260.017 174.344 261.009 174.344C261.617 174.344 262.145 174.392 262.593 174.488C263.052 174.584 263.431 174.696 263.729 174.824C264.039 174.952 264.257 175.064 264.385 175.16V177.64L262.177 177.64V175.4C262.316 175.4 262.428 175.437 262.513 175.512C262.599 175.587 262.657 175.672 262.689 175.768C262.732 175.864 262.748 175.965 262.737 176.072C262.727 176.168 262.7 176.243 262.657 176.296C262.497 176.104 262.289 175.949 262.033 175.832C261.788 175.715 261.489 175.656 261.137 175.656C260.679 175.656 260.3 175.773 260.001 176.008C259.703 176.243 259.479 176.595 259.329 177.064C259.191 177.523 259.121 178.088 259.121 178.76C259.121 179.272 259.164 179.72 259.249 180.104C259.345 180.488 259.484 180.808 259.665 181.064C259.847 181.32 260.076 181.512 260.353 181.64C260.641 181.768 260.972 181.832 261.345 181.832ZM275.024 178.76C275.024 179.656 274.832 180.435 274.448 181.096C274.074 181.757 273.536 182.269 272.832 182.632C272.128 182.995 271.285 183.176 270.304 183.176C269.322 183.176 268.48 182.995 267.776 182.632C267.072 182.269 266.528 181.757 266.144 181.096C265.77 180.435 265.584 179.656 265.584 178.76C265.584 178.088 265.69 177.48 265.904 176.936C266.117 176.392 266.426 175.928 266.832 175.544C267.248 175.16 267.744 174.867 268.32 174.664C268.906 174.451 269.568 174.344 270.304 174.344C271.04 174.344 271.696 174.451 272.272 174.664C272.858 174.867 273.354 175.16 273.76 175.544C274.176 175.928 274.49 176.392 274.704 176.936C274.917 177.48 275.024 178.088 275.024 178.76ZM268.512 178.76C268.512 179.475 268.576 180.067 268.704 180.536C268.832 180.995 269.029 181.336 269.296 181.56C269.562 181.784 269.898 181.896 270.304 181.896C270.72 181.896 271.056 181.784 271.312 181.56C271.578 181.336 271.776 180.995 271.904 180.536C272.032 180.067 272.096 179.475 272.096 178.76C272.096 178.045 272.032 177.464 271.904 177.016C271.776 176.557 271.578 176.216 271.312 175.992C271.045 175.768 270.709 175.656 270.304 175.656C269.898 175.656 269.562 175.768 269.296 175.992C269.029 176.216 268.832 176.557 268.704 177.016C268.576 177.464 268.512 178.045 268.512 178.76ZM279.73 174.504V180.408C279.73 180.653 279.756 180.861 279.81 181.032C279.874 181.203 279.97 181.331 280.098 181.416C280.236 181.491 280.412 181.528 280.626 181.528C280.882 181.528 281.127 181.464 281.362 181.336C281.596 181.197 281.831 180.989 282.066 180.712C282.3 180.424 282.535 180.061 282.77 179.624L282.738 181C282.503 181.459 282.22 181.848 281.89 182.168C281.559 182.488 281.191 182.733 280.786 182.904C280.391 183.075 279.959 183.16 279.49 183.16C278.956 183.16 278.492 183.059 278.098 182.856C277.703 182.653 277.399 182.355 277.186 181.96C276.983 181.565 276.882 181.075 276.882 180.488V176.216C276.882 176.045 276.818 175.928 276.69 175.864C276.562 175.789 276.359 175.731 276.082 175.688L275.906 175.656V174.504L279.73 174.504ZM285.234 174.504V181.352C285.234 181.469 285.266 181.56 285.33 181.624C285.404 181.677 285.5 181.725 285.618 181.768C285.746 181.8 285.895 181.827 286.066 181.848L286.178 181.88V183L282.674 183L282.53 181.064L282.386 181.032V176.216C282.386 176.045 282.3 175.923 282.13 175.848C281.97 175.773 281.751 175.72 281.474 175.688L281.218 175.656V174.504L285.234 174.504ZM287.004 183V181.96L287.02 181.96C287.212 181.96 287.372 181.939 287.5 181.896C287.638 181.853 287.74 181.784 287.804 181.688C287.878 181.581 287.916 181.437 287.916 181.256V176.216C287.916 176.099 287.889 176.013 287.836 175.96C287.782 175.896 287.697 175.848 287.58 175.816C287.462 175.773 287.313 175.731 287.132 175.688L287.004 175.656V174.504L290.508 174.504L290.636 176.408L290.764 176.44V181.816C290.764 181.848 290.806 181.875 290.892 181.896C290.977 181.917 291.078 181.933 291.196 181.944C291.313 181.955 291.42 181.96 291.516 181.96L291.58 181.96V183L287.004 183ZM297.276 183L292.7 183V181.96L292.748 181.96C292.844 181.96 292.95 181.955 293.068 181.944C293.196 181.933 293.297 181.917 293.372 181.896C293.457 181.875 293.5 181.848 293.5 181.816V177.08C293.5 176.824 293.468 176.616 293.404 176.456C293.35 176.296 293.254 176.179 293.116 176.104C292.988 176.019 292.812 175.976 292.588 175.976C292.321 175.976 292.065 176.045 291.82 176.184C291.574 176.323 291.334 176.536 291.1 176.824C290.865 177.101 290.63 177.459 290.396 177.896L290.412 176.536C290.646 176.088 290.924 175.699 291.244 175.368C291.574 175.037 291.948 174.787 292.364 174.616C292.79 174.435 293.238 174.344 293.708 174.344C294.262 174.344 294.737 174.445 295.132 174.648C295.526 174.851 295.825 175.149 296.028 175.544C296.241 175.928 296.348 176.419 296.348 177.016V181.256C296.348 181.437 296.385 181.581 296.46 181.688C296.534 181.784 296.636 181.853 296.764 181.896C296.902 181.939 297.062 181.96 297.244 181.96L297.276 181.96V183ZM297.761 175.752V174.584L297.857 174.584C298.124 174.584 298.348 174.568 298.529 174.536C298.721 174.493 298.865 174.413 298.961 174.296C299.068 174.168 299.121 173.987 299.121 173.752L300.817 174.504L304.209 174.504V175.752L297.761 175.752ZM301.873 180.216C301.873 180.611 301.921 180.92 302.017 181.144C302.124 181.357 302.268 181.512 302.449 181.608C302.641 181.693 302.876 181.736 303.153 181.736C303.388 181.736 303.607 181.715 303.809 181.672C304.012 181.629 304.151 181.597 304.225 181.576V182.904C304.119 182.947 303.969 182.984 303.777 183.016C303.596 183.059 303.383 183.096 303.137 183.128C302.903 183.16 302.641 183.176 302.353 183.176C301.724 183.176 301.153 183.096 300.641 182.936C300.14 182.765 299.745 182.472 299.457 182.056C299.169 181.64 299.025 181.064 299.025 180.328V174.808L299.121 174.68V172.136L301.873 172.136V180.216ZM310.358 180.904C310.358 180.701 310.305 180.536 310.198 180.408C310.092 180.28 309.942 180.173 309.75 180.088C309.569 180.003 309.356 179.933 309.11 179.88C308.876 179.816 308.625 179.752 308.358 179.688C308.017 179.603 307.676 179.507 307.334 179.4C306.993 179.283 306.678 179.133 306.39 178.952C306.102 178.76 305.873 178.509 305.702 178.2C305.532 177.891 305.446 177.501 305.446 177.032C305.446 176.424 305.601 175.923 305.91 175.528C306.22 175.123 306.657 174.819 307.222 174.616C307.788 174.413 308.444 174.312 309.19 174.312C309.809 174.312 310.337 174.355 310.774 174.44C311.222 174.525 311.585 174.621 311.862 174.728C312.14 174.824 312.332 174.904 312.438 174.968V176.84L310.422 176.84V175.352C310.582 175.331 310.705 175.341 310.79 175.384C310.886 175.427 310.945 175.485 310.966 175.56C310.998 175.635 311.009 175.715 310.998 175.8C310.988 175.885 310.966 175.971 310.934 176.056C310.806 175.939 310.657 175.843 310.486 175.768C310.316 175.693 310.124 175.64 309.91 175.608C309.697 175.565 309.462 175.544 309.206 175.544C308.758 175.544 308.422 175.619 308.198 175.768C307.974 175.917 307.862 176.136 307.862 176.424C307.862 176.627 307.916 176.792 308.022 176.92C308.129 177.037 308.278 177.139 308.47 177.224C308.662 177.309 308.881 177.384 309.126 177.448C309.382 177.512 309.654 177.576 309.942 177.64C310.294 177.736 310.646 177.843 310.998 177.96C311.361 178.067 311.686 178.221 311.974 178.424C312.273 178.616 312.508 178.861 312.678 179.16C312.86 179.459 312.95 179.837 312.95 180.296C312.95 180.925 312.796 181.453 312.486 181.88C312.188 182.307 311.734 182.632 311.126 182.856C310.518 183.069 309.761 183.176 308.854 183.176C308.257 183.176 307.718 183.133 307.238 183.048C306.769 182.973 306.364 182.872 306.022 182.744C305.692 182.616 305.436 182.499 305.254 182.392V180.376L307.302 180.376V182.36C307.11 182.285 306.956 182.195 306.838 182.088C306.732 181.971 306.657 181.859 306.614 181.752C306.582 181.645 306.582 181.555 306.614 181.48C306.646 181.405 306.705 181.368 306.79 181.368C306.94 181.485 307.116 181.592 307.318 181.688C307.521 181.773 307.75 181.843 308.006 181.896C308.273 181.939 308.561 181.96 308.87 181.96C309.201 181.96 309.473 181.923 309.686 181.848C309.91 181.773 310.076 181.661 310.182 181.512C310.3 181.352 310.358 181.149 310.358 180.904Z" fill="#2C3667"/>
<path d="M276 245L276 274.5C276 285.546 284.954 294.5 296 294.5L391.5 294.5C400.337 294.5 407.5 301.663 407.5 310.5L407.5 339" stroke="#AFB7DC" stroke-width="3"/>
<path d="M274 276V439" stroke="#AFB7DC" stroke-width="3"/>
<path d="M271.5 248L271.5 274.5C271.5 285.546 262.546 294.5 251.5 294.5L156 294.5C147.163 294.5 140 301.663 140 310.5L140 336.5" stroke="#AFB7DC" stroke-width="3"/>
<g clip-path="url(#clip0_15188_20380)">
<rect width="5" height="4" transform="matrix(0 1 1 0 272 277)" fill="url(#paint1_linear_15188_20380)"/>
</g>
<g filter="url(#filter2_d_15188_20380)">
<rect x="231" y="198" width="84" height="84" rx="42" fill="#AFB7DC"/>
<rect x="231.5" y="198.5" width="83" height="83" rx="41.5" stroke="white"/>
</g>
<path fill-rule="evenodd" clip-rule="evenodd" d="M261.015 222H285.097C287.647 222 289.045 224.977 287.421 226.948L280.425 235.434H264.772C263.479 235.434 262.673 236.841 263.326 237.961L269.548 248.629L263.339 256.16C261.539 258.344 258 257.068 258 254.235V225.023C258 223.353 259.35 222 261.015 222ZM269.548 248.629L273.71 255.766C274.25 256.694 275.241 257.264 276.312 257.264H295.281C296.574 257.264 297.379 255.856 296.727 254.737L286.343 236.931C285.802 236.004 284.812 235.434 283.74 235.434H280.425L269.548 248.629Z" fill="#394375"/>
<g filter="url(#filter3_d_15188_20380)">
<rect x="142" y="440" width="264" height="56" rx="12" fill="white"/>
<rect x="142.5" y="440.5" width="263" height="55" rx="11.5" stroke="#AFB7DC"/>
</g>
<mask id="mask0_15188_20380" style="mask-type:luminance" maskUnits="userSpaceOnUse" x="345" y="460" width="16" height="16">
<path d="M361 468C361 463.582 357.418 460 353 460C348.582 460 345 463.582 345 468C345 472.418 348.582 476 353 476C357.418 476 361 472.418 361 468Z" fill="white"/>
</mask>
<g mask="url(#mask0_15188_20380)">
<mask id="mask1_15188_20380" style="mask-type:luminance" maskUnits="userSpaceOnUse" x="342" y="460" width="22" height="16">
<path d="M363.666 460H342.333V476H363.666V460Z" fill="white"/>
</mask>
<g mask="url(#mask1_15188_20380)">
<path d="M342.333 460H363.666V476H342.333V460Z" fill="#003399"/>
<path d="M353.103 462.884L353.238 463.289L353.665 463.293C353.721 463.293 353.744 463.364 353.699 463.396L353.356 463.65L353.484 464.058C353.501 464.11 353.441 464.154 353.396 464.122L353.048 463.873L352.701 464.122C352.656 464.154 352.596 464.11 352.612 464.058L352.741 463.65L352.397 463.396C352.353 463.364 352.376 463.293 352.431 463.293L352.859 463.289L352.994 462.884C353.011 462.831 353.085 462.831 353.103 462.884Z" fill="#FFE15A"/>
<path d="M353.103 471.587L353.238 471.992L353.665 471.996C353.721 471.996 353.744 472.067 353.699 472.1L353.356 472.353L353.484 472.761C353.501 472.813 353.441 472.857 353.396 472.825L353.048 472.576L352.701 472.825C352.656 472.857 352.596 472.814 352.612 472.761L352.741 472.353L352.397 472.1C352.353 472.067 352.376 471.996 352.431 471.996L352.859 471.992L352.994 471.587C353.011 471.534 353.085 471.534 353.103 471.587Z" fill="#FFE15A"/>
<path d="M357.454 467.236L357.589 467.641L358.016 467.644C358.071 467.645 358.094 467.715 358.05 467.748L357.706 468.002L357.835 468.409C357.852 468.462 357.792 468.506 357.747 468.474L357.399 468.225L357.051 468.474C357.006 468.506 356.946 468.462 356.963 468.409L357.092 468.002L356.748 467.748C356.704 467.715 356.727 467.645 356.782 467.644L357.209 467.641L357.344 467.236C357.362 467.183 357.436 467.183 357.454 467.236Z" fill="#FFE15A"/>
<path d="M348.75 467.236L348.886 467.641L349.313 467.644C349.368 467.645 349.391 467.715 349.347 467.748L349.003 468.002L349.132 468.409C349.149 468.462 349.088 468.506 349.043 468.474L348.696 468.225L348.348 468.474C348.303 468.506 348.243 468.462 348.26 468.409L348.389 468.002L348.045 467.748C348 467.715 348.023 467.645 348.079 467.644L348.506 467.641L348.641 467.236C348.659 467.183 348.733 467.183 348.75 467.236Z" fill="#FFE15A"/>
<path d="M349.404 464.963L349.539 465.368L349.966 465.372C350.022 465.372 350.045 465.443 350 465.475L349.656 465.729L349.785 466.137C349.802 466.189 349.742 466.233 349.697 466.201L349.349 465.952L349.002 466.201C348.957 466.233 348.896 466.189 348.913 466.137L349.042 465.729L348.698 465.475C348.654 465.443 348.677 465.372 348.732 465.372L349.159 465.368L349.295 464.963C349.312 464.91 349.386 464.91 349.404 464.963Z" fill="#FFE15A"/>
<path d="M356.941 469.314L357.076 469.72L357.503 469.723C357.559 469.723 357.582 469.794 357.537 469.827L357.193 470.081L357.322 470.488C357.339 470.541 357.279 470.585 357.234 470.552L356.886 470.304L356.539 470.552C356.494 470.585 356.434 470.541 356.45 470.488L356.579 470.081L356.235 469.827C356.191 469.794 356.214 469.723 356.269 469.723L356.696 469.72L356.832 469.314C356.849 469.262 356.923 469.262 356.941 469.314Z" fill="#FFE15A"/>
<path d="M355.349 463.37L355.484 463.776L355.912 463.779C355.967 463.779 355.99 463.85 355.945 463.883L355.602 464.137L355.73 464.544C355.747 464.597 355.687 464.64 355.642 464.608L355.294 464.36L354.947 464.608C354.902 464.64 354.842 464.597 354.858 464.544L354.987 464.137L354.644 463.883C354.599 463.85 354.622 463.779 354.677 463.779L355.105 463.776L355.24 463.37C355.257 463.318 355.332 463.318 355.349 463.37Z" fill="#FFE15A"/>
<path d="M350.997 470.907L351.132 471.312L351.559 471.316C351.614 471.316 351.637 471.387 351.593 471.42L351.249 471.673L351.378 472.081C351.395 472.134 351.335 472.177 351.29 472.145L350.942 471.897L350.594 472.145C350.549 472.177 350.489 472.134 350.506 472.081L350.635 471.673L350.291 471.42C350.247 471.387 350.269 471.316 350.325 471.316L350.752 471.312L350.887 470.907C350.905 470.855 350.979 470.855 350.997 470.907Z" fill="#FFE15A"/>
<path d="M356.832 464.963L356.696 465.368L356.269 465.372C356.214 465.372 356.191 465.443 356.235 465.475L356.579 465.729L356.45 466.137C356.434 466.189 356.494 466.233 356.539 466.201L356.886 465.952L357.234 466.201C357.279 466.233 357.339 466.189 357.322 466.137L357.193 465.729L357.537 465.475C357.582 465.443 357.559 465.372 357.503 465.372L357.076 465.368L356.941 464.963C356.923 464.91 356.849 464.91 356.832 464.963Z" fill="#FFE15A"/>
<path d="M349.295 469.314L349.159 469.72L348.732 469.723C348.677 469.723 348.654 469.794 348.698 469.827L349.042 470.081L348.913 470.488C348.896 470.541 348.957 470.585 349.002 470.552L349.349 470.304L349.697 470.552C349.742 470.585 349.802 470.541 349.785 470.488L349.656 470.081L350 469.827C350.045 469.794 350.022 469.723 349.966 469.723L349.539 469.72L349.404 469.314C349.386 469.262 349.312 469.262 349.295 469.314Z" fill="#FFE15A"/>
<path d="M350.887 463.37L350.752 463.776L350.325 463.779C350.269 463.779 350.247 463.85 350.291 463.883L350.635 464.137L350.506 464.544C350.489 464.597 350.549 464.64 350.594 464.608L350.942 464.36L351.29 464.608C351.335 464.64 351.395 464.597 351.378 464.544L351.249 464.137L351.593 463.883C351.637 463.85 351.614 463.779 351.559 463.779L351.132 463.776L350.997 463.37C350.979 463.318 350.905 463.318 350.887 463.37Z" fill="#FFE15A"/>
<path d="M355.239 470.907L355.104 471.312L354.676 471.316C354.621 471.316 354.598 471.387 354.643 471.42L354.986 471.673L354.858 472.081C354.841 472.134 354.901 472.177 354.946 472.145L355.293 471.897L355.641 472.145C355.686 472.177 355.746 472.134 355.729 472.081L355.601 471.673L355.944 471.42C355.989 471.387 355.966 471.316 355.911 471.316L355.483 471.312L355.348 470.907C355.331 470.855 355.256 470.855 355.239 470.907Z" fill="#FFE15A"/>
</g>
</g>
<path d="M367.952 474V463.57L374.854 463.57V465.124L369.716 465.124V467.994L374.574 467.994V469.548L369.716 469.548V472.446L374.854 472.446L374.84 474L367.952 474ZM383.778 463.57L385.57 463.57V470.304C385.57 472.544 383.946 474.168 381.51 474.168C379.06 474.168 377.45 472.544 377.45 470.304V463.57L379.228 463.57V470.304C379.228 471.648 380.166 472.572 381.51 472.572C382.84 472.572 383.778 471.634 383.778 470.304V463.57ZM388.437 474V463.57L392.455 463.57C394.597 463.57 396.095 464.774 396.095 466.846C396.095 468.288 395.353 469.324 394.163 469.8L396.571 474L394.555 474L392.357 470.108L390.201 470.108V474L388.437 474ZM390.201 468.568L392.455 468.568C393.561 468.568 394.303 467.882 394.303 466.846C394.303 465.81 393.561 465.124 392.455 465.124L390.201 465.124V468.568Z" fill="#596495"/>
<path d="M205.28 472.44C206.76 472.44 207.92 471.5 208.38 469.94L211.1 471.26C210.3 473.7 208.06 475.24 205.28 475.24C202.12 475.24 199.68 473.24 198.82 470.18L196.4 470.18L196.96 468.18L198.48 468.18C198.46 467.96 198.46 467.76 198.46 467.54V467.18L197.2 467.18L197.76 465.18L198.74 465.18C199.52 461.94 201.98 459.86 205.28 459.86C208.06 459.86 210.3 461.38 211.1 463.84L208.38 465.16C207.92 463.6 206.76 462.66 205.28 462.66C203.78 462.66 202.56 463.64 201.96 465.18L207.36 465.18L206.8 467.18L201.54 467.18V467.54C201.54 467.76 201.54 467.98 201.56 468.18L206.56 468.18L206 470.18L202.06 470.18C202.68 471.58 203.84 472.44 205.28 472.44ZM214.623 475L214.603 472.6L218.603 468.48C220.943 466.06 221.463 465.36 221.463 464.42C221.463 463.34 220.743 462.66 219.603 462.66C218.443 462.66 217.503 463.36 217.103 464.52L214.663 463.12C215.343 461.12 217.323 459.86 219.803 459.86C222.643 459.86 224.563 461.54 224.563 464.04C224.563 465.66 223.683 467.02 221.903 468.84L218.443 472.4L224.743 472.4V475L214.623 475ZM240.733 469.2V471.8L238.253 471.8V475L235.153 475V471.8L228.353 471.8V469.2L234.953 460.1L238.253 460.1V469.2L240.733 469.2ZM231.373 469.2L235.153 469.2V463.84L231.373 469.2ZM244.632 477.3L245.452 472L248.152 472L246.632 477.3L244.632 477.3ZM258.07 465.18C260.93 465.18 262.91 467.12 262.91 469.9C262.91 472.96 260.61 475.24 257.49 475.24C255.09 475.24 253.05 473.94 252.35 471.98L254.81 470.58C255.23 471.7 256.27 472.44 257.49 472.44C258.87 472.44 259.81 471.5 259.81 470.1C259.81 468.72 258.87 467.78 257.49 467.78C256.57 467.78 255.93 468.2 255.59 469.04L253.15 468.44L254.55 460.1L262.57 460.1V462.7L256.65 462.68L256.17 465.62C256.69 465.32 257.31 465.18 258.07 465.18ZM279.085 469.2V471.8L276.605 471.8V475L273.505 475V471.8L266.705 471.8V469.2L273.305 460.1L276.605 460.1V469.2L279.085 469.2ZM269.725 469.2L273.505 469.2V463.84L269.725 469.2ZM283.224 475L289.244 462.68L282.184 462.68V460.08L292.324 460.08V462.68L286.484 475L283.224 475ZM296.424 475V472L299.424 472V475L296.424 475ZM310.69 465.78C312.85 466.14 314.21 467.76 314.21 470.06C314.21 473.04 311.87 475.24 308.71 475.24C306.33 475.24 304.37 473.98 303.63 471.98L306.07 470.58C306.51 471.78 307.43 472.44 308.71 472.44C310.17 472.44 311.11 471.56 311.11 470.18C311.11 468.82 310.21 467.98 308.71 467.98C308.11 467.98 307.51 468.12 307.03 468.36L306.31 466.86L310.15 462.7L304.31 462.7V460.1L313.61 460.1V462.5L310.69 465.78ZM324.045 475.24C320.445 475.24 318.005 472.16 318.005 467.54C318.005 462.92 320.425 459.86 324.025 459.86C327.665 459.86 330.065 462.94 330.065 467.54C330.065 472.14 327.665 475.24 324.045 475.24ZM324.045 472.44C325.905 472.44 326.985 470.64 326.985 467.54C326.985 464.46 325.905 462.66 324.025 462.66C322.165 462.66 321.085 464.44 321.085 467.54C321.085 470.62 322.185 472.44 324.045 472.44Z" fill="#2C3667"/>
<rect x="150" y="448" width="40" height="40" rx="8" fill="black"/>
<rect x="150" y="448" width="40" height="40" rx="8" fill="url(#paint2_linear_15188_20380)"/>
<g clip-path="url(#clip1_15188_20380)">
<g clip-path="url(#clip2_15188_20380)">
<rect width="94.8428" height="100.746" transform="matrix(0.537127 0.843501 -0.207635 0.978206 104.015 298.718)" fill="url(#paint3_linear_15188_20380)"/>
<rect width="94.8428" height="100.746" transform="matrix(0.537127 0.843501 -0.207635 0.978206 154.957 378.718)" fill="url(#paint4_linear_15188_20380)"/>
<rect width="94.8428" height="100.746" transform="matrix(0.537127 0.843501 -0.207635 0.978206 205.899 458.718)" fill="url(#paint5_linear_15188_20380)"/>
</g>
</g>
<rect x="151" y="449" width="38" height="38" rx="7" fill="#ECF0FF" stroke="#D5DAEF" stroke-width="2"/>
<g filter="url(#filter4_d_15188_20380)">
<rect x="288" y="333" width="252" height="56" rx="12" fill="white"/>
<rect x="288.5" y="333.5" width="251" height="55" rx="11.5" stroke="#AFB7DC"/>
</g>
<path d="M349.88 361.9V365.4L356.24 365.4V368L344.48 368V365.4L346.88 365.4V361.9L343.86 361.9L344.42 359.9L346.88 359.9V357.9C346.88 354.88 348.9 352.86 351.96 352.86C354.34 352.86 356.24 354.1 356.9 356.12L354.46 357.52C354.08 356.32 353.18 355.66 351.96 355.66C350.62 355.66 349.88 356.46 349.88 357.9V359.9L354.02 359.9L353.46 361.9L349.88 361.9ZM369.685 360.18C371.085 360.94 371.825 362.1 371.825 363.58C371.825 366.26 369.465 368.24 366.305 368.24C363.165 368.24 360.825 366.26 360.825 363.58C360.825 362.08 361.545 360.9 362.945 360.18C361.945 359.54 361.325 358.32 361.325 357C361.325 354.6 363.405 352.86 366.305 352.86C369.185 352.86 371.305 354.6 371.305 357C371.305 358.3 370.685 359.52 369.685 360.18ZM366.305 355.46C365.205 355.46 364.465 356.18 364.465 357.24C364.465 358.28 365.205 358.98 366.305 358.98C367.405 358.98 368.145 358.28 368.145 357.24C368.145 356.18 367.405 355.46 366.305 355.46ZM366.305 365.64C367.745 365.64 368.705 364.82 368.705 363.6C368.705 362.38 367.745 361.58 366.305 361.58C364.885 361.58 363.945 362.38 363.945 363.6C363.945 364.82 364.885 365.64 366.305 365.64ZM376.123 370.3L376.943 365L379.643 365L378.123 370.3L376.123 370.3ZM384.681 368L390.701 355.68L383.641 355.68V353.08L393.781 353.08V355.68L387.941 368L384.681 368ZM403.22 368.24C399.62 368.24 397.18 365.16 397.18 360.54C397.18 355.92 399.6 352.86 403.2 352.86C406.84 352.86 409.24 355.94 409.24 360.54C409.24 365.14 406.84 368.24 403.22 368.24ZM403.22 365.44C405.08 365.44 406.16 363.64 406.16 360.54C406.16 357.46 405.08 355.66 403.2 355.66C401.34 355.66 400.26 357.44 400.26 360.54C400.26 363.62 401.36 365.44 403.22 365.44ZM418.882 368.24C415.282 368.24 412.842 365.16 412.842 360.54C412.842 355.92 415.262 352.86 418.862 352.86C422.502 352.86 424.902 355.94 424.902 360.54C424.902 365.14 422.502 368.24 418.882 368.24ZM418.882 365.44C420.742 365.44 421.822 363.64 421.822 360.54C421.822 357.46 420.742 355.66 418.862 355.66C417.002 355.66 415.922 357.44 415.922 360.54C415.922 363.62 417.022 365.44 418.882 365.44ZM429.204 368V365L432.204 365V368L429.204 368ZM436.429 368L436.409 365.6L440.409 361.48C442.749 359.06 443.269 358.36 443.269 357.42C443.269 356.34 442.549 355.66 441.409 355.66C440.249 355.66 439.309 356.36 438.909 357.52L436.469 356.12C437.149 354.12 439.129 352.86 441.609 352.86C444.449 352.86 446.369 354.54 446.369 357.04C446.369 358.66 445.489 360.02 443.709 361.84L440.249 365.4L446.549 365.4V368L436.429 368ZM456.395 368.24C452.795 368.24 450.355 365.16 450.355 360.54C450.355 355.92 452.775 352.86 456.375 352.86C460.015 352.86 462.415 355.94 462.415 360.54C462.415 365.14 460.015 368.24 456.395 368.24ZM456.395 365.44C458.255 365.44 459.335 363.64 459.335 360.54C459.335 357.46 458.255 355.66 456.375 355.66C454.515 355.66 453.435 357.44 453.435 360.54C453.435 363.62 454.535 365.44 456.395 365.44Z" fill="#2C3667"/>
<line x1="471.5" y1="333" x2="471.5" y2="388" stroke="#AFB7DC"/>
<mask id="mask2_15188_20380" style="mask-type:luminance" maskUnits="userSpaceOnUse" x="478" y="351" width="16" height="16">
<path d="M494 359C494 354.582 490.418 351 486 351C481.582 351 478 354.582 478 359C478 363.418 481.582 367 486 367C490.418 367 494 363.418 494 359Z" fill="white"/>
</mask>
<g mask="url(#mask2_15188_20380)">
<mask id="mask3_15188_20380" style="mask-type:luminance" maskUnits="userSpaceOnUse" x="475" y="351" width="22" height="16">
<path d="M496.666 351H475.333V367H496.666V351Z" fill="white"/>
</mask>
<g mask="url(#mask3_15188_20380)">
<path d="M475.333 351H496.666V367H475.333V351Z" fill="#003399"/>
<path d="M486.103 353.884L486.238 354.289L486.665 354.293C486.721 354.293 486.744 354.364 486.699 354.396L486.356 354.65L486.484 355.058C486.501 355.11 486.441 355.154 486.396 355.122L486.048 354.873L485.701 355.122C485.656 355.154 485.596 355.11 485.612 355.058L485.741 354.65L485.397 354.396C485.353 354.364 485.376 354.293 485.431 354.293L485.859 354.289L485.994 353.884C486.011 353.831 486.085 353.831 486.103 353.884Z" fill="#FFE15A"/>
<path d="M486.103 362.587L486.238 362.992L486.665 362.996C486.721 362.996 486.744 363.067 486.699 363.1L486.356 363.353L486.484 363.761C486.501 363.813 486.441 363.857 486.396 363.825L486.048 363.576L485.701 363.825C485.656 363.857 485.596 363.814 485.612 363.761L485.741 363.353L485.397 363.1C485.353 363.067 485.376 362.996 485.431 362.996L485.859 362.992L485.994 362.587C486.011 362.534 486.085 362.534 486.103 362.587Z" fill="#FFE15A"/>
<path d="M490.454 358.236L490.589 358.641L491.016 358.644C491.071 358.645 491.094 358.715 491.05 358.748L490.706 359.002L490.835 359.409C490.852 359.462 490.792 359.506 490.747 359.474L490.399 359.225L490.051 359.474C490.006 359.506 489.946 359.462 489.963 359.409L490.092 359.002L489.748 358.748C489.704 358.715 489.727 358.645 489.782 358.644L490.209 358.641L490.344 358.236C490.362 358.183 490.436 358.183 490.454 358.236Z" fill="#FFE15A"/>
<path d="M481.75 358.236L481.886 358.641L482.313 358.644C482.368 358.645 482.391 358.715 482.347 358.748L482.003 359.002L482.132 359.409C482.149 359.462 482.088 359.506 482.043 359.474L481.696 359.225L481.348 359.474C481.303 359.506 481.243 359.462 481.26 359.409L481.389 359.002L481.045 358.748C481 358.715 481.023 358.645 481.079 358.644L481.506 358.641L481.641 358.236C481.659 358.183 481.733 358.183 481.75 358.236Z" fill="#FFE15A"/>
<path d="M482.404 355.963L482.539 356.368L482.966 356.372C483.022 356.372 483.045 356.443 483 356.475L482.656 356.729L482.785 357.137C482.802 357.189 482.742 357.233 482.697 357.201L482.349 356.952L482.002 357.201C481.957 357.233 481.896 357.189 481.913 357.137L482.042 356.729L481.698 356.475C481.654 356.443 481.677 356.372 481.732 356.372L482.159 356.368L482.295 355.963C482.312 355.91 482.386 355.91 482.404 355.963Z" fill="#FFE15A"/>
<path d="M489.941 360.314L490.076 360.72L490.503 360.723C490.559 360.723 490.582 360.794 490.537 360.827L490.193 361.081L490.322 361.488C490.339 361.541 490.279 361.585 490.234 361.552L489.886 361.304L489.539 361.552C489.494 361.585 489.434 361.541 489.45 361.488L489.579 361.081L489.235 360.827C489.191 360.794 489.214 360.723 489.269 360.723L489.696 360.72L489.832 360.314C489.849 360.262 489.923 360.262 489.941 360.314Z" fill="#FFE15A"/>
<path d="M488.349 354.37L488.484 354.776L488.912 354.779C488.967 354.779 488.99 354.85 488.945 354.883L488.602 355.137L488.73 355.544C488.747 355.597 488.687 355.64 488.642 355.608L488.294 355.36L487.947 355.608C487.902 355.64 487.842 355.597 487.858 355.544L487.987 355.137L487.644 354.883C487.599 354.85 487.622 354.779 487.677 354.779L488.105 354.776L488.24 354.37C488.257 354.318 488.332 354.318 488.349 354.37Z" fill="#FFE15A"/>
<path d="M483.997 361.907L484.132 362.312L484.559 362.316C484.614 362.316 484.637 362.387 484.593 362.42L484.249 362.673L484.378 363.081C484.395 363.134 484.335 363.177 484.29 363.145L483.942 362.897L483.594 363.145C483.549 363.177 483.489 363.134 483.506 363.081L483.635 362.673L483.291 362.42C483.247 362.387 483.269 362.316 483.325 362.316L483.752 362.312L483.887 361.907C483.905 361.855 483.979 361.855 483.997 361.907Z" fill="#FFE15A"/>
<path d="M489.832 355.963L489.696 356.368L489.269 356.372C489.214 356.372 489.191 356.443 489.235 356.475L489.579 356.729L489.45 357.137C489.434 357.189 489.494 357.233 489.539 357.201L489.886 356.952L490.234 357.201C490.279 357.233 490.339 357.189 490.322 357.137L490.193 356.729L490.537 356.475C490.582 356.443 490.559 356.372 490.503 356.372L490.076 356.368L489.941 355.963C489.923 355.91 489.849 355.91 489.832 355.963Z" fill="#FFE15A"/>
<path d="M482.295 360.314L482.159 360.72L481.732 360.723C481.677 360.723 481.654 360.794 481.698 360.827L482.042 361.081L481.913 361.488C481.896 361.541 481.957 361.585 482.002 361.552L482.349 361.304L482.697 361.552C482.742 361.585 482.802 361.541 482.785 361.488L482.656 361.081L483 360.827C483.045 360.794 483.022 360.723 482.966 360.723L482.539 360.72L482.404 360.314C482.386 360.262 482.312 360.262 482.295 360.314Z" fill="#FFE15A"/>
<path d="M483.887 354.37L483.752 354.776L483.325 354.779C483.269 354.779 483.247 354.85 483.291 354.883L483.635 355.137L483.506 355.544C483.489 355.597 483.549 355.64 483.594 355.608L483.942 355.36L484.29 355.608C484.335 355.64 484.395 355.597 484.378 355.544L484.249 355.137L484.593 354.883C484.637 354.85 484.614 354.779 484.559 354.779L484.132 354.776L483.997 354.37C483.979 354.318 483.905 354.318 483.887 354.37Z" fill="#FFE15A"/>
<path d="M488.239 361.907L488.104 362.312L487.676 362.316C487.621 362.316 487.598 362.387 487.643 362.42L487.986 362.673L487.858 363.081C487.841 363.134 487.901 363.177 487.946 363.145L488.293 362.897L488.641 363.145C488.686 363.177 488.746 363.134 488.729 363.081L488.601 362.673L488.944 362.42C488.989 362.387 488.966 362.316 488.911 362.316L488.483 362.312L488.348 361.907C488.331 361.855 488.256 361.855 488.239 361.907Z" fill="#FFE15A"/>
</g>
</g>
<g clip-path="url(#clip3_15188_20380)">
<path d="M486 367C490.418 367 494 363.418 494 359C494 354.582 490.418 351 486 351C481.582 351 478 354.582 478 359C478 363.418 481.582 367 486 367Z" fill="#F0F0F0"/>
<path d="M479.654 354.13C479.025 354.947 478.551 355.889 478.275 356.913H482.437L479.654 354.13Z" fill="#0052B4"/>
<path d="M493.724 356.913C493.448 355.889 492.974 354.947 492.346 354.13L489.562 356.913H493.724Z" fill="#0052B4"/>
<path d="M478.275 361.087C478.551 362.111 479.025 363.053 479.654 363.871L482.437 361.087H478.275Z" fill="#0052B4"/>
<path d="M490.871 352.654C490.053 352.025 489.111 351.552 488.087 351.276V355.437L490.871 352.654Z" fill="#0052B4"/>
<path d="M481.129 365.346C481.946 365.975 482.889 366.449 483.913 366.724V362.563L481.129 365.346Z" fill="#0052B4"/>
<path d="M483.913 351.276C482.889 351.552 481.946 352.025 481.129 352.654L483.913 355.437V351.276Z" fill="#0052B4"/>
<path d="M488.087 366.724C489.111 366.449 490.053 365.975 490.871 365.346L488.087 362.563V366.724Z" fill="#0052B4"/>
<path d="M489.562 361.087L492.346 363.871C492.974 363.053 493.448 362.111 493.724 361.087H489.562Z" fill="#0052B4"/>
<path d="M493.932 357.957H487.044H487.044V351.068C486.702 351.023 486.354 351 486 351C485.646 351 485.298 351.023 484.957 351.068V357.956V357.957H478.068C478.023 358.298 478 358.646 478 359C478 359.354 478.023 359.702 478.068 360.043H484.956H484.957V366.932C485.298 366.977 485.646 367 486 367C486.354 367 486.702 366.977 487.043 366.932V360.044V360.043H493.932C493.977 359.702 494 359.354 494 359C494 358.646 493.977 358.298 493.932 357.957Z" fill="#D80027"/>
<path d="M488.087 361.087L491.657 364.657C491.821 364.493 491.978 364.321 492.127 364.143L489.071 361.087H488.087V361.087Z" fill="#D80027"/>
<path d="M483.913 361.087H483.913L480.343 364.657C480.507 364.821 480.678 364.978 480.856 365.127L483.913 362.071V361.087Z" fill="#D80027"/>
<path d="M483.913 356.913V356.913L480.343 353.343C480.179 353.507 480.022 353.679 479.873 353.857L482.929 356.913H483.913V356.913Z" fill="#D80027"/>
<path d="M488.087 356.913L491.657 353.343C491.493 353.179 491.321 353.022 491.143 352.873L488.087 355.929V356.913Z" fill="#D80027"/>
</g>
<path d="M505.936 365.168C502.856 365.168 500.602 362.872 500.602 359.778C500.602 356.698 502.814 354.402 505.796 354.402C507.91 354.402 509.576 355.578 510.15 357.118L508.582 357.874C508.148 356.74 507.126 355.998 505.796 355.998C503.766 355.998 502.366 357.552 502.366 359.778C502.366 362.032 503.78 363.572 505.936 363.572C507.392 363.572 508.386 362.914 508.75 362.06V360.856L505.95 360.856V359.302L510.458 359.302V362.2C509.954 363.894 508.316 365.168 505.936 365.168ZM519.658 359.386C520.61 359.988 520.974 360.856 520.974 361.836C520.974 363.824 519.574 365 517.306 365L512.924 365V354.57L517.306 354.57C519.308 354.57 520.554 355.676 520.554 357.454C520.554 358.21 520.274 358.882 519.658 359.386ZM514.688 356.068V358.672L517.362 358.672C518.202 358.672 518.748 358.154 518.748 357.37C518.748 356.6 518.202 356.068 517.362 356.068L514.688 356.068ZM517.46 363.446C518.496 363.446 519.182 362.802 519.182 361.836C519.182 360.87 518.496 360.226 517.46 360.226L514.688 360.226V363.446L517.46 363.446ZM523.379 365V354.57L527.397 354.57C529.539 354.57 531.037 355.774 531.037 357.846C531.037 359.904 529.525 361.108 527.397 361.108L525.143 361.108V365L523.379 365ZM525.143 359.568L527.397 359.568C528.503 359.568 529.245 358.882 529.245 357.846C529.245 356.81 528.503 356.124 527.397 356.124L525.143 356.124V359.568Z" fill="#596495"/>
<rect x="297" y="342" width="38" height="38" rx="7" fill="#ECF0FF" stroke="#D5DAEF" stroke-width="2"/>
<g filter="url(#filter5_d_15188_20380)">
<rect x="8" y="333" width="252" height="56" rx="12" fill="white"/>
<rect x="8.5" y="333.5" width="251" height="55" rx="11.5" stroke="#AFB7DC"/>
</g>
<path d="M74.32 363.78C74.32 366.1 72.68 367.74 70.1 368.14V370L68.1 370V368.2C65.44 367.96 63.26 366.38 62.5 364.06L65.1 362.84C65.7 364.3 66.86 365.22 68.1 365.46V361.94L66.76 361.52C64.22 360.72 63.02 359.28 63.02 357.3C63.02 354.72 65.04 352.96 68.1 352.86V351.1L70.1 351.1V353.06C72.12 353.56 73.64 354.9 74.28 356.64L71.68 357.86C71.38 357.02 70.84 356.36 70.1 355.96V359.48L70.56 359.62C73.06 360.4 74.32 361.74 74.32 363.78ZM67.6 358.7L68.1 358.86V355.58C66.9 355.66 66.12 356.32 66.12 357.18C66.12 357.88 66.64 358.4 67.6 358.7ZM70.1 365.32C70.82 365.06 71.22 364.54 71.22 363.96C71.22 363.28 70.8 362.86 70.1 362.58V365.32ZM90.3097 362.2V364.8L87.8297 364.8V368L84.7297 368V364.8L77.9297 364.8V362.2L84.5297 353.1L87.8297 353.1V362.2L90.3097 362.2ZM80.9497 362.2L84.7297 362.2V356.84L80.9497 362.2ZM94.2086 370.3L95.0286 365L97.7286 365L96.2086 370.3L94.2086 370.3ZM108.987 358.78C111.147 359.14 112.507 360.76 112.507 363.06C112.507 366.04 110.167 368.24 107.007 368.24C104.627 368.24 102.667 366.98 101.927 364.98L104.367 363.58C104.807 364.78 105.727 365.44 107.007 365.44C108.467 365.44 109.407 364.56 109.407 363.18C109.407 361.82 108.507 360.98 107.007 360.98C106.407 360.98 105.807 361.12 105.327 361.36L104.607 359.86L108.447 355.7L102.607 355.7V353.1L111.907 353.1V355.5L108.987 358.78ZM122.342 368.24C118.742 368.24 116.302 365.16 116.302 360.54C116.302 355.92 118.722 352.86 122.322 352.86C125.962 352.86 128.362 355.94 128.362 360.54C128.362 365.14 125.962 368.24 122.342 368.24ZM122.342 365.44C124.202 365.44 125.282 363.64 125.282 360.54C125.282 357.46 124.202 355.66 122.322 355.66C120.462 355.66 119.382 357.44 119.382 360.54C119.382 363.62 120.482 365.44 122.342 365.44ZM138.003 368.24C134.403 368.24 131.963 365.16 131.963 360.54C131.963 355.92 134.383 352.86 137.983 352.86C141.623 352.86 144.023 355.94 144.023 360.54C144.023 365.14 141.623 368.24 138.003 368.24ZM138.003 365.44C139.863 365.44 140.943 363.64 140.943 360.54C140.943 357.46 139.863 355.66 137.983 355.66C136.123 355.66 135.043 357.44 135.043 360.54C135.043 363.62 136.143 365.44 138.003 365.44ZM148.325 368V365L151.325 365V368L148.325 368ZM155.55 368L155.53 365.6L159.53 361.48C161.87 359.06 162.39 358.36 162.39 357.42C162.39 356.34 161.67 355.66 160.53 355.66C159.37 355.66 158.43 356.36 158.03 357.52L155.59 356.12C156.27 354.12 158.25 352.86 160.73 352.86C163.57 352.86 165.49 354.54 165.49 357.04C165.49 358.66 164.61 360.02 162.83 361.84L159.37 365.4L165.67 365.4V368L155.55 368ZM175.516 368.24C171.916 368.24 169.476 365.16 169.476 360.54C169.476 355.92 171.896 352.86 175.496 352.86C179.136 352.86 181.536 355.94 181.536 360.54C181.536 365.14 179.136 368.24 175.516 368.24ZM175.516 365.44C177.376 365.44 178.456 363.64 178.456 360.54C178.456 357.46 177.376 355.66 175.496 355.66C173.636 355.66 172.556 357.44 172.556 360.54C172.556 363.62 173.656 365.44 175.516 365.44Z" fill="#2C3667"/>
<line x1="191.5" y1="333" x2="191.5" y2="388" stroke="#AFB7DC"/>
<g clip-path="url(#clip4_15188_20380)">
<path d="M206 369C210.418 369 214 365.418 214 361C214 356.582 210.418 353 206 353C201.582 353 198 356.582 198 361C198 365.418 201.582 369 206 369Z" fill="#F0F0F0"/>
<path d="M205.652 361H214C214 360.278 213.904 359.578 213.725 358.913H205.652V361Z" fill="#D80027"/>
<path d="M205.652 356.826H212.826C212.336 356.027 211.71 355.321 210.98 354.739H205.652V356.826Z" fill="#D80027"/>
<path d="M205.999 369C207.882 369 209.613 368.349 210.979 367.261H201.02C202.386 368.349 204.117 369 205.999 369Z" fill="#D80027"/>
<path d="M199.174 365.174H212.826C213.219 364.532 213.524 363.831 213.724 363.087H198.275C198.476 363.831 198.781 364.532 199.174 365.174Z" fill="#D80027"/>
<path d="M201.706 354.249H202.435L201.757 354.742L202.016 355.539L201.338 355.046L200.659 355.539L200.883 354.85C200.286 355.348 199.763 355.93 199.332 356.58H199.565L199.134 356.893C199.066 357.005 199.002 357.119 198.94 357.235L199.146 357.869L198.762 357.59C198.666 357.793 198.579 358 198.5 358.211L198.727 358.91H199.565L198.887 359.403L199.146 360.2L198.468 359.707L198.062 360.002C198.021 360.329 198 360.662 198 361H206C206 356.582 206 356.061 206 353C204.42 353 202.946 353.458 201.706 354.249ZM202.016 360.2L201.338 359.707L200.659 360.2L200.919 359.403L200.24 358.91H201.079L201.338 358.113L201.597 358.91H202.435L201.757 359.403L202.016 360.2ZM201.757 357.072L202.016 357.869L201.338 357.377L200.659 357.869L200.919 357.072L200.24 356.58H201.079L201.338 355.782L201.597 356.58H202.435L201.757 357.072ZM204.885 360.2L204.207 359.707L203.529 360.2L203.788 359.403L203.11 358.91H203.948L204.207 358.113L204.466 358.91H205.304L204.626 359.403L204.885 360.2ZM204.626 357.072L204.885 357.869L204.207 357.377L203.529 357.869L203.788 357.072L203.11 356.58H203.948L204.207 355.782L204.466 356.58H205.304L204.626 357.072ZM204.626 354.742L204.885 355.539L204.207 355.046L203.529 355.539L203.788 354.742L203.11 354.249H203.948L204.207 353.452L204.466 354.249H205.304L204.626 354.742Z" fill="#0052B4"/>
</g>
<path d="M227.28 356.57L229.072 356.57V363.304C229.072 365.544 227.448 367.168 225.012 367.168C222.562 367.168 220.952 365.544 220.952 363.304V356.57L222.73 356.57V363.304C222.73 364.648 223.668 365.572 225.012 365.572C226.342 365.572 227.28 364.634 227.28 363.304V356.57ZM235.72 367.168C233.662 367.168 231.982 365.964 231.45 364.284L232.962 363.598C233.452 364.9 234.53 365.614 235.72 365.614C236.896 365.614 237.652 365.04 237.652 364.27C237.652 363.556 237.218 363.178 236.392 362.926L234.348 362.296C232.626 361.778 231.786 360.742 231.786 359.398C231.786 357.62 233.242 356.402 235.37 356.402C237.344 356.402 238.842 357.522 239.374 358.992L237.848 359.692C237.47 358.586 236.574 357.956 235.384 357.956C234.292 357.956 233.564 358.516 233.564 359.314C233.564 359.958 234.012 360.434 234.852 360.686L236.826 361.288C238.548 361.82 239.43 362.744 239.43 364.144C239.43 365.95 237.932 367.168 235.72 367.168ZM241.875 367V356.57L245.277 356.57C248.553 356.57 250.667 358.698 250.667 361.778C250.667 364.858 248.553 367 245.277 367L241.875 367ZM243.639 365.446L245.319 365.446C247.489 365.446 248.875 364.004 248.875 361.778C248.875 359.552 247.475 358.124 245.319 358.124L243.639 358.124V365.446Z" fill="#596495"/>
<rect x="16" y="341" width="40" height="40" rx="8" fill="black"/>
<rect x="16" y="341" width="40" height="40" rx="8" fill="url(#paint6_linear_15188_20380)"/>
<g clip-path="url(#clip5_15188_20380)">
<g clip-path="url(#clip6_15188_20380)">
<rect width="94.8428" height="100.746" transform="matrix(0.537127 0.843501 -0.207635 0.978206 -29.9854 191.718)" fill="url(#paint7_linear_15188_20380)"/>
<rect width="94.8428" height="100.746" transform="matrix(0.537127 0.843501 -0.207635 0.978206 20.957 271.718)" fill="url(#paint8_linear_15188_20380)"/>
<rect width="94.8428" height="100.746" transform="matrix(0.537127 0.843501 -0.207635 0.978206 71.8994 351.718)" fill="url(#paint9_linear_15188_20380)"/>
</g>
</g>
<rect x="17" y="342" width="38" height="38" rx="7" fill="#ECF0FF" stroke="#D5DAEF" stroke-width="2"/>
<line x1="338.5" y1="441" x2="338.5" y2="496" stroke="#AFB7DC"/>
<path d="M254.121 98.3298H247.016V122.69H254.121V98.3298Z" fill="#AFB7DC"/>
<path d="M266.3 98.3298H259.195V122.69H266.3V98.3298Z" fill="#AFB7DC"/>
<path d="M278.481 98.3298H271.376V122.69H278.481V98.3298Z" fill="#AFB7DC"/>
<path d="M290.661 98.3298H283.556V122.69H290.661V98.3298Z" fill="#AFB7DC"/>
<path opacity="0.8" d="M296.292 88.9288L269.509 74.3201C269.33 74.2225 269.13 74.1714 268.926 74.1714C268.722 74.1714 268.522 74.2225 268.343 74.3201L241.56 88.9288C241.368 89.0336 241.208 89.1881 241.096 89.3762C240.985 89.5643 240.926 89.779 240.926 89.9977V97.302C240.926 97.6249 241.054 97.9346 241.282 98.1629C241.511 98.3912 241.82 98.5194 242.143 98.5194H295.708C296.031 98.5194 296.341 98.3912 296.569 98.1629C296.798 97.9346 296.926 97.6249 296.926 97.302V89.9977C296.926 89.779 296.867 89.5643 296.755 89.3762C296.644 89.1881 296.484 89.0336 296.292 88.9288Z" fill="#D5DAEF"/>
<path opacity="0.8" d="M295.708 122.867H242.143C241.82 122.867 241.511 122.996 241.282 123.224C241.054 123.452 240.926 123.762 240.926 124.085V126.52C240.926 126.842 241.054 127.152 241.282 127.38C241.511 127.609 241.82 127.737 242.143 127.737H295.708C296.031 127.737 296.341 127.609 296.569 127.38C296.798 127.152 296.926 126.842 296.926 126.52V124.085C296.926 123.762 296.798 123.452 296.569 123.224C296.341 122.996 296.031 122.867 295.708 122.867Z" fill="#D5DAEF"/>
<path d="M268.925 92.4327C271.615 92.4327 273.795 90.2526 273.795 87.5632C273.795 84.8738 271.615 82.6936 268.925 82.6936C266.236 82.6936 264.056 84.8738 264.056 87.5632C264.056 90.2526 266.236 92.4327 268.925 92.4327Z" fill="#AFB7DC"/>
<g clip-path="url(#clip7_15188_20380)">
<g clip-path="url(#clip8_15188_20380)">
<rect width="73.2641" height="80.1883" transform="matrix(0.486731 0.873552 -0.182606 0.983186 247.81 -16.6331)" fill="url(#paint10_linear_15188_20380)"/>
<rect width="73.2641" height="80.1883" transform="matrix(0.486731 0.873552 -0.182606 0.983186 283.47 47.3669)" fill="url(#paint11_linear_15188_20380)"/>
<rect width="73.2641" height="80.1883" transform="matrix(0.486731 0.873552 -0.182606 0.983186 319.13 111.367)" fill="url(#paint12_linear_15188_20380)"/>
</g>
</g>
<rect x="284" y="125.793" width="15" height="2" rx="1" fill="white"/>
<rect x="284" y="120.793" width="15" height="2" rx="1" fill="white"/>
<rect x="300" y="125.793" width="4" height="2" rx="1" fill="white"/>
<rect x="300" y="120.793" width="4" height="2" rx="1" fill="white"/>
<path d="M294 115.793C296.209 115.793 298 114.002 298 111.793C298 109.584 296.209 107.793 294 107.793C291.791 107.793 290 109.584 290 111.793C290 114.002 291.791 115.793 294 115.793Z" fill="white"/>
<defs>
<filter id="filter0_d_15188_20380" x="78" y="0" width="392" height="510" filterUnits="userSpaceOnUse" color-interpolation-filters="sRGB">
<feFlood flood-opacity="0" result="BackgroundImageFix"/>
<feColorMatrix in="SourceAlpha" type="matrix" values="0 0 0 0 0 0 0 0 0 0 0 0 0 0 0 0 0 0 127 0" result="hardAlpha"/>
<feOffset/>
<feGaussianBlur stdDeviation="18"/>
<feComposite in2="hardAlpha" operator="out"/>
<feColorMatrix type="matrix" values="0 0 0 0 0.596373 0 0 0 0 0.635165 0 0 0 0 0.701667 0 0 0 0.3 0"/>
<feBlend mode="normal" in2="BackgroundImageFix" result="effect1_dropShadow_15188_20380"/>
<feBlend mode="normal" in="SourceGraphic" in2="effect1_dropShadow_15188_20380" result="shape"/>
</filter>
<filter id="filter1_ddi_15188_20380" x="76" y="28" width="396" height="295" filterUnits="userSpaceOnUse" color-interpolation-filters="sRGB">
<feFlood flood-opacity="0" result="BackgroundImageFix"/>
<feColorMatrix in="SourceAlpha" type="matrix" values="0 0 0 0 0 0 0 0 0 0 0 0 0 0 0 0 0 0 127 0" result="hardAlpha"/>
<feMorphology radius="30" operator="erode" in="SourceAlpha" result="effect1_dropShadow_15188_20380"/>
<feOffset dy="30"/>
<feGaussianBlur stdDeviation="25"/>
<feComposite in2="hardAlpha" operator="out"/>
<feColorMatrix type="matrix" values="0 0 0 0 0.288723 0 0 0 0 0.288593 0 0 0 0 0.288593 0 0 0 0.1 0"/>
<feBlend mode="normal" in2="BackgroundImageFix" result="effect1_dropShadow_15188_20380"/>
<feColorMatrix in="SourceAlpha" type="matrix" values="0 0 0 0 0 0 0 0 0 0 0 0 0 0 0 0 0 0 127 0" result="hardAlpha"/>
<feMorphology radius="20" operator="erode" in="SourceAlpha" result="effect2_dropShadow_15188_20380"/>
<feOffset dy="30"/>
<feGaussianBlur stdDeviation="35"/>
<feComposite in2="hardAlpha" operator="out"/>
<feColorMatrix type="matrix" values="0 0 0 0 0.196078 0 0 0 0 0.196078 0 0 0 0 0.364706 0 0 0 0.15 0"/>
<feBlend mode="normal" in2="effect1_dropShadow_15188_20380" result="effect2_dropShadow_15188_20380"/>
<feBlend mode="normal" in="SourceGraphic" in2="effect2_dropShadow_15188_20380" result="shape"/>
<feColorMatrix in="SourceAlpha" type="matrix" values="0 0 0 0 0 0 0 0 0 0 0 0 0 0 0 0 0 0 127 0" result="hardAlpha"/>
<feOffset dy="-2"/>
<feGaussianBlur stdDeviation="5"/>
<feComposite in2="hardAlpha" operator="arithmetic" k2="-1" k3="1"/>
<feColorMatrix type="matrix" values="0 0 0 0 0.243975 0 0 0 0 0.433631 0 0 0 0 0.623287 0 0 0 0.25 0"/>
<feBlend mode="normal" in2="shape" result="effect3_innerShadow_15188_20380"/>
</filter>
<filter id="filter2_d_15188_20380" x="195" y="162" width="156" height="156" filterUnits="userSpaceOnUse" color-interpolation-filters="sRGB">
<feFlood flood-opacity="0" result="BackgroundImageFix"/>
<feColorMatrix in="SourceAlpha" type="matrix" values="0 0 0 0 0 0 0 0 0 0 0 0 0 0 0 0 0 0 127 0" result="hardAlpha"/>
<feOffset/>
<feGaussianBlur stdDeviation="18"/>
<feComposite in2="hardAlpha" operator="out"/>
<feColorMatrix type="matrix" values="0 0 0 0 0.596373 0 0 0 0 0.635165 0 0 0 0 0.701667 0 0 0 0.3 0"/>
<feBlend mode="normal" in2="BackgroundImageFix" result="effect1_dropShadow_15188_20380"/>
<feBlend mode="normal" in="SourceGraphic" in2="effect1_dropShadow_15188_20380" result="shape"/>
</filter>
<filter id="filter3_d_15188_20380" x="134" y="432" width="280" height="72" filterUnits="userSpaceOnUse" color-interpolation-filters="sRGB">
<feFlood flood-opacity="0" result="BackgroundImageFix"/>
<feColorMatrix in="SourceAlpha" type="matrix" values="0 0 0 0 0 0 0 0 0 0 0 0 0 0 0 0 0 0 127 0" result="hardAlpha"/>
<feOffset/>
<feGaussianBlur stdDeviation="4"/>
<feComposite in2="hardAlpha" operator="out"/>
<feColorMatrix type="matrix" values="0 0 0 0 0.54902 0 0 0 0 0.584314 0 0 0 0 0.760784 0 0 0 0.4 0"/>
<feBlend mode="normal" in2="BackgroundImageFix" result="effect1_dropShadow_15188_20380"/>
<feBlend mode="normal" in="SourceGraphic" in2="effect1_dropShadow_15188_20380" result="shape"/>
</filter>
<filter id="filter4_d_15188_20380" x="280" y="325" width="268" height="72" filterUnits="userSpaceOnUse" color-interpolation-filters="sRGB">
<feFlood flood-opacity="0" result="BackgroundImageFix"/>
<feColorMatrix in="SourceAlpha" type="matrix" values="0 0 0 0 0 0 0 0 0 0 0 0 0 0 0 0 0 0 127 0" result="hardAlpha"/>
<feOffset/>
<feGaussianBlur stdDeviation="4"/>
<feComposite in2="hardAlpha" operator="out"/>
<feColorMatrix type="matrix" values="0 0 0 0 0.54902 0 0 0 0 0.584314 0 0 0 0 0.760784 0 0 0 0.4 0"/>
<feBlend mode="normal" in2="BackgroundImageFix" result="effect1_dropShadow_15188_20380"/>
<feBlend mode="normal" in="SourceGraphic" in2="effect1_dropShadow_15188_20380" result="shape"/>
</filter>
<filter id="filter5_d_15188_20380" x="0" y="325" width="268" height="72" filterUnits="userSpaceOnUse" color-interpolation-filters="sRGB">
<feFlood flood-opacity="0" result="BackgroundImageFix"/>
<feColorMatrix in="SourceAlpha" type="matrix" values="0 0 0 0 0 0 0 0 0 0 0 0 0 0 0 0 0 0 127 0" result="hardAlpha"/>
<feOffset/>
<feGaussianBlur stdDeviation="4"/>
<feComposite in2="hardAlpha" operator="out"/>
<feColorMatrix type="matrix" values="0 0 0 0 0.54902 0 0 0 0 0.584314 0 0 0 0 0.760784 0 0 0 0.4 0"/>
<feBlend mode="normal" in2="BackgroundImageFix" result="effect1_dropShadow_15188_20380"/>
<feBlend mode="normal" in="SourceGraphic" in2="effect1_dropShadow_15188_20380" result="shape"/>
</filter>
<linearGradient id="paint0_linear_15188_20380" x1="274" y1="36" x2="274" y2="474" gradientUnits="userSpaceOnUse">
<stop stop-color="white" stop-opacity="0.4"/>
<stop offset="0.25" stop-color="white" stop-opacity="0.3"/>
<stop offset="0.5" stop-color="#F6F9FC" stop-opacity="0.3"/>
<stop offset="0.6" stop-color="#F6F9FC"/>
</linearGradient>
<linearGradient id="paint1_linear_15188_20380" x1="3.41472e-06" y1="4.0003" x2="4.8392" y2="3.94281" gradientUnits="userSpaceOnUse">
<stop offset="0.0311751" stop-color="#EEC840"/>
<stop offset="0.265305" stop-color="#00D2D3"/>
<stop offset="0.564789" stop-color="#0076FF"/>
<stop offset="0.84709" stop-color="#00D2D3"/>
<stop offset="1" stop-color="#EEC840"/>
</linearGradient>
<linearGradient id="paint2_linear_15188_20380" x1="147.273" y1="445.917" x2="196.693" y2="452.796" gradientUnits="userSpaceOnUse">
<stop stop-color="#F24E1E"/>
<stop offset="0.226572" stop-color="#FF7262"/>
<stop offset="0.48179" stop-color="#A259FF"/>
<stop offset="0.747426" stop-color="#1ABCFE"/>
<stop offset="0.992228" stop-color="#0ACF83"/>
</linearGradient>
<linearGradient id="paint3_linear_15188_20380" x1="-1.67979" y1="62.065" x2="91.7351" y2="60.9854" gradientUnits="userSpaceOnUse">
<stop stop-color="#00D2D3"/>
<stop offset="0.645" stop-color="#EEC840"/>
<stop offset="1" stop-color="#FF8725"/>
</linearGradient>
<linearGradient id="paint4_linear_15188_20380" x1="-1.67979" y1="62.065" x2="91.7351" y2="60.9854" gradientUnits="userSpaceOnUse">
<stop stop-color="#00D2D3"/>
<stop offset="0.645" stop-color="#EEC840"/>
<stop offset="1" stop-color="#FF8725"/>
</linearGradient>
<linearGradient id="paint5_linear_15188_20380" x1="-1.67979" y1="62.065" x2="91.7351" y2="60.9854" gradientUnits="userSpaceOnUse">
<stop stop-color="#00D2D3"/>
<stop offset="0.645" stop-color="#EEC840"/>
<stop offset="1" stop-color="#FF8725"/>
</linearGradient>
<linearGradient id="paint6_linear_15188_20380" x1="13.2727" y1="338.917" x2="62.6926" y2="345.796" gradientUnits="userSpaceOnUse">
<stop stop-color="#F24E1E"/>
<stop offset="0.226572" stop-color="#FF7262"/>
<stop offset="0.48179" stop-color="#A259FF"/>
<stop offset="0.747426" stop-color="#1ABCFE"/>
<stop offset="0.992228" stop-color="#0ACF83"/>
</linearGradient>
<linearGradient id="paint7_linear_15188_20380" x1="-1.67979" y1="62.065" x2="91.7351" y2="60.9854" gradientUnits="userSpaceOnUse">
<stop stop-color="#00D2D3"/>
<stop offset="0.645" stop-color="#EEC840"/>
<stop offset="1" stop-color="#FF8725"/>
</linearGradient>
<linearGradient id="paint8_linear_15188_20380" x1="-1.67979" y1="62.065" x2="91.7351" y2="60.9854" gradientUnits="userSpaceOnUse">
<stop stop-color="#00D2D3"/>
<stop offset="0.645" stop-color="#EEC840"/>
<stop offset="1" stop-color="#FF8725"/>
</linearGradient>
<linearGradient id="paint9_linear_15188_20380" x1="-1.67979" y1="62.065" x2="91.7351" y2="60.9854" gradientUnits="userSpaceOnUse">
<stop stop-color="#00D2D3"/>
<stop offset="0.645" stop-color="#EEC840"/>
<stop offset="1" stop-color="#FF8725"/>
</linearGradient>
<linearGradient id="paint10_linear_15188_20380" x1="32.7519" y1="33.9271" x2="45.8019" y2="82.7537" gradientUnits="userSpaceOnUse">
<stop offset="0.0076178" stop-color="#00D2D3"/>
<stop offset="0.91" stop-color="#00B3FF"/>
</linearGradient>
<linearGradient id="paint11_linear_15188_20380" x1="32.7519" y1="33.9271" x2="45.8019" y2="82.7537" gradientUnits="userSpaceOnUse">
<stop offset="0.0076178" stop-color="#00D2D3"/>
<stop offset="0.91" stop-color="#00B3FF"/>
</linearGradient>
<linearGradient id="paint12_linear_15188_20380" x1="32.7519" y1="33.9271" x2="45.8019" y2="82.7537" gradientUnits="userSpaceOnUse">
<stop offset="0.0076178" stop-color="#00D2D3"/>
<stop offset="0.91" stop-color="#00B3FF"/>
</linearGradient>
<clipPath id="clip0_15188_20380">
<rect width="5" height="4" fill="white" transform="matrix(0 1 1 0 272 277)"/>
</clipPath>
<clipPath id="clip1_15188_20380">
<rect x="150" y="448" width="40" height="40" rx="8" fill="white"/>
</clipPath>
<clipPath id="clip2_15188_20380">
<rect width="94.8428" height="100.746" fill="white" transform="matrix(0.537127 0.843501 -0.207635 0.978206 154.957 378.718)"/>
</clipPath>
<clipPath id="clip3_15188_20380">
<rect width="16" height="16" fill="white" transform="translate(478 351)"/>
</clipPath>
<clipPath id="clip4_15188_20380">
<rect width="16" height="16" fill="white" transform="translate(198 353)"/>
</clipPath>
<clipPath id="clip5_15188_20380">
<rect x="16" y="341" width="40" height="40" rx="8" fill="white"/>
</clipPath>
<clipPath id="clip6_15188_20380">
<rect width="94.8428" height="100.746" fill="white" transform="matrix(0.537127 0.843501 -0.207635 0.978206 20.957 271.718)"/>
</clipPath>
<clipPath id="clip7_15188_20380">
<rect x="280" y="102.793" width="28" height="32" rx="4" fill="white"/>
</clipPath>
<clipPath id="clip8_15188_20380">
<rect width="73.2641" height="80.1883" fill="white" transform="matrix(0.486731 0.873552 -0.182606 0.983186 283.47 47.3669)"/>
</clipPath>
</defs>
</svg>
