<svg width="73" height="72" viewBox="0 0 73 72" fill="none" xmlns="http://www.w3.org/2000/svg">
<g filter="url(#filter0_d_16049_5997)">
<rect x="17.5" y="16" width="39" height="44" rx="5" fill="#D5DAEF" fill-opacity="0.6" shape-rendering="crispEdges"/>
<rect x="17.5" y="16" width="39" height="44" rx="5" stroke="#AFB7DC" stroke-width="0.8" shape-rendering="crispEdges"/>
</g>
<path d="M31.8843 24.452V30.836C31.8843 30.892 31.9083 30.936 31.9563 30.968C32.0043 30.992 32.0683 31.012 32.1483 31.028C32.2363 31.044 32.3323 31.056 32.4363 31.064C32.5483 31.064 32.6603 31.064 32.7723 31.064H33.0003V32H28.8123V31.064H28.9443C29.1603 31.064 29.3363 31.036 29.4723 30.98C29.6163 30.924 29.6883 30.808 29.6883 30.632V24.848C29.6883 24.672 29.6163 24.556 29.4723 24.5C29.3363 24.444 29.1603 24.416 28.9443 24.416H28.8123V23.48H35.8443V25.904H34.7883L34.6683 24.98C34.6523 24.836 34.5923 24.728 34.4883 24.656C34.3923 24.576 34.2523 24.524 34.0683 24.5C33.8923 24.468 33.6723 24.452 33.4083 24.452H31.8843ZM31.6443 27.344C31.9883 27.32 32.3323 27.296 32.6763 27.272C33.0283 27.248 33.3763 27.224 33.7203 27.2C34.0643 27.176 34.4083 27.156 34.7523 27.14V28.412C34.4083 28.388 34.0643 28.368 33.7203 28.352C33.3763 28.328 33.0283 28.304 32.6763 28.28C32.3323 28.256 31.9883 28.232 31.6443 28.208V27.344ZM36.7311 24.416V23.48H40.7511V24.416H40.5711C40.4671 24.416 40.3591 24.42 40.2471 24.428C40.1351 24.436 40.0431 24.448 39.9711 24.464C39.8991 24.48 39.8631 24.504 39.8631 24.536L41.7471 27.2L41.8911 27.272L44.3151 30.656C44.4431 30.832 44.5551 30.944 44.6511 30.992C44.7551 31.04 44.8951 31.064 45.0711 31.064H45.2271V32H41.1351V31.064H41.3151C41.4191 31.064 41.5271 31.06 41.6391 31.052C41.7511 31.044 41.8431 31.032 41.9151 31.016C41.9871 30.992 42.0231 30.968 42.0231 30.944L39.9471 28.028L39.8151 27.956L37.5831 24.812C37.4551 24.644 37.3391 24.536 37.2351 24.488C37.1391 24.44 36.9991 24.416 36.8151 24.416H36.7311ZM36.6591 32V31.064H36.8031C36.9791 31.064 37.1231 31.024 37.2351 30.944C37.3551 30.864 37.4871 30.72 37.6311 30.512L39.8871 27.296L40.6071 27.824L38.5071 30.86C38.5071 30.892 38.5431 30.924 38.6151 30.956C38.6871 30.988 38.7791 31.016 38.8911 31.04C39.0031 31.056 39.1111 31.064 39.2151 31.064H39.4191V32H36.6591ZM41.9391 27.884L41.3391 27.2L43.1031 24.62C43.1031 24.58 43.0631 24.544 42.9831 24.512C42.9111 24.48 42.8191 24.456 42.7071 24.44C42.5951 24.424 42.4831 24.416 42.3711 24.416H42.2151V23.48H44.9271V24.416H44.8431C44.6671 24.416 44.5151 24.456 44.3871 24.536C44.2591 24.608 44.1231 24.748 43.9791 24.956L41.9391 27.884Z" fill="url(#paint0_linear_16049_5997)"/>
<path fill-rule="evenodd" clip-rule="evenodd" d="M14.5 36C20.0228 36 24.5 31.5228 24.5 26C24.5 20.4772 20.0228 16 14.5 16C8.97715 16 4.5 20.4772 4.5 26C4.5 31.5228 8.97715 36 14.5 36ZM9.25 26C9.25 25.7454 9.26813 25.495 9.30317 25.25H12.5C12.9142 25.25 13.25 24.9142 13.25 24.5C13.25 24.0858 12.9142 23.75 12.5 23.75H9.75522C10.5978 21.9763 12.4057 20.75 14.5 20.75C15.4575 20.75 16.353 21.0056 17.1245 21.4519C17.483 21.6593 17.9418 21.5368 18.1492 21.1782C18.3566 20.8197 18.2341 20.3609 17.8755 20.1535C16.8819 19.5787 15.7282 19.25 14.5 19.25C11.561 19.25 9.06072 21.1283 8.13409 23.75H7.5C7.08579 23.75 6.75 24.0858 6.75 24.5C6.75 24.9142 7.08579 25.25 7.5 25.25H7.7912C7.76397 25.4963 7.75 25.7465 7.75 26C7.75 26.2535 7.76397 26.5037 7.7912 26.75H7.5C7.08579 26.75 6.75 27.0858 6.75 27.5C6.75 27.9142 7.08579 28.25 7.5 28.25H8.13409C9.06072 30.8717 11.561 32.75 14.5 32.75C15.7282 32.75 16.8819 32.4213 17.8755 31.8465C18.2341 31.6391 18.3566 31.1803 18.1492 30.8218C17.9418 30.4632 17.483 30.3407 17.1245 30.5481C16.353 30.9944 15.4575 31.25 14.5 31.25C12.4057 31.25 10.5978 30.0237 9.75522 28.25H12.5C12.9142 28.25 13.25 27.9142 13.25 27.5C13.25 27.0858 12.9142 26.75 12.5 26.75H9.30317C9.26813 26.505 9.25 26.2546 9.25 26Z" fill="#00D2D3"/>
<path d="M57 12.25H54.25V9.2C54.25 9.10303 54.2501 9.04531 54.2513 9.0018C54.252 8.97419 54.2531 8.96219 54.2533 8.9593C54.2708 8.85362 54.3536 8.77077 54.4593 8.75334C54.4622 8.75305 54.4742 8.75201 54.5018 8.75126C54.5453 8.75007 54.603 8.75 54.7 8.75H57C57.9665 8.75 58.75 9.5335 58.75 10.5C58.75 11.4665 57.9665 12.25 57 12.25Z" fill="#FF8725"/>
<path fill-rule="evenodd" clip-rule="evenodd" d="M65.5 13C65.5 18.5228 61.0228 23 55.5 23C49.9772 23 45.5 18.5228 45.5 13C45.5 7.47715 49.9772 3 55.5 3C61.0228 3 65.5 7.47715 65.5 13ZM51.75 15C51.75 14.5858 52.0858 14.25 52.5 14.25H52.75V13.75H52.5C52.0858 13.75 51.75 13.4142 51.75 13C51.75 12.5858 52.0858 12.25 52.5 12.25H52.75L52.75 9.16151C52.7498 9.01598 52.7496 8.86471 52.7715 8.72624C52.8901 7.97743 53.4774 7.39015 54.2262 7.27155C54.3647 7.24961 54.516 7.24979 54.6615 7.24997L57 7.25C58.7949 7.25 60.25 8.70507 60.25 10.5C60.25 12.2949 58.7949 13.75 57 13.75H54.25V14.25H55.5C55.9142 14.25 56.25 14.5858 56.25 15C56.25 15.4142 55.9142 15.75 55.5 15.75H54.25V18C54.25 18.4142 53.9142 18.75 53.5 18.75C53.0858 18.75 52.75 18.4142 52.75 18V15.75H52.5C52.0858 15.75 51.75 15.4142 51.75 15Z" fill="#FF8725"/>
<path d="M59.75 51.8475C58.8141 52.1034 58.25 52.8215 58.25 53.5C58.25 54.1785 58.8141 54.8966 59.75 55.1525V51.8475Z" fill="#3593FF"/>
<path d="M61.25 56.8475V60.1525C62.1859 59.8966 62.75 59.1785 62.75 58.5C62.75 57.8215 62.1859 57.1034 61.25 56.8475Z" fill="#3593FF"/>
<path fill-rule="evenodd" clip-rule="evenodd" d="M70.5 56C70.5 61.5228 66.0228 66 60.5 66C54.9772 66 50.5 61.5228 50.5 56C50.5 50.4772 54.9772 46 60.5 46C66.0228 46 70.5 50.4772 70.5 56ZM60.5 49.25C60.9142 49.25 61.25 49.5858 61.25 50V50.3167C62.8804 50.6087 64.25 51.8336 64.25 53.5C64.25 53.9142 63.9142 54.25 63.5 54.25C63.0858 54.25 62.75 53.9142 62.75 53.5C62.75 52.8215 62.1859 52.1034 61.25 51.8475V55.3167C62.8804 55.6087 64.25 56.8336 64.25 58.5C64.25 60.1664 62.8804 61.3913 61.25 61.6833V62C61.25 62.4142 60.9142 62.75 60.5 62.75C60.0858 62.75 59.75 62.4142 59.75 62V61.6833C58.1196 61.3913 56.75 60.1664 56.75 58.5C56.75 58.0858 57.0858 57.75 57.5 57.75C57.9142 57.75 58.25 58.0858 58.25 58.5C58.25 59.1785 58.8141 59.8966 59.75 60.1525V56.6833C58.1196 56.3913 56.75 55.1664 56.75 53.5C56.75 51.8336 58.1196 50.6087 59.75 50.3167V50C59.75 49.5858 60.0858 49.25 60.5 49.25Z" fill="#3593FF"/>
<path d="M52.5 51H20.5" stroke="#AFB7DC" stroke-width="0.3" stroke-linecap="round" stroke-linejoin="round"/>
<path d="M31 46L25 45L22.5 50.5H50.5V33L45.5 38.5L44 36L39 41.5H32.5L31 46Z" fill="url(#paint1_linear_16049_5997)"/>
<path d="M50.5 33.5L45.5 38.5L44 36L39 41.5H32.5L31 46L25.5 45L23 50" stroke="url(#paint2_linear_16049_5997)" stroke-width="0.5"/>
<defs>
<filter id="filter0_d_16049_5997" x="11.0996" y="9.59998" width="51.8008" height="56.8" filterUnits="userSpaceOnUse" color-interpolation-filters="sRGB">
<feFlood flood-opacity="0" result="BackgroundImageFix"/>
<feColorMatrix in="SourceAlpha" type="matrix" values="0 0 0 0 0 0 0 0 0 0 0 0 0 0 0 0 0 0 127 0" result="hardAlpha"/>
<feOffset/>
<feGaussianBlur stdDeviation="3"/>
<feComposite in2="hardAlpha" operator="out"/>
<feColorMatrix type="matrix" values="0 0 0 0 0.209288 0 0 0 0 0.341074 0 0 0 0 1 0 0 0 0.3 0"/>
<feBlend mode="normal" in2="BackgroundImageFix" result="effect1_dropShadow_16049_5997"/>
<feBlend mode="normal" in="SourceGraphic" in2="effect1_dropShadow_16049_5997" result="shape"/>
</filter>
<linearGradient id="paint0_linear_16049_5997" x1="35.5467" y1="26.6157" x2="38.2529" y2="37.6979" gradientUnits="userSpaceOnUse">
<stop offset="0.0076178" stop-color="#00D2D3"/>
<stop offset="0.91" stop-color="#00B3FF"/>
</linearGradient>
<linearGradient id="paint1_linear_16049_5997" x1="36.5" y1="39.5" x2="36.5" y2="50.5" gradientUnits="userSpaceOnUse">
<stop stop-color="#D3ECFF"/>
<stop offset="1" stop-color="#D3ECFF" stop-opacity="0"/>
</linearGradient>
<linearGradient id="paint2_linear_16049_5997" x1="47" y1="34" x2="25" y2="48" gradientUnits="userSpaceOnUse">
<stop stop-color="#0AE0C8"/>
<stop offset="1" stop-color="#0070FF"/>
</linearGradient>
</defs>
</svg>
