<svg width="495" height="356" viewBox="0 0 495 356" fill="none" xmlns="http://www.w3.org/2000/svg">
<g opacity="0.08" filter="url(#filter0_f_44_1068)">
<ellipse cx="156.404" cy="161.949" rx="41.7924" ry="47.411" transform="rotate(-0.743515 156.404 161.949)" fill="#FF5ED2"/>
</g>
<g opacity="0.09" filter="url(#filter1_f_44_1068)">
<ellipse cx="317.19" cy="181.978" rx="63.1609" ry="59.163" transform="rotate(-0.743515 317.19 181.978)" fill="#00D4FF"/>
</g>
<mask id="mask0_44_1068" style="mask-type:alpha" maskUnits="userSpaceOnUse" x="114" y="107" width="274" height="247">
<rect x="114" y="107" width="274" height="247" fill="#D9D9D9"/>
</mask>
<g mask="url(#mask0_44_1068)">
<g filter="url(#filter2_d_44_1068)">
<path d="M142 385L370 385V168C370 159.163 362.837 152 354 152L158 152C149.163 152 142 159.163 142 168V385Z" fill="white"/>
<path d="M142.5 384.5L369.5 384.5V168C369.5 159.44 362.56 152.5 354 152.5L158 152.5C149.44 152.5 142.5 159.44 142.5 168V384.5Z" stroke="#D5DEEF"/>
</g>
<path d="M165.741 186.904C165.741 186.701 165.688 186.536 165.581 186.408C165.474 186.28 165.325 186.173 165.133 186.088C164.952 186.003 164.738 185.933 164.493 185.88C164.258 185.816 164.008 185.752 163.741 185.688C163.4 185.603 163.058 185.507 162.717 185.4C162.376 185.283 162.061 185.133 161.773 184.952C161.485 184.76 161.256 184.509 161.085 184.2C160.914 183.891 160.829 183.501 160.829 183.032C160.829 182.424 160.984 181.923 161.293 181.528C161.602 181.123 162.04 180.819 162.605 180.616C163.17 180.413 163.826 180.312 164.573 180.312C165.192 180.312 165.72 180.355 166.157 180.44C166.605 180.525 166.968 180.621 167.245 180.728C167.522 180.824 167.714 180.904 167.821 180.968V182.84L165.805 182.84V181.352C165.965 181.331 166.088 181.341 166.173 181.384C166.269 181.427 166.328 181.485 166.349 181.56C166.381 181.635 166.392 181.715 166.381 181.8C166.37 181.885 166.349 181.971 166.317 182.056C166.189 181.939 166.04 181.843 165.869 181.768C165.698 181.693 165.506 181.64 165.293 181.608C165.08 181.565 164.845 181.544 164.589 181.544C164.141 181.544 163.805 181.619 163.581 181.768C163.357 181.917 163.245 182.136 163.245 182.424C163.245 182.627 163.298 182.792 163.405 182.92C163.512 183.037 163.661 183.139 163.853 183.224C164.045 183.309 164.264 183.384 164.509 183.448C164.765 183.512 165.037 183.576 165.325 183.64C165.677 183.736 166.029 183.843 166.381 183.96C166.744 184.067 167.069 184.221 167.357 184.424C167.656 184.616 167.89 184.861 168.061 185.16C168.242 185.459 168.333 185.837 168.333 186.296C168.333 186.925 168.178 187.453 167.869 187.88C167.57 188.307 167.117 188.632 166.509 188.856C165.901 189.069 165.144 189.176 164.237 189.176C163.64 189.176 163.101 189.133 162.621 189.048C162.152 188.973 161.746 188.872 161.405 188.744C161.074 188.616 160.818 188.499 160.637 188.392V186.376L162.685 186.376V188.36C162.493 188.285 162.338 188.195 162.221 188.088C162.114 187.971 162.04 187.859 161.997 187.752C161.965 187.645 161.965 187.555 161.997 187.48C162.029 187.405 162.088 187.368 162.173 187.368C162.322 187.485 162.498 187.592 162.701 187.688C162.904 187.773 163.133 187.843 163.389 187.896C163.656 187.939 163.944 187.96 164.253 187.96C164.584 187.96 164.856 187.923 165.069 187.848C165.293 187.773 165.458 187.661 165.565 187.512C165.682 187.352 165.741 187.149 165.741 186.904ZM172.847 180.504V186.408C172.847 186.653 172.873 186.861 172.927 187.032C172.991 187.203 173.087 187.331 173.215 187.416C173.353 187.491 173.529 187.528 173.743 187.528C173.999 187.528 174.244 187.464 174.479 187.336C174.713 187.197 174.948 186.989 175.183 186.712C175.417 186.424 175.652 186.061 175.887 185.624L175.855 187C175.62 187.459 175.337 187.848 175.007 188.168C174.676 188.488 174.308 188.733 173.903 188.904C173.508 189.075 173.076 189.16 172.607 189.16C172.073 189.16 171.609 189.059 171.215 188.856C170.82 188.653 170.516 188.355 170.303 187.96C170.1 187.565 169.999 187.075 169.999 186.488V182.216C169.999 182.045 169.935 181.928 169.807 181.864C169.679 181.789 169.476 181.731 169.199 181.688L169.023 181.656V180.504L172.847 180.504ZM178.351 180.504V187.352C178.351 187.469 178.383 187.56 178.447 187.624C178.521 187.677 178.617 187.725 178.735 187.768C178.863 187.8 179.012 187.827 179.183 187.848L179.295 187.88V189L175.791 189L175.647 187.064L175.503 187.032V182.216C175.503 182.045 175.417 181.923 175.247 181.848C175.087 181.773 174.868 181.72 174.591 181.688L174.335 181.656V180.504L178.351 180.504ZM185.113 192.568L180.105 192.568V191.528L180.137 191.528C180.318 191.528 180.473 191.507 180.601 191.464C180.729 191.421 180.83 191.347 180.905 191.24C180.98 191.144 181.017 191.005 181.017 190.824V182.216C181.017 182.109 180.99 182.024 180.937 181.96C180.884 181.896 180.798 181.848 180.681 181.816C180.564 181.773 180.414 181.731 180.233 181.688L180.089 181.656V180.504L183.593 180.504L183.737 182.76L183.865 182.792V191.384C183.865 191.416 183.918 191.443 184.025 191.464C184.142 191.485 184.281 191.501 184.441 191.512C184.601 191.523 184.756 191.528 184.905 191.528L185.113 191.528V192.568ZM186.377 189.176C185.918 189.176 185.513 189.107 185.161 188.968C184.809 188.829 184.489 188.627 184.201 188.36C183.924 188.083 183.673 187.752 183.449 187.368V185.8C183.673 186.184 183.886 186.515 184.089 186.792C184.292 187.069 184.516 187.283 184.761 187.432C185.006 187.581 185.284 187.656 185.593 187.656C185.892 187.656 186.148 187.592 186.361 187.464C186.574 187.325 186.75 187.128 186.889 186.872C187.028 186.616 187.129 186.307 187.193 185.944C187.268 185.571 187.305 185.144 187.305 184.664C187.305 184.205 187.273 183.8 187.209 183.448C187.156 183.096 187.065 182.803 186.937 182.568C186.809 182.333 186.644 182.157 186.441 182.04C186.238 181.923 185.998 181.864 185.721 181.864C185.401 181.864 185.113 181.939 184.857 182.088C184.612 182.237 184.377 182.467 184.153 182.776C183.929 183.075 183.694 183.448 183.449 183.896V182.52C183.705 182.051 183.977 181.656 184.265 181.336C184.553 181.016 184.878 180.771 185.241 180.6C185.604 180.429 186.03 180.344 186.521 180.344C187.3 180.344 187.966 180.525 188.521 180.888C189.076 181.251 189.497 181.757 189.785 182.408C190.084 183.059 190.233 183.811 190.233 184.664C190.233 185.539 190.073 186.317 189.753 187C189.444 187.672 189.001 188.205 188.425 188.6C187.849 188.984 187.166 189.176 186.377 189.176ZM196.301 192.568L191.293 192.568V191.528L191.325 191.528C191.506 191.528 191.661 191.507 191.789 191.464C191.917 191.421 192.018 191.347 192.093 191.24C192.167 191.144 192.205 191.005 192.205 190.824V182.216C192.205 182.109 192.178 182.024 192.125 181.96C192.071 181.896 191.986 181.848 191.868 181.816C191.751 181.773 191.602 181.731 191.421 181.688L191.277 181.656V180.504L194.781 180.504L194.924 182.76L195.053 182.792V191.384C195.053 191.416 195.106 191.443 195.213 191.464C195.33 191.485 195.469 191.501 195.629 191.512C195.789 191.523 195.943 191.528 196.093 191.528L196.301 191.528V192.568ZM197.565 189.176C197.106 189.176 196.701 189.107 196.349 188.968C195.997 188.829 195.677 188.627 195.389 188.36C195.111 188.083 194.861 187.752 194.637 187.368V185.8C194.861 186.184 195.074 186.515 195.277 186.792C195.479 187.069 195.703 187.283 195.949 187.432C196.194 187.581 196.471 187.656 196.781 187.656C197.079 187.656 197.335 187.592 197.549 187.464C197.762 187.325 197.938 187.128 198.077 186.872C198.215 186.616 198.317 186.307 198.381 185.944C198.455 185.571 198.493 185.144 198.493 184.664C198.493 184.205 198.461 183.8 198.397 183.448C198.343 183.096 198.253 182.803 198.125 182.568C197.997 182.333 197.831 182.157 197.629 182.04C197.426 181.923 197.186 181.864 196.909 181.864C196.589 181.864 196.301 181.939 196.045 182.088C195.799 182.237 195.565 182.467 195.341 182.776C195.117 183.075 194.882 183.448 194.637 183.896V182.52C194.893 182.051 195.165 181.656 195.453 181.336C195.741 181.016 196.066 180.771 196.429 180.6C196.791 180.429 197.218 180.344 197.709 180.344C198.487 180.344 199.154 180.525 199.709 180.888C200.263 181.251 200.685 181.757 200.973 182.408C201.271 183.059 201.421 183.811 201.421 184.664C201.421 185.539 201.261 186.317 200.941 187C200.631 187.672 200.189 188.205 199.613 188.6C199.037 188.984 198.354 189.176 197.565 189.176ZM212.016 184.76C212.016 185.656 211.824 186.435 211.44 187.096C211.067 187.757 210.528 188.269 209.824 188.632C209.12 188.995 208.277 189.176 207.296 189.176C206.315 189.176 205.472 188.995 204.768 188.632C204.064 188.269 203.52 187.757 203.136 187.096C202.763 186.435 202.576 185.656 202.576 184.76C202.576 184.088 202.683 183.48 202.896 182.936C203.109 182.392 203.419 181.928 203.824 181.544C204.24 181.16 204.736 180.867 205.312 180.664C205.899 180.451 206.56 180.344 207.296 180.344C208.032 180.344 208.688 180.451 209.264 180.664C209.851 180.867 210.347 181.16 210.752 181.544C211.168 181.928 211.483 182.392 211.696 182.936C211.909 183.48 212.016 184.088 212.016 184.76ZM205.504 184.76C205.504 185.475 205.568 186.067 205.696 186.536C205.824 186.995 206.021 187.336 206.288 187.56C206.555 187.784 206.891 187.896 207.296 187.896C207.712 187.896 208.048 187.784 208.304 187.56C208.571 187.336 208.768 186.995 208.896 186.536C209.024 186.067 209.088 185.475 209.088 184.76C209.088 184.045 209.024 183.464 208.896 183.016C208.768 182.557 208.571 182.216 208.304 181.992C208.037 181.768 207.701 181.656 207.296 181.656C206.891 181.656 206.555 181.768 206.288 181.992C206.021 182.216 205.824 182.557 205.696 183.016C205.568 183.464 205.504 184.045 205.504 184.76ZM219.858 180.456V182.984C219.772 182.973 219.666 182.963 219.538 182.952C219.41 182.931 219.271 182.915 219.122 182.904C218.972 182.893 218.828 182.888 218.69 182.888C218.444 182.888 218.22 182.909 218.018 182.952C217.815 182.984 217.623 183.043 217.442 183.128C217.271 183.203 217.111 183.309 216.962 183.448C216.812 183.576 216.668 183.741 216.53 183.944L216.498 183.208C216.722 182.621 216.951 182.12 217.186 181.704C217.42 181.277 217.698 180.952 218.018 180.728C218.338 180.493 218.738 180.376 219.218 180.376C219.367 180.376 219.495 180.387 219.602 180.408C219.719 180.419 219.804 180.435 219.858 180.456ZM213.09 189V187.96L213.122 187.96C213.388 187.96 213.602 187.912 213.762 187.816C213.922 187.72 214.002 187.533 214.002 187.256V182.216C214.002 182.109 213.975 182.024 213.922 181.96C213.868 181.896 213.783 181.848 213.666 181.816C213.548 181.773 213.399 181.731 213.218 181.688L213.09 181.656V180.504L216.578 180.504L216.722 183.032L216.85 182.936V187.704C216.85 187.779 216.908 187.837 217.026 187.88C217.143 187.912 217.287 187.933 217.458 187.944C217.628 187.955 217.788 187.96 217.938 187.96L218.098 187.96V189L213.09 189ZM220.628 181.752V180.584L220.724 180.584C220.991 180.584 221.215 180.568 221.396 180.536C221.588 180.493 221.732 180.413 221.828 180.296C221.935 180.168 221.988 179.987 221.988 179.752L223.684 180.504L227.076 180.504V181.752L220.628 181.752ZM224.74 186.216C224.74 186.611 224.788 186.92 224.884 187.144C224.991 187.357 225.135 187.512 225.316 187.608C225.508 187.693 225.743 187.736 226.02 187.736C226.255 187.736 226.474 187.715 226.676 187.672C226.879 187.629 227.018 187.597 227.092 187.576V188.904C226.986 188.947 226.836 188.984 226.644 189.016C226.463 189.059 226.25 189.096 226.004 189.128C225.77 189.16 225.508 189.176 225.22 189.176C224.591 189.176 224.02 189.096 223.508 188.936C223.007 188.765 222.612 188.472 222.324 188.056C222.036 187.64 221.892 187.064 221.892 186.328V180.808L221.988 180.68V178.136L224.74 178.136V186.216ZM233.225 186.904C233.225 186.701 233.172 186.536 233.065 186.408C232.959 186.28 232.809 186.173 232.617 186.088C232.436 186.003 232.223 185.933 231.977 185.88C231.743 185.816 231.492 185.752 231.225 185.688C230.884 185.603 230.543 185.507 230.201 185.4C229.86 185.283 229.545 185.133 229.257 184.952C228.969 184.76 228.74 184.509 228.569 184.2C228.399 183.891 228.313 183.501 228.313 183.032C228.313 182.424 228.468 181.923 228.777 181.528C229.087 181.123 229.524 180.819 230.089 180.616C230.655 180.413 231.311 180.312 232.057 180.312C232.676 180.312 233.204 180.355 233.641 180.44C234.089 180.525 234.452 180.621 234.729 180.728C235.007 180.824 235.199 180.904 235.305 180.968V182.84L233.289 182.84V181.352C233.449 181.331 233.572 181.341 233.657 181.384C233.753 181.427 233.812 181.485 233.833 181.56C233.865 181.635 233.876 181.715 233.865 181.8C233.855 181.885 233.833 181.971 233.801 182.056C233.673 181.939 233.524 181.843 233.353 181.768C233.183 181.693 232.991 181.64 232.777 181.608C232.564 181.565 232.329 181.544 232.073 181.544C231.625 181.544 231.289 181.619 231.065 181.768C230.841 181.917 230.729 182.136 230.729 182.424C230.729 182.627 230.783 182.792 230.889 182.92C230.996 183.037 231.145 183.139 231.337 183.224C231.529 183.309 231.748 183.384 231.993 183.448C232.249 183.512 232.521 183.576 232.809 183.64C233.161 183.736 233.513 183.843 233.865 183.96C234.228 184.067 234.553 184.221 234.841 184.424C235.14 184.616 235.375 184.861 235.545 185.16C235.727 185.459 235.817 185.837 235.817 186.296C235.817 186.925 235.663 187.453 235.353 187.88C235.055 188.307 234.601 188.632 233.993 188.856C233.385 189.069 232.628 189.176 231.721 189.176C231.124 189.176 230.585 189.133 230.105 189.048C229.636 188.973 229.231 188.872 228.889 188.744C228.559 188.616 228.303 188.499 228.121 188.392V186.376L230.169 186.376V188.36C229.977 188.285 229.823 188.195 229.705 188.088C229.599 187.971 229.524 187.859 229.481 187.752C229.449 187.645 229.449 187.555 229.481 187.48C229.513 187.405 229.572 187.368 229.657 187.368C229.807 187.485 229.983 187.592 230.185 187.688C230.388 187.773 230.617 187.843 230.873 187.896C231.14 187.939 231.428 187.96 231.737 187.96C232.068 187.96 232.34 187.923 232.553 187.848C232.777 187.773 232.943 187.661 233.049 187.512C233.167 187.352 233.225 187.149 233.225 186.904ZM244.534 180.504V186.408C244.534 186.653 244.561 186.861 244.614 187.032C244.678 187.203 244.774 187.331 244.902 187.416C245.041 187.491 245.217 187.528 245.43 187.528C245.686 187.528 245.932 187.464 246.166 187.336C246.401 187.197 246.636 186.989 246.87 186.712C247.105 186.424 247.34 186.061 247.574 185.624L247.542 187C247.308 187.459 247.025 187.848 246.694 188.168C246.364 188.488 245.996 188.733 245.59 188.904C245.196 189.075 244.764 189.16 244.294 189.16C243.761 189.16 243.297 189.059 242.902 188.856C242.508 188.653 242.204 188.355 241.99 187.96C241.788 187.565 241.686 187.075 241.686 186.488V182.216C241.686 182.045 241.622 181.928 241.494 181.864C241.366 181.789 241.164 181.731 240.886 181.688L240.71 181.656V180.504L244.534 180.504ZM250.038 180.504V187.352C250.038 187.469 250.07 187.56 250.134 187.624C250.209 187.677 250.305 187.725 250.422 187.768C250.55 187.8 250.7 187.827 250.87 187.848L250.982 187.88V189L247.478 189L247.334 187.064L247.19 187.032V182.216C247.19 182.045 247.105 181.923 246.934 181.848C246.774 181.773 246.556 181.72 246.278 181.688L246.022 181.656V180.504L250.038 180.504ZM256.801 192.568L251.793 192.568V191.528L251.825 191.528C252.006 191.528 252.161 191.507 252.289 191.464C252.417 191.421 252.518 191.347 252.593 191.24C252.667 191.144 252.705 191.005 252.705 190.824V182.216C252.705 182.109 252.678 182.024 252.625 181.96C252.571 181.896 252.486 181.848 252.368 181.816C252.251 181.773 252.102 181.731 251.921 181.688L251.777 181.656V180.504L255.281 180.504L255.424 182.76L255.553 182.792V191.384C255.553 191.416 255.606 191.443 255.713 191.464C255.83 191.485 255.969 191.501 256.129 191.512C256.289 191.523 256.443 191.528 256.593 191.528L256.801 191.528V192.568ZM258.065 189.176C257.606 189.176 257.201 189.107 256.849 188.968C256.497 188.829 256.177 188.627 255.889 188.36C255.611 188.083 255.361 187.752 255.137 187.368V185.8C255.361 186.184 255.574 186.515 255.777 186.792C255.979 187.069 256.203 187.283 256.449 187.432C256.694 187.581 256.971 187.656 257.281 187.656C257.579 187.656 257.835 187.592 258.049 187.464C258.262 187.325 258.438 187.128 258.577 186.872C258.715 186.616 258.817 186.307 258.881 185.944C258.955 185.571 258.993 185.144 258.993 184.664C258.993 184.205 258.961 183.8 258.897 183.448C258.843 183.096 258.753 182.803 258.625 182.568C258.497 182.333 258.331 182.157 258.129 182.04C257.926 181.923 257.686 181.864 257.409 181.864C257.089 181.864 256.801 181.939 256.545 182.088C256.299 182.237 256.065 182.467 255.841 182.776C255.617 183.075 255.382 183.448 255.137 183.896V182.52C255.393 182.051 255.665 181.656 255.953 181.336C256.241 181.016 256.566 180.771 256.929 180.6C257.291 180.429 257.718 180.344 258.209 180.344C258.987 180.344 259.654 180.525 260.209 180.888C260.763 181.251 261.185 181.757 261.473 182.408C261.771 183.059 261.921 183.811 261.921 184.664C261.921 185.539 261.761 186.317 261.441 187C261.131 187.672 260.689 188.205 260.113 188.6C259.537 188.984 258.854 189.176 258.065 189.176ZM266.769 181.752V180.584L266.865 180.584C267.132 180.584 267.356 180.568 267.537 180.536C267.729 180.493 267.873 180.413 267.969 180.296C268.076 180.168 268.129 179.987 268.129 179.752L269.825 180.504L273.217 180.504V181.752L266.769 181.752ZM270.881 186.216C270.881 186.611 270.929 186.92 271.025 187.144C271.132 187.357 271.276 187.512 271.457 187.608C271.649 187.693 271.884 187.736 272.161 187.736C272.396 187.736 272.614 187.715 272.817 187.672C273.02 187.629 273.158 187.597 273.233 187.576V188.904C273.126 188.947 272.977 188.984 272.785 189.016C272.604 189.059 272.39 189.096 272.145 189.128C271.91 189.16 271.649 189.176 271.361 189.176C270.732 189.176 270.161 189.096 269.649 188.936C269.148 188.765 268.753 188.472 268.465 188.056C268.177 187.64 268.033 187.064 268.033 186.328V180.808L268.129 180.68V178.136L270.881 178.136V186.216ZM283.485 184.76C283.485 185.656 283.293 186.435 282.909 187.096C282.535 187.757 281.997 188.269 281.293 188.632C280.589 188.995 279.746 189.176 278.765 189.176C277.783 189.176 276.941 188.995 276.237 188.632C275.533 188.269 274.989 187.757 274.605 187.096C274.231 186.435 274.045 185.656 274.045 184.76C274.045 184.088 274.151 183.48 274.365 182.936C274.578 182.392 274.887 181.928 275.293 181.544C275.709 181.16 276.205 180.867 276.781 180.664C277.367 180.451 278.029 180.344 278.765 180.344C279.501 180.344 280.157 180.451 280.733 180.664C281.319 180.867 281.815 181.16 282.221 181.544C282.637 181.928 282.951 182.392 283.165 182.936C283.378 183.48 283.485 184.088 283.485 184.76ZM276.973 184.76C276.973 185.475 277.037 186.067 277.165 186.536C277.293 186.995 277.49 187.336 277.757 187.56C278.023 187.784 278.359 187.896 278.765 187.896C279.181 187.896 279.517 187.784 279.773 187.56C280.039 187.336 280.237 186.995 280.365 186.536C280.493 186.067 280.557 185.475 280.557 184.76C280.557 184.045 280.493 183.464 280.365 183.016C280.237 182.557 280.039 182.216 279.773 181.992C279.506 181.768 279.17 181.656 278.765 181.656C278.359 181.656 278.023 181.768 277.757 181.992C277.49 182.216 277.293 182.557 277.165 183.016C277.037 183.464 276.973 184.045 276.973 184.76ZM292.299 184.088C293.089 184.099 293.761 184.173 294.316 184.312C294.881 184.44 295.334 184.632 295.676 184.888C296.028 185.133 296.284 185.432 296.444 185.784C296.614 186.136 296.7 186.531 296.7 186.968C296.7 187.693 296.513 188.301 296.14 188.792C295.777 189.283 295.281 189.651 294.652 189.896C294.022 190.141 293.308 190.264 292.508 190.264C291.708 190.264 291.041 190.152 290.508 189.928C289.974 189.704 289.548 189.395 289.228 189C288.908 188.616 288.652 188.184 288.46 187.704L289.692 186.968C289.788 187.181 289.9 187.405 290.028 187.64C290.166 187.864 290.332 188.077 290.524 188.28C290.716 188.472 290.945 188.632 291.212 188.76C291.489 188.877 291.809 188.936 292.172 188.936C292.577 188.936 292.913 188.867 293.18 188.728C293.457 188.589 293.665 188.371 293.804 188.072C293.953 187.773 294.028 187.384 294.028 186.904C294.028 186.488 293.964 186.131 293.836 185.832C293.718 185.523 293.505 185.288 293.196 185.128C292.886 184.957 292.449 184.872 291.884 184.872L290.796 184.872V183.592L291.692 183.592C292.172 183.592 292.566 183.523 292.876 183.384C293.185 183.235 293.414 183.011 293.564 182.712C293.724 182.403 293.804 182.008 293.804 181.528C293.804 181.155 293.745 180.861 293.628 180.648C293.521 180.424 293.366 180.264 293.164 180.168C292.961 180.061 292.71 180.008 292.411 180.008C291.985 180.008 291.628 180.088 291.34 180.248C291.062 180.408 290.849 180.589 290.7 180.792C290.689 180.728 290.689 180.653 290.7 180.568C290.71 180.483 290.737 180.397 290.78 180.312C290.822 180.227 290.881 180.157 290.956 180.104C291.03 180.04 291.126 180.003 291.244 179.992V181.88L289.116 181.88V179.928C289.329 179.725 289.606 179.533 289.948 179.352C290.289 179.171 290.689 179.021 291.148 178.904C291.617 178.787 292.134 178.728 292.7 178.728C293.425 178.728 294.06 178.829 294.604 179.032C295.158 179.224 295.59 179.517 295.9 179.912C296.22 180.307 296.38 180.808 296.38 181.416C296.38 182.056 296.182 182.584 295.788 183C295.404 183.416 294.886 183.731 294.236 183.944C293.585 184.147 292.865 184.259 292.076 184.28L292.924 183.88V184.472L292.299 184.088ZM301.253 184.088C302.042 184.099 302.714 184.173 303.269 184.312C303.834 184.44 304.287 184.632 304.629 184.888C304.981 185.133 305.237 185.432 305.397 185.784C305.567 186.136 305.653 186.531 305.653 186.968C305.653 187.693 305.466 188.301 305.093 188.792C304.73 189.283 304.234 189.651 303.605 189.896C302.975 190.141 302.261 190.264 301.461 190.264C300.661 190.264 299.994 190.152 299.461 189.928C298.927 189.704 298.501 189.395 298.181 189C297.861 188.616 297.605 188.184 297.413 187.704L298.645 186.968C298.741 187.181 298.853 187.405 298.981 187.64C299.119 187.864 299.285 188.077 299.477 188.28C299.669 188.472 299.898 188.632 300.165 188.76C300.442 188.877 300.762 188.936 301.125 188.936C301.53 188.936 301.866 188.867 302.133 188.728C302.41 188.589 302.618 188.371 302.757 188.072C302.906 187.773 302.981 187.384 302.981 186.904C302.981 186.488 302.917 186.131 302.789 185.832C302.671 185.523 302.458 185.288 302.149 185.128C301.839 184.957 301.402 184.872 300.837 184.872L299.749 184.872V183.592L300.645 183.592C301.125 183.592 301.519 183.523 301.829 183.384C302.138 183.235 302.367 183.011 302.517 182.712C302.677 182.403 302.757 182.008 302.757 181.528C302.757 181.155 302.698 180.861 302.581 180.648C302.474 180.424 302.319 180.264 302.117 180.168C301.914 180.061 301.663 180.008 301.365 180.008C300.938 180.008 300.581 180.088 300.293 180.248C300.015 180.408 299.802 180.589 299.653 180.792C299.642 180.728 299.642 180.653 299.653 180.568C299.663 180.483 299.69 180.397 299.733 180.312C299.775 180.227 299.834 180.157 299.909 180.104C299.983 180.04 300.079 180.003 300.197 179.992V181.88L298.069 181.88V179.928C298.282 179.725 298.559 179.533 298.901 179.352C299.242 179.171 299.642 179.021 300.101 178.904C300.57 178.787 301.087 178.728 301.653 178.728C302.378 178.728 303.013 178.829 303.557 179.032C304.111 179.224 304.543 179.517 304.853 179.912C305.173 180.307 305.333 180.808 305.333 181.416C305.333 182.056 305.135 182.584 304.741 183C304.357 183.416 303.839 183.731 303.189 183.944C302.538 184.147 301.818 184.259 301.029 184.28L301.877 183.88V184.472L301.253 184.088ZM161.728 211.832C162.101 211.832 162.427 211.752 162.704 211.592C162.992 211.432 163.237 211.229 163.44 210.984C163.653 210.739 163.835 210.488 163.984 210.232L164.992 210.936C164.779 211.373 164.501 211.763 164.16 212.104C163.829 212.445 163.424 212.712 162.944 212.904C162.475 213.085 161.925 213.176 161.296 213.176C160.357 213.176 159.531 213.005 158.816 212.664C158.112 212.312 157.563 211.805 157.168 211.144C156.773 210.483 156.576 209.688 156.576 208.76C156.576 207.821 156.768 207.027 157.152 206.376C157.547 205.715 158.101 205.213 158.816 204.872C159.541 204.52 160.4 204.344 161.392 204.344C162 204.344 162.528 204.392 162.976 204.488C163.435 204.584 163.813 204.696 164.112 204.824C164.421 204.952 164.64 205.064 164.768 205.16V207.64L162.56 207.64V205.4C162.699 205.4 162.811 205.437 162.896 205.512C162.981 205.587 163.04 205.672 163.072 205.768C163.115 205.864 163.131 205.965 163.12 206.072C163.109 206.168 163.083 206.243 163.04 206.296C162.88 206.104 162.672 205.949 162.416 205.832C162.171 205.715 161.872 205.656 161.52 205.656C161.061 205.656 160.683 205.773 160.384 206.008C160.085 206.243 159.861 206.595 159.712 207.064C159.573 207.523 159.504 208.088 159.504 208.76C159.504 209.272 159.547 209.72 159.632 210.104C159.728 210.488 159.867 210.808 160.048 211.064C160.229 211.32 160.459 211.512 160.736 211.64C161.024 211.768 161.355 211.832 161.728 211.832ZM169.612 204.504V210.408C169.612 210.653 169.639 210.861 169.692 211.032C169.756 211.203 169.852 211.331 169.98 211.416C170.119 211.491 170.295 211.528 170.508 211.528C170.764 211.528 171.01 211.464 171.244 211.336C171.479 211.197 171.714 210.989 171.948 210.712C172.183 210.424 172.418 210.061 172.652 209.624L172.62 211C172.386 211.459 172.103 211.848 171.772 212.168C171.442 212.488 171.074 212.733 170.668 212.904C170.274 213.075 169.842 213.16 169.372 213.16C168.839 213.16 168.375 213.059 167.98 212.856C167.586 212.653 167.282 212.355 167.068 211.96C166.866 211.565 166.764 211.075 166.764 210.488V206.216C166.764 206.045 166.7 205.928 166.572 205.864C166.444 205.789 166.242 205.731 165.964 205.688L165.788 205.656V204.504L169.612 204.504ZM175.116 204.504V211.352C175.116 211.469 175.148 211.56 175.212 211.624C175.287 211.677 175.383 211.725 175.5 211.768C175.628 211.8 175.778 211.827 175.948 211.848L176.06 211.88V213L172.556 213L172.412 211.064L172.268 211.032V206.216C172.268 206.045 172.183 205.923 172.012 205.848C171.852 205.773 171.634 205.72 171.356 205.688L171.1 205.656V204.504L175.116 204.504ZM183.655 204.456V206.984C183.569 206.973 183.463 206.963 183.335 206.952C183.207 206.931 183.068 206.915 182.919 206.904C182.769 206.893 182.625 206.888 182.487 206.888C182.241 206.888 182.017 206.909 181.815 206.952C181.612 206.984 181.42 207.043 181.239 207.128C181.068 207.203 180.908 207.309 180.759 207.448C180.609 207.576 180.465 207.741 180.327 207.944L180.295 207.208C180.519 206.621 180.748 206.12 180.983 205.704C181.217 205.277 181.495 204.952 181.815 204.728C182.135 204.493 182.535 204.376 183.015 204.376C183.164 204.376 183.292 204.387 183.399 204.408C183.516 204.419 183.601 204.435 183.655 204.456ZM176.887 213V211.96L176.919 211.96C177.185 211.96 177.399 211.912 177.559 211.816C177.719 211.72 177.799 211.533 177.799 211.256V206.216C177.799 206.109 177.772 206.024 177.719 205.96C177.665 205.896 177.58 205.848 177.463 205.816C177.345 205.773 177.196 205.731 177.015 205.688L176.887 205.656V204.504L180.375 204.504L180.519 207.032L180.647 206.936V211.704C180.647 211.779 180.705 211.837 180.823 211.88C180.94 211.912 181.084 211.933 181.255 211.944C181.425 211.955 181.585 211.96 181.735 211.96L181.895 211.96V213L176.887 213ZM191.373 204.456V206.984C191.288 206.973 191.181 206.963 191.053 206.952C190.925 206.931 190.787 206.915 190.637 206.904C190.488 206.893 190.344 206.888 190.205 206.888C189.96 206.888 189.736 206.909 189.533 206.952C189.331 206.984 189.139 207.043 188.957 207.128C188.787 207.203 188.627 207.309 188.477 207.448C188.328 207.576 188.184 207.741 188.045 207.944L188.013 207.208C188.237 206.621 188.467 206.12 188.701 205.704C188.936 205.277 189.213 204.952 189.533 204.728C189.853 204.493 190.253 204.376 190.733 204.376C190.883 204.376 191.011 204.387 191.117 204.408C191.235 204.419 191.32 204.435 191.373 204.456ZM184.605 213V211.96L184.637 211.96C184.904 211.96 185.117 211.912 185.277 211.816C185.437 211.72 185.517 211.533 185.517 211.256V206.216C185.517 206.109 185.491 206.024 185.437 205.96C185.384 205.896 185.299 205.848 185.181 205.816C185.064 205.773 184.915 205.731 184.733 205.688L184.605 205.656V204.504L188.093 204.504L188.237 207.032L188.365 206.936V211.704C188.365 211.779 188.424 211.837 188.541 211.88C188.659 211.912 188.803 211.933 188.973 211.944C189.144 211.955 189.304 211.96 189.453 211.96L189.613 211.96V213L184.605 213ZM195.08 208.808C195.08 209.331 195.123 209.784 195.208 210.168C195.304 210.552 195.448 210.867 195.64 211.112C195.832 211.357 196.072 211.539 196.36 211.656C196.648 211.773 196.984 211.832 197.368 211.832C197.773 211.832 198.12 211.768 198.408 211.64C198.696 211.501 198.941 211.32 199.144 211.096C199.357 210.872 199.539 210.632 199.688 210.376L200.76 211.128C200.536 211.544 200.253 211.907 199.912 212.216C199.571 212.525 199.16 212.765 198.68 212.936C198.2 213.096 197.635 213.176 196.984 213.176C196.024 213.176 195.187 213.005 194.472 212.664C193.757 212.323 193.208 211.827 192.824 211.176C192.44 210.515 192.248 209.725 192.248 208.808C192.248 207.912 192.435 207.128 192.808 206.456C193.181 205.784 193.704 205.267 194.376 204.904C195.048 204.531 195.821 204.344 196.696 204.344C197.4 204.344 198.008 204.451 198.52 204.664C199.043 204.867 199.475 205.171 199.816 205.576C200.168 205.981 200.429 206.493 200.6 207.112C200.781 207.731 200.872 208.445 200.872 209.256L194.536 209.256V208.104L198.584 208.104L198.232 208.568C198.221 207.992 198.184 207.512 198.12 207.128C198.067 206.744 197.981 206.445 197.864 206.232C197.747 206.008 197.597 205.853 197.416 205.768C197.235 205.672 197.011 205.624 196.744 205.624C196.488 205.624 196.259 205.683 196.056 205.8C195.853 205.907 195.677 206.088 195.528 206.344C195.379 206.589 195.267 206.915 195.192 207.32C195.117 207.725 195.08 208.221 195.08 208.808ZM201.887 213V211.96L201.903 211.96C202.095 211.96 202.255 211.939 202.383 211.896C202.521 211.853 202.623 211.784 202.687 211.688C202.761 211.581 202.799 211.437 202.799 211.256V206.216C202.799 206.099 202.772 206.013 202.719 205.96C202.665 205.896 202.58 205.848 202.463 205.816C202.345 205.773 202.196 205.731 202.015 205.688L201.887 205.656V204.504L205.391 204.504L205.519 206.408L205.647 206.44V211.816C205.647 211.848 205.689 211.875 205.775 211.896C205.86 211.917 205.961 211.933 206.079 211.944C206.196 211.955 206.303 211.96 206.399 211.96L206.463 211.96V213L201.887 213ZM212.159 213L207.583 213V211.96L207.631 211.96C207.727 211.96 207.833 211.955 207.951 211.944C208.079 211.933 208.18 211.917 208.255 211.896C208.34 211.875 208.383 211.848 208.383 211.816V207.08C208.383 206.824 208.351 206.616 208.287 206.456C208.233 206.296 208.137 206.179 207.999 206.104C207.871 206.019 207.695 205.976 207.471 205.976C207.204 205.976 206.948 206.045 206.703 206.184C206.457 206.323 206.217 206.536 205.983 206.824C205.748 207.101 205.513 207.459 205.279 207.896L205.295 206.536C205.529 206.088 205.807 205.699 206.127 205.368C206.457 205.037 206.831 204.787 207.247 204.616C207.673 204.435 208.121 204.344 208.591 204.344C209.145 204.344 209.62 204.445 210.015 204.648C210.409 204.851 210.708 205.149 210.911 205.544C211.124 205.928 211.231 206.419 211.231 207.016V211.256C211.231 211.437 211.268 211.581 211.343 211.688C211.417 211.784 211.519 211.853 211.647 211.896C211.785 211.939 211.945 211.96 212.127 211.96L212.159 211.96V213ZM218.228 211.832C218.601 211.832 218.927 211.752 219.204 211.592C219.492 211.432 219.737 211.229 219.94 210.984C220.153 210.739 220.335 210.488 220.484 210.232L221.492 210.936C221.279 211.373 221.001 211.763 220.66 212.104C220.329 212.445 219.924 212.712 219.444 212.904C218.975 213.085 218.425 213.176 217.796 213.176C216.857 213.176 216.031 213.005 215.316 212.664C214.612 212.312 214.063 211.805 213.668 211.144C213.273 210.483 213.076 209.688 213.076 208.76C213.076 207.821 213.268 207.027 213.652 206.376C214.047 205.715 214.601 205.213 215.316 204.872C216.041 204.52 216.9 204.344 217.892 204.344C218.5 204.344 219.028 204.392 219.476 204.488C219.935 204.584 220.313 204.696 220.612 204.824C220.921 204.952 221.14 205.064 221.268 205.16V207.64L219.06 207.64V205.4C219.199 205.4 219.311 205.437 219.396 205.512C219.481 205.587 219.54 205.672 219.572 205.768C219.615 205.864 219.631 205.965 219.62 206.072C219.609 206.168 219.583 206.243 219.54 206.296C219.38 206.104 219.172 205.949 218.916 205.832C218.671 205.715 218.372 205.656 218.02 205.656C217.561 205.656 217.183 205.773 216.884 206.008C216.585 206.243 216.361 206.595 216.212 207.064C216.073 207.523 216.004 208.088 216.004 208.76C216.004 209.272 216.047 209.72 216.132 210.104C216.228 210.488 216.367 210.808 216.548 211.064C216.729 211.32 216.959 211.512 217.236 211.64C217.524 211.768 217.855 211.832 218.228 211.832ZM224.706 203.384C224.215 203.384 223.826 203.272 223.538 203.048C223.25 202.813 223.106 202.477 223.106 202.04C223.106 201.603 223.25 201.272 223.538 201.048C223.826 200.813 224.215 200.696 224.706 200.696C225.196 200.696 225.586 200.813 225.874 201.048C226.162 201.272 226.306 201.603 226.306 202.04C226.306 202.477 226.162 202.813 225.874 203.048C225.586 203.272 225.196 203.384 224.706 203.384ZM226.21 204.504V211.288C226.21 211.544 226.29 211.72 226.45 211.816C226.62 211.912 226.839 211.96 227.106 211.96L227.138 211.96V213L222.434 213V211.96L222.465 211.96C222.732 211.96 222.946 211.912 223.106 211.816C223.276 211.72 223.362 211.544 223.362 211.288V206.216C223.362 206.045 223.298 205.928 223.17 205.864C223.042 205.8 222.839 205.741 222.562 205.688L222.434 205.656V204.504L226.21 204.504ZM230.877 208.808C230.877 209.331 230.919 209.784 231.005 210.168C231.101 210.552 231.245 210.867 231.437 211.112C231.629 211.357 231.869 211.539 232.157 211.656C232.445 211.773 232.781 211.832 233.165 211.832C233.57 211.832 233.917 211.768 234.205 211.64C234.493 211.501 234.738 211.32 234.941 211.096C235.154 210.872 235.335 210.632 235.485 210.376L236.557 211.128C236.333 211.544 236.05 211.907 235.709 212.216C235.367 212.525 234.957 212.765 234.477 212.936C233.997 213.096 233.431 213.176 232.781 213.176C231.821 213.176 230.983 213.005 230.269 212.664C229.554 212.323 229.005 211.827 228.621 211.176C228.237 210.515 228.045 209.725 228.045 208.808C228.045 207.912 228.231 207.128 228.605 206.456C228.978 205.784 229.501 205.267 230.173 204.904C230.845 204.531 231.618 204.344 232.493 204.344C233.197 204.344 233.805 204.451 234.317 204.664C234.839 204.867 235.271 205.171 235.613 205.576C235.965 205.981 236.226 206.493 236.397 207.112C236.578 207.731 236.669 208.445 236.669 209.256L230.333 209.256V208.104L234.381 208.104L234.029 208.568C234.018 207.992 233.981 207.512 233.917 207.128C233.863 206.744 233.778 206.445 233.661 206.232C233.543 206.008 233.394 205.853 233.213 205.768C233.031 205.672 232.807 205.624 232.541 205.624C232.285 205.624 232.055 205.683 231.853 205.8C231.65 205.907 231.474 206.088 231.325 206.344C231.175 206.589 231.063 206.915 230.989 207.32C230.914 207.725 230.877 208.221 230.877 208.808ZM242.804 210.904C242.804 210.701 242.75 210.536 242.644 210.408C242.537 210.28 242.388 210.173 242.196 210.088C242.014 210.003 241.801 209.933 241.556 209.88C241.321 209.816 241.07 209.752 240.804 209.688C240.462 209.603 240.121 209.507 239.78 209.4C239.438 209.283 239.124 209.133 238.836 208.952C238.548 208.76 238.318 208.509 238.148 208.2C237.977 207.891 237.892 207.501 237.892 207.032C237.892 206.424 238.046 205.923 238.356 205.528C238.665 205.123 239.102 204.819 239.668 204.616C240.233 204.413 240.889 204.312 241.636 204.312C242.254 204.312 242.782 204.355 243.22 204.44C243.668 204.525 244.03 204.621 244.308 204.728C244.585 204.824 244.777 204.904 244.884 204.968V206.84L242.868 206.84V205.352C243.028 205.331 243.15 205.341 243.236 205.384C243.332 205.427 243.39 205.485 243.412 205.56C243.444 205.635 243.454 205.715 243.444 205.8C243.433 205.885 243.412 205.971 243.38 206.056C243.252 205.939 243.102 205.843 242.932 205.768C242.761 205.693 242.569 205.64 242.356 205.608C242.142 205.565 241.908 205.544 241.652 205.544C241.204 205.544 240.868 205.619 240.644 205.768C240.42 205.917 240.308 206.136 240.308 206.424C240.308 206.627 240.361 206.792 240.468 206.92C240.574 207.037 240.724 207.139 240.916 207.224C241.108 207.309 241.326 207.384 241.572 207.448C241.828 207.512 242.1 207.576 242.388 207.64C242.74 207.736 243.092 207.843 243.444 207.96C243.806 208.067 244.132 208.221 244.42 208.424C244.718 208.616 244.953 208.861 245.124 209.16C245.305 209.459 245.396 209.837 245.396 210.296C245.396 210.925 245.241 211.453 244.932 211.88C244.633 212.307 244.18 212.632 243.572 212.856C242.964 213.069 242.206 213.176 241.299 213.176C240.702 213.176 240.164 213.133 239.684 213.048C239.214 212.973 238.809 212.872 238.468 212.744C238.137 212.616 237.881 212.499 237.7 212.392V210.376L239.748 210.376V212.36C239.556 212.285 239.401 212.195 239.284 212.088C239.177 211.971 239.102 211.859 239.06 211.752C239.028 211.645 239.028 211.555 239.06 211.48C239.092 211.405 239.15 211.368 239.236 211.368C239.385 211.485 239.561 211.592 239.764 211.688C239.966 211.773 240.196 211.843 240.452 211.896C240.718 211.939 241.006 211.96 241.316 211.96C241.646 211.96 241.918 211.923 242.132 211.848C242.356 211.773 242.521 211.661 242.628 211.512C242.745 211.352 242.804 211.149 242.804 210.904ZM248.486 213.224C247.963 213.224 247.547 213.085 247.238 212.808C246.928 212.52 246.774 212.136 246.774 211.656C246.774 211.165 246.928 210.781 247.238 210.504C247.547 210.216 247.963 210.072 248.486 210.072C249.019 210.072 249.44 210.216 249.75 210.504C250.059 210.781 250.214 211.165 250.214 211.656C250.214 212.136 250.059 212.52 249.75 212.808C249.44 213.085 249.019 213.224 248.486 213.224Z" fill="#2C3667"/>
<rect opacity="0.4" x="156" y="230" width="195" height="40" rx="6" fill="#D5DAEF"/>
<path d="M209.954 251.612V253.6C209.814 253.768 209.609 253.95 209.338 254.146C209.077 254.333 208.759 254.51 208.386 254.678C208.013 254.846 207.597 254.981 207.14 255.084C206.692 255.187 206.216 255.238 205.712 255.238C204.937 255.238 204.237 255.126 203.612 254.902C202.987 254.669 202.445 254.328 201.988 253.88C201.54 253.432 201.195 252.886 200.952 252.242C200.719 251.598 200.602 250.861 200.602 250.03C200.602 249.209 200.723 248.476 200.966 247.832C201.218 247.188 201.568 246.642 202.016 246.194C202.473 245.737 203.005 245.391 203.612 245.158C204.219 244.925 204.881 244.808 205.6 244.808C206.281 244.808 206.851 244.929 207.308 245.172C207.765 245.415 208.129 245.755 208.4 246.194C208.68 246.633 208.885 247.141 209.016 247.72L208.4 247.286L208.638 244.99L209.828 244.99V248.238L208.47 248.238C208.33 247.79 208.143 247.403 207.91 247.076C207.686 246.74 207.406 246.479 207.07 246.292C206.743 246.105 206.351 246.012 205.894 246.012C205.465 246.012 205.091 246.101 204.774 246.278C204.457 246.446 204.186 246.698 203.962 247.034C203.747 247.361 203.584 247.776 203.472 248.28C203.369 248.784 203.318 249.367 203.318 250.03C203.318 250.739 203.374 251.351 203.486 251.864C203.598 252.368 203.761 252.779 203.976 253.096C204.2 253.413 204.471 253.651 204.788 253.81C205.105 253.969 205.469 254.048 205.88 254.048C206.188 254.048 206.454 254.015 206.678 253.95C206.902 253.875 207.089 253.791 207.238 253.698C207.387 253.595 207.504 253.507 207.588 253.432V251.612C207.588 251.397 207.495 251.257 207.308 251.192C207.131 251.117 206.911 251.08 206.65 251.08L206.37 251.08V250.03L210.892 250.03V251.08L210.682 251.08C210.458 251.08 210.281 251.117 210.15 251.192C210.019 251.257 209.954 251.397 209.954 251.612ZM217.215 245.06C217.775 245.06 218.27 245.111 218.699 245.214C219.138 245.307 219.502 245.457 219.791 245.662C220.081 245.858 220.3 246.11 220.449 246.418C220.599 246.717 220.673 247.067 220.673 247.468C220.673 247.963 220.552 248.378 220.309 248.714C220.067 249.041 219.721 249.293 219.273 249.47C218.825 249.638 218.289 249.741 217.663 249.778L218.013 249.428V250.142L217.719 249.736C218.41 249.783 219.003 249.899 219.497 250.086C220.001 250.273 220.389 250.543 220.659 250.898C220.939 251.243 221.079 251.687 221.079 252.228C221.079 252.685 220.995 253.087 220.827 253.432C220.669 253.777 220.426 254.067 220.099 254.3C219.782 254.533 219.39 254.711 218.923 254.832C218.466 254.944 217.929 255 217.313 255L211.811 255V253.936L211.965 253.936C212.217 253.936 212.423 253.903 212.581 253.838C212.749 253.773 212.833 253.637 212.833 253.432V246.628C212.833 246.423 212.749 246.287 212.581 246.222C212.423 246.157 212.217 246.124 211.965 246.124L211.811 246.124V245.06L217.215 245.06ZM214.835 249.288L216.627 249.288C216.963 249.288 217.239 249.232 217.453 249.12C217.668 248.999 217.822 248.817 217.915 248.574C218.018 248.322 218.069 248.005 218.069 247.622C218.069 247.314 218.018 247.053 217.915 246.838C217.813 246.614 217.654 246.446 217.439 246.334C217.234 246.213 216.977 246.152 216.669 246.152L215.423 246.152V253.908L216.753 253.908C217.117 253.908 217.421 253.843 217.663 253.712C217.915 253.572 218.102 253.371 218.223 253.11C218.354 252.839 218.419 252.503 218.419 252.102C218.419 251.719 218.354 251.397 218.223 251.136C218.102 250.865 217.911 250.665 217.649 250.534C217.388 250.394 217.052 250.324 216.641 250.324L214.835 250.324V249.288ZM225.814 253.81C225.814 253.838 225.838 253.861 225.884 253.88C225.931 253.889 225.996 253.899 226.08 253.908C226.164 253.917 226.258 253.927 226.36 253.936C226.463 253.936 226.57 253.936 226.682 253.936L227.018 253.936V255L222.202 255V253.978L222.342 253.978C222.594 253.978 222.8 253.945 222.958 253.88C223.126 253.815 223.21 253.679 223.21 253.474V246.586C223.21 246.381 223.126 246.245 222.958 246.18C222.8 246.115 222.594 246.082 222.342 246.082L222.202 246.082V245.06L227.536 245.06C228.694 245.06 229.599 245.317 230.252 245.83C230.906 246.343 231.232 247.081 231.232 248.042C231.232 248.695 231.074 249.26 230.756 249.736C230.448 250.203 230.014 250.562 229.454 250.814C228.894 251.057 228.236 251.178 227.48 251.178L225.408 251.178V250.058L226.99 250.058C227.345 250.058 227.644 249.988 227.886 249.848C228.138 249.699 228.33 249.479 228.46 249.19C228.591 248.891 228.656 248.523 228.656 248.084C228.656 247.645 228.591 247.291 228.46 247.02C228.339 246.74 228.157 246.535 227.914 246.404C227.672 246.264 227.378 246.194 227.032 246.194L225.814 246.194V253.81Z" fill="#2C3667"/>
<g clip-path="url(#clip0_44_1068)">
<path d="M180 262C186.628 262 192 256.627 192 250C192 243.373 186.628 238 180 238C173.373 238 168 243.373 168 250C168 256.627 173.373 262 180 262Z" fill="#F0F0F0"/>
<path d="M170.481 242.694C169.538 243.921 168.827 245.334 168.413 246.87H174.656L170.481 242.694Z" fill="#0052B4"/>
<path d="M191.587 246.87C191.173 245.334 190.462 243.921 189.52 242.694L185.344 246.87H191.587Z" fill="#0052B4"/>
<path d="M168.413 253.131C168.827 254.666 169.538 256.08 170.481 257.306L174.656 253.131H168.413Z" fill="#0052B4"/>
<path d="M187.306 240.481C186.079 239.538 184.666 238.827 183.13 238.413V244.656L187.306 240.481Z" fill="#0052B4"/>
<path d="M172.694 259.519C173.921 260.462 175.334 261.173 176.87 261.587V255.344L172.694 259.519Z" fill="#0052B4"/>
<path d="M176.87 238.413C175.334 238.827 173.921 239.538 172.694 240.481L176.87 244.656V238.413Z" fill="#0052B4"/>
<path d="M183.13 261.587C184.666 261.173 186.079 260.462 187.306 259.52L183.13 255.344V261.587Z" fill="#0052B4"/>
<path d="M185.344 253.131L189.52 257.306C190.462 256.08 191.173 254.666 191.587 253.131H185.344Z" fill="#0052B4"/>
<path d="M191.899 248.435H181.566H181.565V238.102C181.053 238.035 180.531 238 180 238C179.47 238 178.947 238.035 178.435 238.102V248.435V248.435H168.102C168.035 248.947 168 249.47 168 250C168 250.531 168.035 251.053 168.102 251.565H178.435H178.435V261.898C178.947 261.965 179.47 262 180 262C180.531 262 181.053 261.965 181.565 261.898V251.565V251.565H191.899C191.965 251.053 192 250.531 192 250C192 249.47 191.965 248.947 191.899 248.435V248.435Z" fill="#D80027"/>
<path d="M183.13 253.131L188.485 258.485C188.731 258.239 188.966 257.982 189.191 257.715L184.606 253.13H183.13V253.131Z" fill="#D80027"/>
<path d="M176.87 253.13H176.87L171.515 258.485C171.761 258.732 172.018 258.966 172.285 259.191L176.87 254.606V253.13Z" fill="#D80027"/>
<path d="M176.87 246.87V246.87L171.515 241.515C171.269 241.761 171.034 242.018 170.809 242.285L175.394 246.87H176.87V246.87Z" fill="#D80027"/>
<path d="M183.13 246.87L188.485 241.515C188.239 241.268 187.982 241.034 187.715 240.809L183.13 245.394V246.87Z" fill="#D80027"/>
</g>
<rect opacity="0.4" x="156" y="278" width="195" height="40" rx="6" fill="#D5DAEF"/>
<g clip-path="url(#clip1_44_1068)">
<path d="M180 310C186.627 310 192 304.627 192 298C192 291.373 186.627 286 180 286C173.372 286 168 291.373 168 298C168 304.627 173.372 310 180 310Z" fill="#F0F0F0"/>
<path d="M179.478 298H192C192 296.917 191.856 295.867 191.587 294.869H179.478V298Z" fill="#D80027"/>
<path d="M179.478 291.739H190.239C189.504 290.54 188.565 289.481 187.47 288.609H179.478V291.739Z" fill="#D80027"/>
<path d="M180 310C182.824 310 185.42 309.024 187.47 307.391H172.53C174.58 309.024 177.176 310 180 310Z" fill="#D80027"/>
<path d="M169.761 304.261H190.239C190.828 303.299 191.286 302.247 191.587 301.13H168.413C168.714 302.247 169.171 303.299 169.761 304.261V304.261Z" fill="#D80027"/>
<path d="M173.558 287.874H174.652L173.635 288.613L174.023 289.809L173.006 289.07L171.989 289.809L172.325 288.776C171.429 289.522 170.644 290.396 169.997 291.37H170.348L169.7 291.84C169.599 292.008 169.502 292.179 169.41 292.353L169.719 293.304L169.142 292.885C168.999 293.189 168.868 293.5 168.75 293.817L169.09 294.865H170.348L169.33 295.604L169.719 296.8L168.702 296.061L168.093 296.504C168.032 296.994 168 297.493 168 298H180C180 291.373 180 290.591 180 286C177.629 286 175.419 286.688 173.558 287.874V287.874ZM174.023 296.8L173.006 296.061L171.989 296.8L172.378 295.604L171.36 294.865H172.618L173.006 293.67L173.395 294.865H174.652L173.635 295.604L174.023 296.8ZM173.635 292.109L174.023 293.304L173.006 292.565L171.989 293.304L172.378 292.109L171.36 291.37H172.618L173.006 290.174L173.395 291.37H174.652L173.635 292.109ZM178.328 296.8L177.31 296.061L176.293 296.8L176.682 295.604L175.665 294.865H176.922L177.31 293.67L177.699 294.865H178.956L177.939 295.604L178.328 296.8ZM177.939 292.109L178.328 293.304L177.31 292.565L176.293 293.304L176.682 292.109L175.665 291.37H176.922L177.31 290.174L177.699 291.37H178.956L177.939 292.109ZM177.939 288.613L178.328 289.809L177.31 289.07L176.293 289.809L176.682 288.613L175.665 287.874H176.922L177.31 286.678L177.699 287.874H178.956L177.939 288.613Z" fill="#0052B4"/>
</g>
<path d="M204.088 299.234C204.088 299.729 204.135 300.149 204.228 300.494C204.321 300.83 204.457 301.105 204.634 301.32C204.821 301.525 205.04 301.675 205.292 301.768C205.553 301.861 205.852 301.908 206.188 301.908C206.505 301.908 206.795 301.857 207.056 301.754C207.317 301.651 207.537 301.497 207.714 301.292C207.901 301.077 208.045 300.802 208.148 300.466C208.251 300.13 208.302 299.719 208.302 299.234V294.39C208.302 294.343 208.274 294.306 208.218 294.278C208.162 294.241 208.087 294.213 207.994 294.194C207.91 294.166 207.817 294.147 207.714 294.138C207.611 294.129 207.504 294.124 207.392 294.124H207.252V293.06H210.5V294.124H210.346C210.187 294.124 210.043 294.138 209.912 294.166C209.781 294.194 209.679 294.25 209.604 294.334C209.529 294.409 209.492 294.521 209.492 294.67V299.234C209.492 299.943 209.394 300.555 209.198 301.068C209.002 301.572 208.727 301.987 208.372 302.314C208.017 302.631 207.607 302.865 207.14 303.014C206.673 303.163 206.165 303.238 205.614 303.238C204.998 303.238 204.438 303.159 203.934 303C203.43 302.851 202.991 302.617 202.618 302.3C202.254 301.973 201.974 301.558 201.778 301.054C201.591 300.55 201.498 299.943 201.498 299.234V294.628C201.498 294.423 201.414 294.287 201.246 294.222C201.087 294.157 200.882 294.124 200.63 294.124H200.476V293.06H205.11V294.11H204.97C204.877 294.11 204.774 294.115 204.662 294.124C204.559 294.133 204.466 294.147 204.382 294.166C204.298 294.175 204.228 294.189 204.172 294.208C204.116 294.217 204.088 294.236 204.088 294.264V299.234ZM215.7 302.104C216.092 302.104 216.409 302.062 216.652 301.978C216.904 301.885 217.091 301.74 217.212 301.544C217.333 301.348 217.394 301.096 217.394 300.788C217.394 300.508 217.329 300.279 217.198 300.102C217.067 299.915 216.885 299.761 216.652 299.64C216.419 299.519 216.134 299.411 215.798 299.318C215.471 299.215 215.107 299.113 214.706 299.01C214.305 298.898 213.917 298.772 213.544 298.632C213.18 298.483 212.853 298.291 212.564 298.058C212.284 297.825 212.06 297.526 211.892 297.162C211.724 296.798 211.64 296.345 211.64 295.804C211.64 295.141 211.785 294.591 212.074 294.152C212.363 293.713 212.765 293.382 213.278 293.158C213.801 292.925 214.407 292.808 215.098 292.808C215.695 292.808 216.195 292.897 216.596 293.074C217.007 293.242 217.338 293.513 217.59 293.886C217.851 294.259 218.047 294.749 218.178 295.356L217.646 294.88L217.912 292.99H218.99V295.832H217.73C217.627 295.431 217.459 295.09 217.226 294.81C217.002 294.521 216.727 294.306 216.4 294.166C216.083 294.017 215.723 293.942 215.322 293.942C214.967 293.942 214.678 293.989 214.454 294.082C214.23 294.175 214.067 294.311 213.964 294.488C213.861 294.665 213.81 294.885 213.81 295.146C213.81 295.407 213.866 295.622 213.978 295.79C214.099 295.958 214.267 296.098 214.482 296.21C214.706 296.313 214.972 296.406 215.28 296.49C215.588 296.565 215.929 296.649 216.302 296.742C216.731 296.845 217.142 296.966 217.534 297.106C217.935 297.246 218.29 297.433 218.598 297.666C218.915 297.899 219.163 298.198 219.34 298.562C219.517 298.917 219.606 299.369 219.606 299.92C219.606 300.639 219.461 301.245 219.172 301.74C218.883 302.235 218.458 302.608 217.898 302.86C217.347 303.112 216.68 303.238 215.896 303.238C215.271 303.238 214.711 303.154 214.216 302.986C213.721 302.809 213.306 302.51 212.97 302.09C212.634 301.67 212.396 301.091 212.256 300.354L212.802 300.816L212.536 303.028H211.402V299.78H212.76C212.909 300.312 213.129 300.751 213.418 301.096C213.707 301.441 214.048 301.698 214.44 301.866C214.832 302.025 215.252 302.104 215.7 302.104ZM220.616 294.124V293.06H225.642C226.435 293.06 227.154 293.163 227.798 293.368C228.451 293.573 229.011 293.881 229.478 294.292C229.954 294.703 230.318 295.221 230.57 295.846C230.831 296.462 230.962 297.176 230.962 297.988C230.962 298.8 230.831 299.519 230.57 300.144C230.318 300.769 229.954 301.297 229.478 301.726C229.011 302.146 228.451 302.463 227.798 302.678C227.154 302.893 226.435 303 225.642 303H220.616V301.936H220.784C221.027 301.936 221.227 301.903 221.386 301.838C221.554 301.773 221.638 301.637 221.638 301.432V294.628C221.638 294.432 221.554 294.301 221.386 294.236C221.227 294.161 221.027 294.124 220.784 294.124H220.616ZM225.446 294.194H224.228V301.866H225.446C225.894 301.866 226.291 301.787 226.636 301.628C226.981 301.469 227.271 301.227 227.504 300.9C227.747 300.573 227.929 300.167 228.05 299.682C228.181 299.197 228.246 298.632 228.246 297.988C228.246 297.344 228.181 296.784 228.05 296.308C227.929 295.832 227.747 295.44 227.504 295.132C227.271 294.815 226.981 294.581 226.636 294.432C226.291 294.273 225.894 294.194 225.446 294.194Z" fill="#7680B0"/>
<rect opacity="0.4" x="156" y="326" width="195" height="40" rx="6" fill="#D5DAEF"/>
<mask id="mask1_44_1068" style="mask-type:luminance" maskUnits="userSpaceOnUse" x="168" y="334" width="24" height="24">
<path d="M192 346C192 339.373 186.627 334 180 334C173.373 334 168 339.373 168 346C168 352.627 173.373 358 180 358C186.627 358 192 352.627 192 346Z" fill="white"/>
</mask>
<g mask="url(#mask1_44_1068)">
<mask id="mask2_44_1068" style="mask-type:luminance" maskUnits="userSpaceOnUse" x="164" y="334" width="32" height="24">
<path d="M196 334H164V358H196V334Z" fill="white"/>
</mask>
<g mask="url(#mask2_44_1068)">
<path d="M164 334H196V358H164V334Z" fill="#003399"/>
<path d="M180.154 338.326L180.357 338.934L180.998 338.939C181.081 338.939 181.115 339.045 181.049 339.094L180.533 339.475L180.726 340.086C180.751 340.165 180.661 340.231 180.594 340.183L180.072 339.81L179.551 340.183C179.484 340.231 179.393 340.165 179.418 340.086L179.612 339.475L179.096 339.094C179.029 339.045 179.064 338.939 179.147 338.939L179.788 338.934L179.991 338.326C180.017 338.247 180.128 338.247 180.154 338.326Z" fill="#FFE15A"/>
<path d="M180.154 351.38L180.357 351.988L180.998 351.993C181.081 351.994 181.115 352.1 181.049 352.149L180.533 352.53L180.726 353.141C180.751 353.22 180.661 353.286 180.594 353.237L180.072 352.865L179.551 353.237C179.484 353.286 179.393 353.22 179.418 353.141L179.612 352.53L179.096 352.149C179.029 352.1 179.064 351.994 179.147 351.993L179.788 351.988L179.991 351.38C180.017 351.302 180.128 351.302 180.154 351.38Z" fill="#FFE15A"/>
<path d="M186.681 344.853L186.884 345.461L187.525 345.466C187.608 345.467 187.643 345.573 187.576 345.622L187.06 346.003L187.254 346.614C187.279 346.693 187.189 346.759 187.121 346.71L186.6 346.337L186.078 346.71C186.011 346.758 185.921 346.693 185.946 346.614L186.139 346.003L185.623 345.622C185.556 345.573 185.591 345.467 185.674 345.466L186.315 345.461L186.518 344.853C186.544 344.775 186.655 344.775 186.681 344.853Z" fill="#FFE15A"/>
<path d="M173.627 344.853L173.83 345.461L174.47 345.466C174.554 345.467 174.588 345.573 174.521 345.622L174.006 346.003L174.199 346.614C174.224 346.693 174.134 346.759 174.066 346.71L173.545 346.337L173.023 346.71C172.956 346.758 172.866 346.693 172.891 346.614L173.084 346.003L172.569 345.622C172.502 345.573 172.536 345.467 172.619 345.466L173.26 345.461L173.463 344.853C173.489 344.775 173.601 344.775 173.627 344.853Z" fill="#FFE15A"/>
<path d="M174.607 341.445L174.81 342.053L175.45 342.058C175.534 342.058 175.568 342.164 175.501 342.213L174.986 342.594L175.179 343.205C175.204 343.284 175.114 343.35 175.046 343.301L174.525 342.929L174.003 343.301C173.936 343.35 173.846 343.284 173.871 343.205L174.064 342.594L173.549 342.213C173.482 342.164 173.516 342.058 173.599 342.058L174.24 342.053L174.443 341.445C174.469 341.366 174.58 341.366 174.607 341.445Z" fill="#FFE15A"/>
<path d="M185.912 347.972L186.115 348.58L186.756 348.585C186.839 348.585 186.874 348.691 186.807 348.74L186.291 349.121L186.485 349.732C186.51 349.811 186.419 349.877 186.352 349.829L185.831 349.456L185.309 349.829C185.242 349.877 185.151 349.811 185.177 349.732L185.37 349.121L184.854 348.74C184.787 348.691 184.822 348.585 184.905 348.585L185.546 348.58L185.749 347.972C185.775 347.893 185.886 347.893 185.912 347.972Z" fill="#FFE15A"/>
<path d="M183.523 339.055L183.726 339.663L184.367 339.668C184.45 339.669 184.485 339.775 184.418 339.824L183.902 340.205L184.095 340.816C184.12 340.895 184.03 340.961 183.963 340.912L183.441 340.54L182.92 340.912C182.853 340.961 182.762 340.895 182.787 340.816L182.981 340.205L182.465 339.824C182.398 339.775 182.433 339.669 182.516 339.668L183.157 339.663L183.36 339.055C183.386 338.977 183.497 338.977 183.523 339.055Z" fill="#FFE15A"/>
<path d="M176.996 350.361L177.199 350.969L177.84 350.974C177.923 350.974 177.957 351.08 177.89 351.129L177.375 351.51L177.568 352.121C177.593 352.2 177.503 352.266 177.435 352.218L176.914 351.845L176.392 352.218C176.325 352.266 176.235 352.2 176.26 352.121L176.453 351.51L175.938 351.129C175.871 351.08 175.905 350.974 175.988 350.974L176.629 350.969L176.832 350.361C176.858 350.282 176.97 350.282 176.996 350.361Z" fill="#FFE15A"/>
<path d="M185.749 341.445L185.546 342.053L184.905 342.058C184.822 342.058 184.787 342.164 184.854 342.213L185.37 342.594L185.177 343.205C185.151 343.284 185.242 343.35 185.309 343.301L185.831 342.929L186.352 343.301C186.419 343.35 186.51 343.284 186.485 343.205L186.291 342.594L186.807 342.213C186.874 342.164 186.839 342.058 186.756 342.058L186.115 342.053L185.912 341.445C185.886 341.366 185.775 341.366 185.749 341.445Z" fill="#FFE15A"/>
<path d="M174.443 347.972L174.24 348.58L173.599 348.585C173.516 348.585 173.482 348.691 173.549 348.74L174.064 349.121L173.871 349.732C173.846 349.811 173.936 349.877 174.003 349.829L174.525 349.456L175.046 349.829C175.114 349.877 175.204 349.811 175.179 349.732L174.986 349.121L175.501 348.74C175.568 348.691 175.534 348.585 175.45 348.585L174.81 348.58L174.607 347.972C174.58 347.893 174.469 347.893 174.443 347.972Z" fill="#FFE15A"/>
<path d="M176.832 339.055L176.629 339.663L175.988 339.668C175.905 339.669 175.871 339.775 175.938 339.824L176.453 340.205L176.26 340.816C176.235 340.895 176.325 340.961 176.392 340.912L176.914 340.54L177.435 340.912C177.503 340.961 177.593 340.895 177.568 340.816L177.375 340.205L177.89 339.824C177.957 339.775 177.923 339.669 177.84 339.668L177.199 339.663L176.996 339.055C176.97 338.977 176.858 338.977 176.832 339.055Z" fill="#FFE15A"/>
<path d="M183.359 350.361L183.156 350.969L182.516 350.974C182.433 350.974 182.398 351.08 182.465 351.129L182.981 351.51L182.787 352.121C182.762 352.2 182.852 352.266 182.92 352.218L183.441 351.845L183.963 352.218C184.03 352.266 184.12 352.2 184.095 352.121L183.902 351.51L184.418 351.129C184.484 351.08 184.45 350.974 184.367 350.974L183.726 350.969L183.523 350.361C183.497 350.282 183.386 350.282 183.359 350.361Z" fill="#FFE15A"/>
</g>
</g>
<path d="M207.918 347.822V351H199.532V349.936H199.686C199.938 349.936 200.143 349.903 200.302 349.838C200.47 349.773 200.554 349.637 200.554 349.432V342.628C200.554 342.423 200.47 342.287 200.302 342.222C200.143 342.157 199.938 342.124 199.686 342.124H199.532V341.06H207.596V343.888H206.364L206.252 342.796C206.233 342.628 206.163 342.502 206.042 342.418C205.93 342.325 205.767 342.264 205.552 342.236C205.347 342.199 205.09 342.18 204.782 342.18H203.144V349.88H204.852C205.132 349.88 205.37 349.871 205.566 349.852C205.771 349.833 205.935 349.801 206.056 349.754C206.187 349.707 206.285 349.647 206.35 349.572C206.415 349.488 206.457 349.385 206.476 349.264L206.658 347.822H207.918ZM202.836 345.4C203.228 345.372 203.615 345.349 203.998 345.33C204.39 345.302 204.777 345.274 205.16 345.246C205.552 345.218 205.939 345.195 206.322 345.176V346.618C205.939 346.59 205.552 346.567 205.16 346.548C204.777 346.52 204.39 346.497 203.998 346.478C203.615 346.45 203.228 346.422 202.836 346.394V345.4ZM212.645 347.234C212.645 347.729 212.691 348.149 212.785 348.494C212.878 348.83 213.013 349.105 213.191 349.32C213.377 349.525 213.597 349.675 213.849 349.768C214.11 349.861 214.409 349.908 214.745 349.908C215.062 349.908 215.351 349.857 215.613 349.754C215.874 349.651 216.093 349.497 216.271 349.292C216.457 349.077 216.602 348.802 216.705 348.466C216.807 348.13 216.859 347.719 216.859 347.234V342.39C216.859 342.343 216.831 342.306 216.775 342.278C216.719 342.241 216.644 342.213 216.551 342.194C216.467 342.166 216.373 342.147 216.271 342.138C216.168 342.129 216.061 342.124 215.949 342.124H215.809V341.06H219.057V342.124H218.903C218.744 342.124 218.599 342.138 218.469 342.166C218.338 342.194 218.235 342.25 218.161 342.334C218.086 342.409 218.049 342.521 218.049 342.67V347.234C218.049 347.943 217.951 348.555 217.755 349.068C217.559 349.572 217.283 349.987 216.929 350.314C216.574 350.631 216.163 350.865 215.697 351.014C215.23 351.163 214.721 351.238 214.171 351.238C213.555 351.238 212.995 351.159 212.491 351C211.987 350.851 211.548 350.617 211.175 350.3C210.811 349.973 210.531 349.558 210.335 349.054C210.148 348.55 210.055 347.943 210.055 347.234V342.628C210.055 342.423 209.971 342.287 209.803 342.222C209.644 342.157 209.439 342.124 209.187 342.124H209.033V341.06H213.667V342.11H213.527C213.433 342.11 213.331 342.115 213.219 342.124C213.116 342.133 213.023 342.147 212.939 342.166C212.855 342.175 212.785 342.189 212.729 342.208C212.673 342.217 212.645 342.236 212.645 342.264V347.234ZM224.827 346.52L227.193 346.03L228.929 349.32C229.022 349.488 229.116 349.619 229.209 349.712C229.312 349.805 229.419 349.866 229.531 349.894C229.643 349.922 229.769 349.936 229.909 349.936H230.035V351H226.913L224.827 346.52ZM223.679 349.796C223.679 349.824 223.702 349.847 223.749 349.866C223.796 349.875 223.861 349.889 223.945 349.908C224.029 349.917 224.122 349.927 224.225 349.936C224.328 349.936 224.43 349.936 224.533 349.936H224.729V351H220.067V349.936H220.221C220.473 349.936 220.678 349.903 220.837 349.838C221.005 349.773 221.089 349.637 221.089 349.432V342.628C221.089 342.423 221.005 342.287 220.837 342.222C220.678 342.157 220.473 342.124 220.221 342.124H220.067V341.06H225.443C226.246 341.06 226.922 341.167 227.473 341.382C228.024 341.587 228.444 341.9 228.733 342.32C229.032 342.731 229.181 343.23 229.181 343.818C229.181 344.35 229.055 344.817 228.803 345.218C228.56 345.619 228.201 345.946 227.725 346.198C227.258 346.441 226.684 346.604 226.003 346.688C225.947 346.735 225.891 346.772 225.835 346.8C225.779 346.828 225.723 346.856 225.667 346.884C225.62 346.912 225.564 346.935 225.499 346.954H223.357V345.876H224.939C225.303 345.876 225.597 345.797 225.821 345.638C226.054 345.479 226.222 345.255 226.325 344.966C226.437 344.667 226.493 344.317 226.493 343.916C226.493 343.533 226.437 343.211 226.325 342.95C226.222 342.689 226.064 342.493 225.849 342.362C225.634 342.222 225.359 342.152 225.023 342.152H223.679V349.796Z" fill="#7680B0"/>
</g>
<defs>
<filter id="filter0_f_44_1068" x="0.610596" y="0.53894" width="311.587" height="322.82" filterUnits="userSpaceOnUse" color-interpolation-filters="sRGB">
<feFlood flood-opacity="0" result="BackgroundImageFix"/>
<feBlend mode="normal" in="SourceGraphic" in2="BackgroundImageFix" result="shape"/>
<feGaussianBlur stdDeviation="57" result="effect1_foregroundBlur_44_1068"/>
</filter>
<filter id="filter1_f_44_1068" x="140.03" y="8.81372" width="354.321" height="346.328" filterUnits="userSpaceOnUse" color-interpolation-filters="sRGB">
<feFlood flood-opacity="0" result="BackgroundImageFix"/>
<feBlend mode="normal" in="SourceGraphic" in2="BackgroundImageFix" result="shape"/>
<feGaussianBlur stdDeviation="57" result="effect1_foregroundBlur_44_1068"/>
</filter>
<filter id="filter2_d_44_1068" x="106" y="116" width="300" height="305" filterUnits="userSpaceOnUse" color-interpolation-filters="sRGB">
<feFlood flood-opacity="0" result="BackgroundImageFix"/>
<feColorMatrix in="SourceAlpha" type="matrix" values="0 0 0 0 0 0 0 0 0 0 0 0 0 0 0 0 0 0 127 0" result="hardAlpha"/>
<feOffset/>
<feGaussianBlur stdDeviation="18"/>
<feComposite in2="hardAlpha" operator="out"/>
<feColorMatrix type="matrix" values="0 0 0 0 0.596373 0 0 0 0 0.635165 0 0 0 0 0.701667 0 0 0 0.3 0"/>
<feBlend mode="normal" in2="BackgroundImageFix" result="effect1_dropShadow_44_1068"/>
<feBlend mode="normal" in="SourceGraphic" in2="effect1_dropShadow_44_1068" result="shape"/>
</filter>
<clipPath id="clip0_44_1068">
<rect width="24" height="24" fill="white" transform="translate(168 238)"/>
</clipPath>
<clipPath id="clip1_44_1068">
<rect width="24" height="24" fill="white" transform="translate(168 286)"/>
</clipPath>
</defs>
</svg>
