<svg width="368" height="332" viewBox="0 0 368 332" fill="none" xmlns="http://www.w3.org/2000/svg">
<g opacity="0.3" filter="url(#filter0_f_44_1001)">
<ellipse cx="178.865" cy="178.589" rx="66" ry="37" transform="rotate(-14.1658 178.865 178.589)" fill="#6FFDFF"/>
</g>
<mask id="mask0_44_1001" style="mask-type:alpha" maskUnits="userSpaceOnUse" x="93" y="0" width="275" height="220">
<rect x="93" width="275" height="220" fill="#D9D9D9"/>
</mask>
<g mask="url(#mask0_44_1001)">
<g filter="url(#filter1_d_44_1001)">
<path d="M117 -15L345 -15V176C345 184.837 337.837 192 329 192L133 192C124.163 192 117 184.837 117 176V-15Z" fill="white"/>
<path d="M117.5 -14.5L344.5 -14.5V176C344.5 184.56 337.56 191.5 329 191.5L133 191.5C124.44 191.5 117.5 184.56 117.5 176V-14.5Z" stroke="#D5DEEF"/>
</g>
<path opacity="0.2" d="M118 50L344 50V176C344 184.284 337.284 191 329 191L133 191C124.716 191 118 184.284 118 176V50Z" fill="#D5DAEF"/>
<path d="M146.736 22.672C146.736 22.704 146.763 22.7307 146.816 22.752C146.88 22.7627 146.955 22.7787 147.04 22.8C147.136 22.8107 147.237 22.8213 147.344 22.832C147.461 22.832 147.579 22.832 147.696 22.832L148.08 22.832V24L142.592 24V22.864L142.752 22.864C143.04 22.864 143.275 22.8267 143.456 22.752C143.637 22.6773 143.728 22.5227 143.728 22.288V14.352C143.728 14.1173 143.637 13.9627 143.456 13.888C143.275 13.8133 143.04 13.776 142.752 13.776L142.592 13.776V12.64L148.592 12.64C149.947 12.64 150.997 12.9387 151.744 13.536C152.501 14.1227 152.88 14.96 152.88 16.048C152.88 16.7947 152.699 17.4347 152.336 17.968C151.984 18.5013 151.483 18.9173 150.832 19.216C150.181 19.504 149.413 19.648 148.528 19.648L146.272 19.648V18.368L147.936 18.368C148.363 18.368 148.72 18.2827 149.008 18.112C149.296 17.9413 149.515 17.6907 149.664 17.36C149.813 17.0187 149.888 16.5973 149.888 16.096C149.888 15.5947 149.813 15.1893 149.664 14.88C149.525 14.56 149.312 14.32 149.024 14.16C148.747 14 148.405 13.92 148 13.92L146.736 13.92V22.672ZM159.064 18.864V19.904C158.627 19.968 158.248 20.048 157.928 20.144C157.608 20.2293 157.336 20.3307 157.112 20.448C156.899 20.5547 156.728 20.6773 156.6 20.816C156.472 20.9547 156.376 21.1093 156.312 21.28C156.259 21.44 156.232 21.616 156.232 21.808C156.232 22.064 156.275 22.2773 156.36 22.448C156.446 22.608 156.568 22.7253 156.728 22.8C156.888 22.8747 157.075 22.912 157.288 22.912C157.523 22.912 157.742 22.8533 157.944 22.736C158.147 22.6187 158.339 22.4427 158.52 22.208C158.712 21.9627 158.894 21.664 159.064 21.312L159.128 22.272C158.936 22.6987 158.707 23.0507 158.44 23.328C158.174 23.6053 157.864 23.8187 157.512 23.968C157.171 24.1067 156.766 24.176 156.296 24.176C155.72 24.176 155.23 24.096 154.824 23.936C154.419 23.7653 154.11 23.5147 153.896 23.184C153.694 22.8533 153.592 22.4373 153.592 21.936C153.592 21.4773 153.694 21.088 153.896 20.768C154.11 20.4373 154.44 20.1547 154.888 19.92C155.336 19.6853 155.902 19.4827 156.584 19.312C157.278 19.1413 158.104 18.992 159.064 18.864ZM159.064 24L158.936 22.304L158.792 22.32V17.776C158.792 17.5093 158.75 17.2907 158.664 17.12C158.59 16.9493 158.462 16.8267 158.28 16.752C158.099 16.6667 157.854 16.624 157.544 16.624C157.086 16.624 156.707 16.6987 156.408 16.848C156.11 16.9867 155.896 17.152 155.768 17.344C155.683 17.2693 155.635 17.1893 155.624 17.104C155.614 17.008 155.635 16.9173 155.688 16.832C155.752 16.7467 155.843 16.672 155.96 16.608C156.078 16.544 156.222 16.5067 156.392 16.496V18.288L154.12 18.288V16.368C154.28 16.2507 154.52 16.112 154.84 15.952C155.171 15.792 155.582 15.6533 156.072 15.536C156.574 15.408 157.155 15.344 157.816 15.344C158.382 15.344 158.894 15.3973 159.352 15.504C159.822 15.6107 160.222 15.776 160.552 16C160.883 16.224 161.134 16.512 161.304 16.864C161.486 17.2053 161.576 17.616 161.576 18.096V22.352C161.576 22.4693 161.608 22.56 161.672 22.624C161.736 22.6773 161.827 22.7253 161.944 22.768C162.072 22.8 162.227 22.8267 162.408 22.848L162.504 22.88V24L159.064 24ZM168.646 22.304L167.878 23.68L167.014 24.832L163.654 17.248C163.58 17.0773 163.5 16.9493 163.414 16.864C163.34 16.7787 163.244 16.72 163.126 16.688C163.009 16.6453 162.86 16.624 162.678 16.624L162.614 16.624V15.504L167.462 15.504V16.608L167.398 16.608C167.228 16.608 167.062 16.6133 166.902 16.624C166.742 16.6347 166.609 16.6507 166.502 16.672C166.406 16.6827 166.358 16.704 166.358 16.736L168.646 22.304ZM168.63 23.712C168.31 24.448 167.996 25.072 167.686 25.584C167.388 26.1067 167.078 26.528 166.758 26.848C166.449 27.1787 166.108 27.4187 165.734 27.568C165.372 27.7173 164.966 27.792 164.518 27.792C164.177 27.792 163.873 27.7547 163.606 27.68C163.35 27.616 163.158 27.5413 163.03 27.456V25.456C163.073 25.4667 163.174 25.504 163.334 25.568C163.505 25.632 163.713 25.6907 163.958 25.744C164.204 25.7973 164.465 25.824 164.742 25.824C165.02 25.824 165.27 25.7867 165.494 25.712C165.729 25.648 165.948 25.5253 166.15 25.344C166.353 25.1733 166.545 24.9333 166.726 24.624C166.918 24.3147 167.1 23.9253 167.27 23.456L167.686 22.752L170.166 16.944C170.166 16.88 170.118 16.8267 170.022 16.784C169.937 16.7307 169.814 16.688 169.654 16.656C169.505 16.624 169.345 16.608 169.174 16.608L169.11 16.608V15.504L172.47 15.504V16.624L172.39 16.624C172.241 16.624 172.108 16.6507 171.99 16.704C171.873 16.7467 171.761 16.8267 171.654 16.944C171.558 17.0507 171.468 17.2 171.382 17.392L168.63 23.712ZM173.168 24V22.96L173.2 22.96C173.467 22.96 173.68 22.912 173.84 22.816C174 22.72 174.08 22.5333 174.08 22.256V17.216C174.08 17.1093 174.053 17.024 174 16.96C173.947 16.896 173.861 16.848 173.744 16.816C173.627 16.7733 173.477 16.7307 173.296 16.688L173.168 16.656V15.504L176.656 15.504L176.8 17.44L176.928 17.424V22.816C176.928 22.848 176.965 22.8747 177.04 22.896C177.125 22.9173 177.216 22.9333 177.312 22.944C177.419 22.9547 177.515 22.96 177.6 22.96L177.664 22.96V24L173.168 24ZM182.928 24L178.624 24V22.96L178.672 22.96C178.768 22.96 178.869 22.9547 178.976 22.944C179.083 22.9333 179.173 22.9173 179.248 22.896C179.323 22.8747 179.36 22.848 179.36 22.816V18.08C179.36 17.8347 179.333 17.632 179.28 17.472C179.237 17.3013 179.157 17.1787 179.04 17.104C178.933 17.0187 178.773 16.976 178.56 16.976C178.347 16.976 178.128 17.04 177.904 17.168C177.691 17.2853 177.472 17.4827 177.248 17.76C177.035 18.0267 176.805 18.384 176.56 18.832L176.576 17.472C176.821 17.0347 177.099 16.6613 177.408 16.352C177.728 16.032 178.08 15.7867 178.464 15.616C178.848 15.4347 179.264 15.344 179.712 15.344C180.235 15.344 180.683 15.4453 181.056 15.648C181.429 15.8507 181.712 16.1493 181.904 16.544C182.107 16.928 182.208 17.4187 182.208 18.016V22.816C182.208 22.848 182.245 22.8747 182.32 22.896C182.395 22.9173 182.485 22.9333 182.592 22.944C182.699 22.9547 182.8 22.96 182.896 22.96L182.928 22.96V24ZM188.416 24L183.904 24V22.96L183.952 22.96C184.048 22.96 184.144 22.9547 184.24 22.944C184.347 22.9333 184.437 22.9173 184.512 22.896C184.587 22.8747 184.624 22.848 184.624 22.816V18.08C184.624 17.8347 184.597 17.632 184.544 17.472C184.501 17.3013 184.421 17.1787 184.304 17.104C184.197 17.0187 184.043 16.976 183.84 16.976C183.605 16.976 183.381 17.0453 183.168 17.184C182.955 17.312 182.736 17.5093 182.512 17.776C182.299 18.0427 182.069 18.384 181.824 18.8L181.856 17.472C182.101 17.0347 182.379 16.656 182.688 16.336C183.008 16.016 183.36 15.7707 183.744 15.6C184.128 15.4293 184.544 15.344 184.992 15.344C185.504 15.344 185.947 15.4453 186.32 15.648C186.693 15.8507 186.976 16.1493 187.168 16.544C187.371 16.928 187.472 17.4187 187.472 18.016V22.256C187.472 22.5333 187.552 22.72 187.712 22.816C187.883 22.912 188.101 22.96 188.368 22.96L188.416 22.96V24ZM192.142 19.808C192.142 20.3307 192.185 20.784 192.27 21.168C192.366 21.552 192.51 21.8667 192.702 22.112C192.894 22.3573 193.134 22.5387 193.422 22.656C193.71 22.7733 194.046 22.832 194.43 22.832C194.836 22.832 195.182 22.768 195.47 22.64C195.758 22.5013 196.004 22.32 196.206 22.096C196.42 21.872 196.601 21.632 196.75 21.376L197.822 22.128C197.598 22.544 197.316 22.9067 196.974 23.216C196.633 23.5253 196.222 23.7653 195.742 23.936C195.262 24.096 194.697 24.176 194.046 24.176C193.086 24.176 192.249 24.0053 191.534 23.664C190.82 23.3227 190.27 22.8267 189.886 22.176C189.502 21.5147 189.31 20.7253 189.31 19.808C189.31 18.912 189.497 18.128 189.87 17.456C190.244 16.784 190.766 16.2667 191.438 15.904C192.11 15.5307 192.884 15.344 193.758 15.344C194.462 15.344 195.07 15.4507 195.582 15.664C196.105 15.8667 196.537 16.1707 196.878 16.576C197.23 16.9813 197.492 17.4933 197.662 18.112C197.844 18.7307 197.934 19.4453 197.934 20.256L191.598 20.256V19.104L195.646 19.104L195.294 19.568C195.284 18.992 195.246 18.512 195.182 18.128C195.129 17.744 195.044 17.4453 194.926 17.232C194.809 17.008 194.66 16.8533 194.478 16.768C194.297 16.672 194.073 16.624 193.806 16.624C193.55 16.624 193.321 16.6827 193.118 16.8C192.916 16.9067 192.74 17.088 192.59 17.344C192.441 17.5893 192.329 17.9147 192.254 18.32C192.18 18.7253 192.142 19.2213 192.142 19.808ZM198.949 24V22.96L198.965 22.96C199.157 22.96 199.317 22.9387 199.445 22.896C199.584 22.8533 199.685 22.784 199.749 22.688C199.824 22.5813 199.861 22.4373 199.861 22.256V17.216C199.861 17.0987 199.834 17.0133 199.781 16.96C199.728 16.896 199.642 16.848 199.525 16.816C199.408 16.7733 199.258 16.7307 199.077 16.688L198.949 16.656V15.504L202.453 15.504L202.581 17.408L202.709 17.44V22.816C202.709 22.848 202.752 22.8747 202.837 22.896C202.922 22.9173 203.024 22.9333 203.141 22.944C203.258 22.9547 203.365 22.96 203.461 22.96L203.525 22.96V24L198.949 24ZM209.221 24L204.645 24V22.96L204.693 22.96C204.789 22.96 204.896 22.9547 205.013 22.944C205.141 22.9333 205.242 22.9173 205.317 22.896C205.402 22.8747 205.445 22.848 205.445 22.816V18.08C205.445 17.824 205.413 17.616 205.349 17.456C205.296 17.296 205.2 17.1787 205.061 17.104C204.933 17.0187 204.757 16.976 204.533 16.976C204.266 16.976 204.01 17.0453 203.765 17.184C203.52 17.3227 203.28 17.536 203.045 17.824C202.81 18.1013 202.576 18.4587 202.341 18.896L202.357 17.536C202.592 17.088 202.869 16.6987 203.189 16.368C203.52 16.0373 203.893 15.7867 204.309 15.616C204.736 15.4347 205.184 15.344 205.653 15.344C206.208 15.344 206.682 15.4453 207.077 15.648C207.472 15.8507 207.77 16.1493 207.973 16.544C208.186 16.928 208.293 17.4187 208.293 18.016V22.256C208.293 22.4373 208.33 22.5813 208.405 22.688C208.48 22.784 208.581 22.8533 208.709 22.896C208.848 22.9387 209.008 22.96 209.189 22.96L209.221 22.96V24ZM209.707 16.752V15.584L209.803 15.584C210.069 15.584 210.293 15.568 210.475 15.536C210.667 15.4933 210.811 15.4133 210.907 15.296C211.013 15.168 211.067 14.9867 211.067 14.752L212.763 15.504L216.155 15.504V16.752L209.707 16.752ZM213.819 21.216C213.819 21.6107 213.867 21.92 213.963 22.144C214.069 22.3573 214.213 22.512 214.395 22.608C214.587 22.6933 214.821 22.736 215.099 22.736C215.333 22.736 215.552 22.7147 215.755 22.672C215.957 22.6293 216.096 22.5973 216.171 22.576V23.904C216.064 23.9467 215.915 23.984 215.723 24.016C215.541 24.0587 215.328 24.096 215.083 24.128C214.848 24.16 214.587 24.176 214.299 24.176C213.669 24.176 213.099 24.096 212.587 23.936C212.085 23.7653 211.691 23.472 211.403 23.056C211.115 22.64 210.971 22.064 210.971 21.328V15.808L211.067 15.68V13.136L213.819 13.136V21.216Z" fill="#2C3667"/>
<g filter="url(#filter2_d_44_1001)">
<g clip-path="url(#clip0_44_1001)">
<rect x="140" y="79" width="182" height="24" rx="3" fill="white"/>
<path d="M149.6 95V88.86L148.2 88.86V87.56L151.15 87.55V95L149.6 95ZM154.004 95V88.86L152.604 88.86V87.56L155.554 87.55V95L154.004 95ZM157.359 92.96V91.66L161.859 91.66V92.96L157.359 92.96ZM165.724 95.12C163.924 95.12 162.704 93.58 162.704 91.27C162.704 88.96 163.914 87.43 165.714 87.43C167.534 87.43 168.734 88.97 168.734 91.27C168.734 93.57 167.534 95.12 165.724 95.12ZM165.724 93.72C166.654 93.72 167.194 92.82 167.194 91.27C167.194 89.73 166.654 88.83 165.714 88.83C164.784 88.83 164.244 89.72 164.244 91.27C164.244 92.81 164.794 93.72 165.724 93.72ZM172.355 95.12C170.555 95.12 169.335 93.58 169.335 91.27C169.335 88.96 170.545 87.43 172.345 87.43C174.165 87.43 175.365 88.97 175.365 91.27C175.365 93.57 174.165 95.12 172.355 95.12ZM172.355 93.72C173.285 93.72 173.825 92.82 173.825 91.27C173.825 89.73 173.285 88.83 172.345 88.83C171.415 88.83 170.875 89.72 170.875 91.27C170.875 92.81 171.425 93.72 172.355 93.72ZM176.216 92.96V91.66L180.716 91.66V92.96L176.216 92.96ZM187.752 92.1V93.4L186.512 93.4V95L184.962 95V93.4L181.562 93.4V92.1L184.862 87.55L186.512 87.55V92.1L187.752 92.1ZM183.072 92.1L184.962 92.1V89.42L183.072 92.1ZM188.211 95L188.201 93.8L190.201 91.74C191.371 90.53 191.631 90.18 191.631 89.71C191.631 89.17 191.271 88.83 190.701 88.83C190.121 88.83 189.651 89.18 189.451 89.76L188.231 89.06C188.571 88.06 189.561 87.43 190.801 87.43C192.221 87.43 193.181 88.27 193.181 89.52C193.181 90.33 192.741 91.01 191.851 91.92L190.121 93.7L193.271 93.7V95L188.211 95Z" fill="#394375"/>
</g>
<rect x="140.5" y="79.5" width="181" height="23" rx="2.5" stroke="#D5DAEF"/>
</g>
<path d="M144.36 74.12C142.9 74.12 141.77 73.23 141.41 72.1L142.25 71.73C142.6 72.75 143.37 73.29 144.36 73.29C145.3 73.29 145.92 72.81 145.92 72.12C145.92 71.49 145.56 71.15 144.82 70.93L143.43 70.51C142.24 70.16 141.64 69.41 141.64 68.49C141.64 67.28 142.64 66.43 144.07 66.43C145.44 66.43 146.47 67.24 146.81 68.23L145.98 68.62C145.67 67.74 144.99 67.26 144.08 67.26C143.18 67.26 142.59 67.73 142.59 68.43C142.59 69 142.98 69.44 143.71 69.65L145.04 70.05C146.26 70.42 146.87 71.05 146.87 72.05C146.87 73.28 145.85 74.12 144.36 74.12ZM150.418 74.12C148.888 74.12 147.688 72.95 147.688 71.34C147.688 69.73 148.878 68.58 150.418 68.58C151.958 68.58 153.148 69.73 153.148 71.34C153.148 72.95 151.948 74.12 150.418 74.12ZM150.418 73.29C151.448 73.29 152.238 72.46 152.238 71.35C152.238 70.24 151.448 69.41 150.418 69.41C149.388 69.41 148.598 70.24 148.598 71.35C148.598 72.46 149.388 73.29 150.418 73.29ZM156.43 68.64L156.86 68.64V69.46L156.3 69.46C155.54 69.46 155.03 69.96 155.03 70.84V74L154.17 74V68.7L155 68.7V69.36C155.28 68.87 155.79 68.64 156.43 68.64ZM160.042 74.06C158.972 74.06 158.372 73.45 158.372 72.38V69.52L157.342 69.52V68.7L157.612 68.7C158.072 68.7 158.372 68.39 158.372 67.92V66.98L159.232 66.98V68.7L160.512 68.7V69.52L159.232 69.52V72.38C159.232 72.72 159.292 73.34 160.202 73.34C160.312 73.34 160.462 73.33 160.572 73.31V74.01C160.402 74.05 160.192 74.06 160.042 74.06ZM165.66 74.12C164.14 74.12 163.01 72.93 163.01 71.34C163.01 69.75 164.14 68.58 165.66 68.58C166.7 68.58 167.58 69.19 167.91 69.98L167.14 70.38C166.88 69.8 166.35 69.41 165.66 69.41C164.66 69.41 163.92 70.23 163.92 71.35C163.92 72.45 164.66 73.29 165.66 73.29C166.35 73.29 166.88 72.9 167.14 72.32L167.91 72.72C167.58 73.5 166.69 74.12 165.66 74.12ZM171.258 74.12C169.728 74.12 168.528 72.95 168.528 71.34C168.528 69.73 169.718 68.58 171.258 68.58C172.798 68.58 173.988 69.73 173.988 71.34C173.988 72.95 172.788 74.12 171.258 74.12ZM171.258 73.29C172.288 73.29 173.078 72.46 173.078 71.35C173.078 70.24 172.288 69.41 171.258 69.41C170.228 69.41 169.438 70.24 169.438 71.35C169.438 72.46 170.228 73.29 171.258 73.29ZM179.27 66.55L180.13 66.55V74L179.29 74V73.23C178.9 73.8 178.19 74.12 177.39 74.12C175.88 74.12 174.71 72.95 174.71 71.35C174.71 69.75 175.89 68.58 177.38 68.58C178.18 68.58 178.89 68.92 179.27 69.48V66.55ZM177.44 73.29C178.49 73.29 179.27 72.47 179.27 71.35C179.27 70.24 178.49 69.41 177.44 69.41C176.39 69.41 175.62 70.24 175.62 71.35C175.62 72.47 176.39 73.29 177.44 73.29ZM186.195 71.12C186.195 71.27 186.185 71.44 186.155 71.61L182.045 71.61C182.085 72.66 182.875 73.34 183.805 73.34C184.555 73.34 185.045 72.94 185.325 72.4L186.075 72.8C185.745 73.53 184.885 74.12 183.795 74.12C182.275 74.12 181.145 72.94 181.145 71.34C181.145 69.74 182.245 68.58 183.725 68.58C185.235 68.58 186.195 69.77 186.195 71.12ZM182.065 70.87L185.245 70.87C185.235 69.99 184.505 69.34 183.725 69.34C182.895 69.34 182.185 69.91 182.065 70.87Z" fill="#8C95C2"/>
<g filter="url(#filter3_d_44_1001)">
<g clip-path="url(#clip1_44_1001)">
<rect x="140" y="135" width="182" height="24" rx="3" fill="white"/>
<path d="M148.67 151L151.68 144.84L148.15 144.84V143.54L153.22 143.54V144.84L150.3 151L148.67 151ZM156.162 146.22C157.542 146.22 158.542 147.35 158.542 148.65C158.542 150.06 157.432 151.12 155.882 151.12C154.332 151.12 153.222 150.06 153.222 148.65C153.222 147.98 153.512 147.44 153.972 146.8L156.282 143.55L158.032 143.55L156.152 146.22L156.162 146.22ZM155.882 149.72C156.492 149.72 156.992 149.27 156.992 148.6C156.992 147.93 156.492 147.49 155.882 147.49C155.272 147.49 154.772 147.93 154.772 148.6C154.772 149.27 155.272 149.72 155.882 149.72ZM161.95 146.09C163.38 146.09 164.37 147.06 164.37 148.45C164.37 149.98 163.22 151.12 161.66 151.12C160.46 151.12 159.44 150.47 159.09 149.49L160.32 148.79C160.53 149.35 161.05 149.72 161.66 149.72C162.35 149.72 162.82 149.25 162.82 148.55C162.82 147.86 162.35 147.39 161.66 147.39C161.2 147.39 160.88 147.6 160.71 148.02L159.49 147.72L160.19 143.55L164.2 143.55V144.85L161.24 144.84L161 146.31C161.26 146.16 161.57 146.09 161.95 146.09ZM171.258 148.1V149.4L170.018 149.4V151L168.468 151V149.4L165.068 149.4V148.1L168.368 143.55L170.018 143.55V148.1L171.258 148.1ZM166.578 148.1L168.468 148.1V145.42L166.578 148.1ZM175.237 146.39C176.317 146.57 176.997 147.38 176.997 148.53C176.997 150.02 175.827 151.12 174.247 151.12C173.057 151.12 172.077 150.49 171.707 149.49L172.927 148.79C173.147 149.39 173.607 149.72 174.247 149.72C174.977 149.72 175.447 149.28 175.447 148.59C175.447 147.91 174.997 147.49 174.247 147.49C173.947 147.49 173.647 147.56 173.407 147.68L173.047 146.93L174.967 144.85L172.047 144.85V143.55L176.697 143.55V144.75L175.237 146.39ZM180.715 151.12C178.915 151.12 177.695 149.58 177.695 147.27C177.695 144.96 178.905 143.43 180.705 143.43C182.525 143.43 183.725 144.97 183.725 147.27C183.725 149.57 182.525 151.12 180.715 151.12ZM180.715 149.72C181.645 149.72 182.185 148.82 182.185 147.27C182.185 145.73 181.645 144.83 180.705 144.83C179.775 144.83 179.235 145.72 179.235 147.27C179.235 148.81 179.785 149.72 180.715 149.72ZM188.855 147.09C189.555 147.47 189.925 148.05 189.925 148.79C189.925 150.13 188.745 151.12 187.165 151.12C185.595 151.12 184.425 150.13 184.425 148.79C184.425 148.04 184.785 147.45 185.485 147.09C184.985 146.77 184.675 146.16 184.675 145.5C184.675 144.3 185.715 143.43 187.165 143.43C188.605 143.43 189.665 144.3 189.665 145.5C189.665 146.15 189.355 146.76 188.855 147.09ZM187.165 144.73C186.615 144.73 186.245 145.09 186.245 145.62C186.245 146.14 186.615 146.49 187.165 146.49C187.715 146.49 188.085 146.14 188.085 145.62C188.085 145.09 187.715 144.73 187.165 144.73ZM187.165 149.82C187.885 149.82 188.365 149.41 188.365 148.8C188.365 148.19 187.885 147.79 187.165 147.79C186.455 147.79 185.985 148.19 185.985 148.8C185.985 149.41 186.455 149.82 187.165 149.82ZM190.994 151L194.004 144.84L190.474 144.84V143.54L195.544 143.54V144.84L192.624 151L190.994 151Z" fill="#394375"/>
</g>
<rect x="140.5" y="135.5" width="181" height="23" rx="2.5" stroke="#D5DAEF"/>
</g>
<path d="M145 122.55L147.7 130L146.7 130L146.08 128.22L142.83 128.22L142.21 130L141.21 130L143.91 122.55L145 122.55ZM143.12 127.39L145.79 127.39L144.46 123.58L143.12 127.39ZM150.729 130.12C149.209 130.12 148.079 128.93 148.079 127.34C148.079 125.75 149.209 124.58 150.729 124.58C151.769 124.58 152.649 125.19 152.979 125.98L152.209 126.38C151.949 125.8 151.419 125.41 150.729 125.41C149.729 125.41 148.989 126.23 148.989 127.35C148.989 128.45 149.729 129.29 150.729 129.29C151.419 129.29 151.949 128.9 152.209 128.32L152.979 128.72C152.649 129.5 151.759 130.12 150.729 130.12ZM156.246 130.12C154.726 130.12 153.596 128.93 153.596 127.34C153.596 125.75 154.726 124.58 156.246 124.58C157.286 124.58 158.166 125.19 158.496 125.98L157.726 126.38C157.466 125.8 156.936 125.41 156.246 125.41C155.246 125.41 154.506 126.23 154.506 127.35C154.506 128.45 155.246 129.29 156.246 129.29C156.936 129.29 157.466 128.9 157.726 128.32L158.496 128.72C158.166 129.5 157.276 130.12 156.246 130.12ZM161.844 130.12C160.314 130.12 159.114 128.95 159.114 127.34C159.114 125.73 160.304 124.58 161.844 124.58C163.384 124.58 164.574 125.73 164.574 127.34C164.574 128.95 163.374 130.12 161.844 130.12ZM161.844 129.29C162.874 129.29 163.664 128.46 163.664 127.35C163.664 126.24 162.874 125.41 161.844 125.41C160.814 125.41 160.024 126.24 160.024 127.35C160.024 128.46 160.814 129.29 161.844 129.29ZM168.986 124.7L169.846 124.7V130L169.006 130V129.39C168.696 129.85 168.126 130.12 167.486 130.12C166.336 130.12 165.496 129.2 165.496 128.07V124.7L166.356 124.7V127.91C166.356 128.75 166.876 129.29 167.676 129.29C168.456 129.29 168.986 128.74 168.986 127.91V124.7ZM173.532 124.58C174.682 124.58 175.512 125.4 175.512 126.51V130L174.652 130V126.79C174.652 125.95 174.142 125.41 173.342 125.41C172.552 125.41 172.022 125.96 172.022 126.79V130L171.162 130V124.7L172.002 124.7V125.31C172.312 124.85 172.882 124.58 173.532 124.58ZM178.948 130.06C177.878 130.06 177.278 129.45 177.278 128.38V125.52L176.248 125.52V124.7L176.518 124.7C176.978 124.7 177.278 124.39 177.278 123.92V122.98L178.138 122.98V124.7L179.418 124.7V125.52L178.138 125.52V128.38C178.138 128.72 178.198 129.34 179.108 129.34C179.218 129.34 179.368 129.33 179.478 129.31V130.01C179.308 130.05 179.098 130.06 178.948 130.06ZM184.587 124.58C185.737 124.58 186.567 125.4 186.567 126.51V130L185.707 130V126.79C185.707 125.95 185.197 125.41 184.397 125.41C183.607 125.41 183.077 125.96 183.077 126.79V130L182.217 130V124.7L183.057 124.7V125.31C183.367 124.85 183.937 124.58 184.587 124.58ZM191.173 124.7L192.033 124.7V130L191.193 130V129.39C190.883 129.85 190.313 130.12 189.673 130.12C188.523 130.12 187.683 129.2 187.683 128.07V124.7L188.543 124.7V127.91C188.543 128.75 189.063 129.29 189.863 129.29C190.643 129.29 191.173 128.74 191.173 127.91V124.7ZM199.019 124.58C200.119 124.58 200.929 125.39 200.929 126.51V130L200.069 130V126.79C200.069 125.94 199.579 125.41 198.819 125.41C198.069 125.41 197.569 125.95 197.569 126.79V130L196.709 130V126.79C196.709 125.94 196.219 125.41 195.459 125.41C194.709 125.41 194.209 125.95 194.209 126.79V130L193.349 130V124.7L194.189 124.7V125.31C194.489 124.85 195.029 124.58 195.659 124.58C196.389 124.58 196.999 124.94 197.319 125.52C197.659 124.92 198.279 124.58 199.019 124.58ZM204.898 124.58C206.388 124.58 207.568 125.75 207.568 127.35C207.568 128.95 206.388 130.12 204.888 130.12C204.098 130.12 203.378 129.8 202.988 129.23V130L202.148 130V122.55L203.008 122.55V125.48C203.378 124.92 204.088 124.58 204.898 124.58ZM204.838 129.29C205.878 129.29 206.658 128.47 206.658 127.35C206.658 126.24 205.878 125.41 204.838 125.41C203.788 125.41 203.008 126.24 203.008 127.35C203.008 128.47 203.788 129.29 204.838 129.29ZM213.334 127.12C213.334 127.27 213.324 127.44 213.294 127.61L209.184 127.61C209.224 128.66 210.014 129.34 210.944 129.34C211.694 129.34 212.184 128.94 212.464 128.4L213.214 128.8C212.884 129.53 212.024 130.12 210.934 130.12C209.414 130.12 208.284 128.94 208.284 127.34C208.284 125.74 209.384 124.58 210.864 124.58C212.374 124.58 213.334 125.77 213.334 127.12ZM209.204 126.87L212.384 126.87C212.374 125.99 211.644 125.34 210.864 125.34C210.034 125.34 209.324 125.91 209.204 126.87ZM216.518 124.64L216.948 124.64V125.46L216.388 125.46C215.628 125.46 215.118 125.96 215.118 126.84V130L214.258 130V124.7L215.088 124.7V125.36C215.368 124.87 215.878 124.64 216.518 124.64Z" fill="#8C95C2"/>
<mask id="mask1_44_1001" style="mask-type:alpha" maskUnits="userSpaceOnUse" x="303" y="9" width="22" height="22">
<circle cx="314" cy="20" r="11" fill="#D9D9D9"/>
</mask>
<g mask="url(#mask1_44_1001)">
<path d="M303 11C303 9.89543 303.895 9 305 9H308.499V31H305C303.895 31 303 30.1046 303 29V11ZM319.501 9H323C324.105 9 325 9.89543 325 11V29C325 30.1046 324.105 31 323 31H319.504L319.501 9Z" fill="#D52B1E"/>
</g>
<path d="M310.306 19.8646L309.875 20.0075L311.864 21.7606C312.016 22.2054 311.812 22.3385 311.682 22.5722L313.839 22.2995L313.787 24.4747L314.237 24.4649L314.137 22.3028L316.297 22.5625C316.164 22.28 316.045 22.1307 316.168 21.6794L318.153 20.0237L317.806 19.8938C317.521 19.6731 317.929 18.8355 317.988 18.3063C317.988 18.3063 316.832 18.7056 316.757 18.4946L316.459 17.9264L315.403 19.0887C315.29 19.1179 315.241 19.0725 315.212 18.9751L315.698 16.5467L314.927 16.9817C314.862 17.0109 314.798 16.9849 314.759 16.9103L314.014 15.4169L313.25 16.9687C313.191 17.0239 313.133 17.0304 313.088 16.9914L312.346 16.5791L312.79 18.9848C312.754 19.0822 312.67 19.1082 312.573 19.0562L311.562 17.9102C311.433 18.1212 311.342 18.4654 311.167 18.5433C310.992 18.6179 310.406 18.3972 310.014 18.316C310.15 18.7965 310.565 19.6016 310.306 19.8646Z" fill="#D52B1E"/>
<g clip-path="url(#clip2_44_1001)">
<path d="M313 32C319.628 32 325 26.6274 325 20C325 13.3726 319.628 8 313 8C306.373 8 301 13.3726 301 20C301 26.6274 306.373 32 313 32Z" fill="#F0F0F0"/>
<path d="M303.481 12.6942C302.538 13.9206 301.827 15.3341 301.413 16.8697H307.656L303.481 12.6942Z" fill="#0052B4"/>
<path d="M324.587 16.8698C324.173 15.3342 323.462 13.9207 322.52 12.6943L318.344 16.8698H324.587Z" fill="#0052B4"/>
<path d="M301.413 23.1306C301.827 24.6661 302.538 26.0797 303.481 27.306L307.656 23.1306H301.413Z" fill="#0052B4"/>
<path d="M320.306 10.4807C319.079 9.53812 317.666 8.82736 316.13 8.41345V14.6561L320.306 10.4807Z" fill="#0052B4"/>
<path d="M305.694 29.5195C306.921 30.4621 308.334 31.1728 309.87 31.5867V25.3441L305.694 29.5195Z" fill="#0052B4"/>
<path d="M309.87 8.41345C308.334 8.82736 306.921 9.53812 305.694 10.4807L309.87 14.6561V8.41345Z" fill="#0052B4"/>
<path d="M316.13 31.5867C317.666 31.1728 319.079 30.4621 320.306 29.5195L316.13 25.3441V31.5867Z" fill="#0052B4"/>
<path d="M318.344 23.1306L322.52 27.3061C323.462 26.0797 324.173 24.6661 324.587 23.1306H318.344Z" fill="#0052B4"/>
<path d="M324.899 18.4348H314.566H314.565V8.10158C314.053 8.03488 313.531 8 313 8C312.47 8 311.947 8.03488 311.435 8.10158V18.4347V18.4348H301.102C301.035 18.9471 301 19.4695 301 20C301 20.5306 301.035 21.0529 301.102 21.5652H311.435H311.435V31.8984C311.947 31.9651 312.47 32 313 32C313.531 32 314.053 31.9652 314.565 31.8984V21.5653V21.5652H324.899C324.965 21.0529 325 20.5306 325 20C325 19.4695 324.965 18.9471 324.899 18.4348V18.4348Z" fill="#D80027"/>
<path d="M316.13 23.1305L321.485 28.4854C321.731 28.2392 321.966 27.9818 322.191 27.715L317.606 23.1305H316.13V23.1305Z" fill="#D80027"/>
<path d="M309.87 23.1305H309.87L304.515 28.4853C304.761 28.7315 305.018 28.9665 305.285 29.1906L309.87 24.6061V23.1305Z" fill="#D80027"/>
<path d="M309.87 16.8696V16.8695L304.515 11.5146C304.269 11.7608 304.034 12.0182 303.809 12.285L308.394 16.8696H309.87V16.8696Z" fill="#D80027"/>
<path d="M316.13 16.8697L321.485 11.5148C321.239 11.2685 320.982 11.0336 320.715 10.8094L316.13 15.394V16.8697Z" fill="#D80027"/>
</g>
</g>
<defs>
<filter id="filter0_f_44_1001" x="0.226318" y="25.236" width="357.277" height="306.706" filterUnits="userSpaceOnUse" color-interpolation-filters="sRGB">
<feFlood flood-opacity="0" result="BackgroundImageFix"/>
<feBlend mode="normal" in="SourceGraphic" in2="BackgroundImageFix" result="shape"/>
<feGaussianBlur stdDeviation="57" result="effect1_foregroundBlur_44_1001"/>
</filter>
<filter id="filter1_d_44_1001" x="81" y="-51" width="300" height="279" filterUnits="userSpaceOnUse" color-interpolation-filters="sRGB">
<feFlood flood-opacity="0" result="BackgroundImageFix"/>
<feColorMatrix in="SourceAlpha" type="matrix" values="0 0 0 0 0 0 0 0 0 0 0 0 0 0 0 0 0 0 127 0" result="hardAlpha"/>
<feOffset/>
<feGaussianBlur stdDeviation="18"/>
<feComposite in2="hardAlpha" operator="out"/>
<feColorMatrix type="matrix" values="0 0 0 0 0.596373 0 0 0 0 0.635165 0 0 0 0 0.701667 0 0 0 0.3 0"/>
<feBlend mode="normal" in2="BackgroundImageFix" result="effect1_dropShadow_44_1001"/>
<feBlend mode="normal" in="SourceGraphic" in2="effect1_dropShadow_44_1001" result="shape"/>
</filter>
<filter id="filter2_d_44_1001" x="138" y="78" width="186" height="28" filterUnits="userSpaceOnUse" color-interpolation-filters="sRGB">
<feFlood flood-opacity="0" result="BackgroundImageFix"/>
<feColorMatrix in="SourceAlpha" type="matrix" values="0 0 0 0 0 0 0 0 0 0 0 0 0 0 0 0 0 0 127 0" result="hardAlpha"/>
<feOffset dy="1"/>
<feGaussianBlur stdDeviation="1"/>
<feColorMatrix type="matrix" values="0 0 0 0 0.0627451 0 0 0 0 0.0941176 0 0 0 0 0.156863 0 0 0 0.05 0"/>
<feBlend mode="normal" in2="BackgroundImageFix" result="effect1_dropShadow_44_1001"/>
<feBlend mode="normal" in="SourceGraphic" in2="effect1_dropShadow_44_1001" result="shape"/>
</filter>
<filter id="filter3_d_44_1001" x="138" y="134" width="186" height="28" filterUnits="userSpaceOnUse" color-interpolation-filters="sRGB">
<feFlood flood-opacity="0" result="BackgroundImageFix"/>
<feColorMatrix in="SourceAlpha" type="matrix" values="0 0 0 0 0 0 0 0 0 0 0 0 0 0 0 0 0 0 127 0" result="hardAlpha"/>
<feOffset dy="1"/>
<feGaussianBlur stdDeviation="1"/>
<feColorMatrix type="matrix" values="0 0 0 0 0.0627451 0 0 0 0 0.0941176 0 0 0 0 0.156863 0 0 0 0.05 0"/>
<feBlend mode="normal" in2="BackgroundImageFix" result="effect1_dropShadow_44_1001"/>
<feBlend mode="normal" in="SourceGraphic" in2="effect1_dropShadow_44_1001" result="shape"/>
</filter>
<clipPath id="clip0_44_1001">
<rect x="140" y="79" width="182" height="24" rx="3" fill="white"/>
</clipPath>
<clipPath id="clip1_44_1001">
<rect x="140" y="135" width="182" height="24" rx="3" fill="white"/>
</clipPath>
<clipPath id="clip2_44_1001">
<rect width="24" height="24" fill="white" transform="translate(301 8)"/>
</clipPath>
</defs>
</svg>
