<svg width="73" height="72" viewBox="0 0 73 72" fill="none" xmlns="http://www.w3.org/2000/svg">
<path d="M37.5605 60.2609H7.43945C6.68369 60.2609 6.07031 59.5597 6.07031 58.6957V16.4348C6.07031 15.5708 6.68369 14.8696 7.43945 14.8696H37.5605C38.3163 14.8696 38.9297 15.5708 38.9297 16.4348V58.6957C38.9297 59.5597 38.3163 60.2609 37.5605 60.2609Z" fill="url(#paint0_linear_16049_9017)"/>
<path d="M42.2609 3.13037H4.69565C2.10209 3.13037 0 5.23246 0 7.82602V67.3043C0 69.8979 2.10209 71.9999 4.69565 71.9999H42.2609C44.8544 71.9999 46.9565 69.8979 46.9565 67.3043V7.82602C46.9565 5.23246 44.8544 3.13037 42.2609 3.13037Z" fill="#D5DAEF"/>
<path d="M23.4781 67.3046C25.207 67.3046 26.6085 65.903 26.6085 64.1741C26.6085 62.4452 25.207 61.0437 23.4781 61.0437C21.7492 61.0437 20.3477 62.4452 20.3477 64.1741C20.3477 65.903 21.7492 67.3046 23.4781 67.3046Z" fill="white" fill-opacity="0.7"/>
<path d="M40.6953 56.348H6.26053C5.39653 56.348 4.69531 55.6468 4.69531 54.7828V12.5219C4.69531 11.6579 5.39653 10.9567 6.26053 10.9567H40.6953C41.5593 10.9567 42.2605 11.6579 42.2605 12.5219V54.7828C42.2605 55.6468 41.5593 56.348 40.6953 56.348Z" fill="white" fill-opacity="0.36"/>
<path d="M64.5811 3.01428H35.2333C34.0176 3.01428 33.0322 6.79147 33.0322 11.4518V25.5143H66.7822V11.4518C66.7822 6.79147 65.7969 3.01428 64.5811 3.01428Z" fill="url(#paint1_linear_16049_9017)"/>
<path d="M69.5928 0H30.2178C28.6645 0 27.4053 1.2592 27.4053 2.8125V30.9375C27.4053 32.4908 28.6645 33.75 30.2178 33.75H69.5928C71.1461 33.75 72.4053 32.4908 72.4053 30.9375V2.8125C72.4053 1.2592 71.1461 0 69.5928 0Z" fill="url(#paint2_linear_16049_9017)"/>
<path d="M72.4053 7.51648H27.4053V15.5522H72.4053V7.51648Z" fill="#E1FFFF"/>
<path d="M49.9051 20.3728H32.2266V25.1942H49.9051V20.3728Z" fill="white"/>
<defs>
<linearGradient id="paint0_linear_16049_9017" x1="6.07031" y1="14.8696" x2="45.9266" y2="22.1958" gradientUnits="userSpaceOnUse">
<stop stop-color="#75A5FF"/>
<stop offset="0.703125" stop-color="#2339FF"/>
</linearGradient>
<linearGradient id="paint1_linear_16049_9017" x1="33.0322" y1="3.01428" x2="69.9905" y2="17.0909" gradientUnits="userSpaceOnUse">
<stop stop-color="#75A5FF"/>
<stop offset="0.703125" stop-color="#2339FF"/>
</linearGradient>
<linearGradient id="paint2_linear_16049_9017" x1="47.5221" y1="14.2794" x2="51.4237" y2="35.5831" gradientUnits="userSpaceOnUse">
<stop offset="0.0076178" stop-color="#00D2D3"/>
<stop offset="0.91" stop-color="#00B3FF"/>
</linearGradient>
</defs>
</svg>
