<svg width="418" height="338" viewBox="0 0 418 338" fill="none" xmlns="http://www.w3.org/2000/svg">
<path opacity="0.2" d="M73.875 147.5H352.875V312C352.875 320.56 345.935 327.5 337.375 327.5H89.375C80.8146 327.5 73.875 320.56 73.875 312V147.5Z" fill="#D5DAEF" stroke="#AFB7DC"/>
<rect x="73.875" y="97.5" width="279" height="240" rx="15.5" fill="white" stroke="#AFB7DC"/>
<path d="M73.375 158H352.375" stroke="#AFB7DC"/>
<path d="M137.687 133.064V135.384C137.516 135.576 137.276 135.784 136.967 136.008C136.668 136.221 136.306 136.424 135.879 136.616C135.463 136.797 134.999 136.947 134.487 137.064C133.986 137.181 133.447 137.24 132.871 137.24C131.996 137.24 131.196 137.107 130.471 136.84C129.756 136.573 129.138 136.184 128.615 135.672C128.103 135.16 127.708 134.541 127.431 133.816C127.154 133.08 127.015 132.248 127.015 131.32C127.015 130.413 127.159 129.597 127.447 128.872C127.735 128.136 128.14 127.512 128.663 127C129.186 126.477 129.794 126.083 130.487 125.816C131.18 125.539 131.932 125.4 132.743 125.4C133.522 125.4 134.167 125.539 134.679 125.816C135.202 126.083 135.618 126.456 135.927 126.936C136.247 127.416 136.487 127.981 136.647 128.632L135.895 128.248L136.167 125.592L137.527 125.592V129.256L135.975 129.256C135.815 128.755 135.607 128.317 135.351 127.944C135.095 127.571 134.78 127.283 134.407 127.08C134.044 126.867 133.602 126.76 133.079 126.76C132.61 126.76 132.194 126.861 131.831 127.064C131.468 127.267 131.159 127.56 130.903 127.944C130.658 128.328 130.471 128.803 130.343 129.368C130.226 129.933 130.167 130.584 130.167 131.32C130.167 132.099 130.231 132.776 130.359 133.352C130.487 133.928 130.674 134.403 130.919 134.776C131.175 135.139 131.479 135.416 131.831 135.608C132.194 135.789 132.604 135.88 133.063 135.88C133.404 135.88 133.698 135.843 133.943 135.768C134.188 135.683 134.391 135.587 134.551 135.48C134.722 135.373 134.85 135.277 134.935 135.192V133.064C134.935 132.819 134.839 132.659 134.647 132.584C134.455 132.499 134.21 132.456 133.911 132.456L133.639 132.456V131.288L138.695 131.288V132.456L138.503 132.456C138.258 132.456 138.06 132.499 137.911 132.584C137.762 132.659 137.687 132.819 137.687 133.064ZM142.721 132.808C142.721 133.331 142.763 133.784 142.849 134.168C142.945 134.552 143.089 134.867 143.281 135.112C143.473 135.357 143.713 135.539 144.001 135.656C144.289 135.773 144.625 135.832 145.009 135.832C145.414 135.832 145.761 135.768 146.049 135.64C146.337 135.501 146.582 135.32 146.785 135.096C146.998 134.872 147.179 134.632 147.329 134.376L148.401 135.128C148.177 135.544 147.894 135.907 147.553 136.216C147.211 136.525 146.801 136.765 146.321 136.936C145.841 137.096 145.275 137.176 144.625 137.176C143.665 137.176 142.827 137.005 142.113 136.664C141.398 136.323 140.849 135.827 140.465 135.176C140.081 134.515 139.889 133.725 139.889 132.808C139.889 131.912 140.075 131.128 140.449 130.456C140.822 129.784 141.345 129.267 142.017 128.904C142.689 128.531 143.462 128.344 144.337 128.344C145.041 128.344 145.649 128.451 146.161 128.664C146.683 128.867 147.115 129.171 147.457 129.576C147.809 129.981 148.07 130.493 148.241 131.112C148.422 131.731 148.513 132.445 148.513 133.256L142.177 133.256V132.104L146.225 132.104L145.873 132.568C145.862 131.992 145.825 131.512 145.761 131.128C145.707 130.744 145.622 130.445 145.505 130.232C145.387 130.008 145.238 129.853 145.057 129.768C144.875 129.672 144.651 129.624 144.385 129.624C144.129 129.624 143.899 129.683 143.697 129.8C143.494 129.907 143.318 130.088 143.169 130.344C143.019 130.589 142.907 130.915 142.833 131.32C142.758 131.725 142.721 132.221 142.721 132.808ZM149.175 129.752V128.584L149.271 128.584C149.538 128.584 149.762 128.568 149.943 128.536C150.135 128.493 150.279 128.413 150.375 128.296C150.482 128.168 150.535 127.987 150.535 127.752L152.231 128.504L155.623 128.504V129.752L149.175 129.752ZM153.287 134.216C153.287 134.611 153.335 134.92 153.431 135.144C153.538 135.357 153.682 135.512 153.863 135.608C154.055 135.693 154.29 135.736 154.567 135.736C154.802 135.736 155.021 135.715 155.223 135.672C155.426 135.629 155.565 135.597 155.639 135.576V136.904C155.533 136.947 155.383 136.984 155.191 137.016C155.01 137.059 154.797 137.096 154.551 137.128C154.317 137.16 154.055 137.176 153.767 137.176C153.138 137.176 152.567 137.096 152.055 136.936C151.554 136.765 151.159 136.472 150.871 136.056C150.583 135.64 150.439 135.064 150.439 134.328V128.808L150.535 128.68V126.136L153.287 126.136V134.216ZM167.836 129.928C167.836 129.875 167.788 129.821 167.692 129.768C167.596 129.715 167.473 129.672 167.324 129.64C167.174 129.608 167.014 129.592 166.844 129.592L166.796 129.592V128.504L170.092 128.504V129.624L170.028 129.624C169.878 129.624 169.74 129.645 169.612 129.688C169.494 129.731 169.388 129.805 169.292 129.912C169.206 130.019 169.132 130.173 169.068 130.376L166.668 137.032L163.82 137.032L161.436 130.28C161.372 130.099 161.297 129.965 161.212 129.88C161.126 129.784 161.02 129.72 160.892 129.688C160.774 129.645 160.63 129.624 160.46 129.624L160.396 129.624V128.504L165.228 128.504V129.592L165.164 129.592C164.993 129.592 164.828 129.597 164.668 129.608C164.508 129.619 164.374 129.635 164.268 129.656C164.172 129.667 164.124 129.693 164.124 129.736L166.252 135.976L165.884 135.464L167.836 129.928ZM173.361 132.808C173.361 133.331 173.404 133.784 173.489 134.168C173.585 134.552 173.729 134.867 173.921 135.112C174.113 135.357 174.353 135.539 174.641 135.656C174.929 135.773 175.265 135.832 175.649 135.832C176.054 135.832 176.401 135.768 176.689 135.64C176.977 135.501 177.222 135.32 177.425 135.096C177.638 134.872 177.82 134.632 177.969 134.376L179.041 135.128C178.817 135.544 178.534 135.907 178.193 136.216C177.852 136.525 177.441 136.765 176.961 136.936C176.481 137.096 175.916 137.176 175.265 137.176C174.305 137.176 173.468 137.005 172.753 136.664C172.038 136.323 171.489 135.827 171.105 135.176C170.721 134.515 170.529 133.725 170.529 132.808C170.529 131.912 170.716 131.128 171.089 130.456C171.462 129.784 171.985 129.267 172.657 128.904C173.329 128.531 174.102 128.344 174.977 128.344C175.681 128.344 176.289 128.451 176.801 128.664C177.324 128.867 177.756 129.171 178.097 129.576C178.449 129.981 178.71 130.493 178.881 131.112C179.062 131.731 179.153 132.445 179.153 133.256L172.817 133.256V132.104L176.865 132.104L176.513 132.568C176.502 131.992 176.465 131.512 176.401 131.128C176.348 130.744 176.262 130.445 176.145 130.232C176.028 130.008 175.878 129.853 175.697 129.768C175.516 129.672 175.292 129.624 175.025 129.624C174.769 129.624 174.54 129.683 174.337 129.8C174.134 129.907 173.958 130.088 173.809 130.344C173.66 130.589 173.548 130.915 173.473 131.32C173.398 131.725 173.361 132.221 173.361 132.808ZM186.936 128.456V130.984C186.851 130.973 186.744 130.963 186.616 130.952C186.488 130.931 186.349 130.915 186.2 130.904C186.051 130.893 185.907 130.888 185.768 130.888C185.523 130.888 185.299 130.909 185.096 130.952C184.893 130.984 184.701 131.043 184.52 131.128C184.349 131.203 184.189 131.309 184.04 131.448C183.891 131.576 183.747 131.741 183.608 131.944L183.576 131.208C183.8 130.621 184.029 130.12 184.264 129.704C184.499 129.277 184.776 128.952 185.096 128.728C185.416 128.493 185.816 128.376 186.296 128.376C186.445 128.376 186.573 128.387 186.68 128.408C186.797 128.419 186.883 128.435 186.936 128.456ZM180.168 137V135.96L180.2 135.96C180.467 135.96 180.68 135.912 180.84 135.816C181 135.72 181.08 135.533 181.08 135.256V130.216C181.08 130.109 181.053 130.024 181 129.96C180.947 129.896 180.861 129.848 180.744 129.816C180.627 129.773 180.477 129.731 180.296 129.688L180.168 129.656V128.504L183.656 128.504L183.8 131.032L183.928 130.936V135.704C183.928 135.779 183.987 135.837 184.104 135.88C184.221 135.912 184.365 135.933 184.536 135.944C184.707 135.955 184.867 135.96 185.016 135.96L185.176 135.96V137L180.168 137ZM190.159 127.384C189.668 127.384 189.279 127.272 188.991 127.048C188.703 126.813 188.559 126.477 188.559 126.04C188.559 125.603 188.703 125.272 188.991 125.048C189.279 124.813 189.668 124.696 190.159 124.696C190.649 124.696 191.039 124.813 191.327 125.048C191.615 125.272 191.759 125.603 191.759 126.04C191.759 126.477 191.615 126.813 191.327 127.048C191.039 127.272 190.649 127.384 190.159 127.384ZM191.663 128.504V135.288C191.663 135.544 191.743 135.72 191.903 135.816C192.073 135.912 192.292 135.96 192.559 135.96L192.591 135.96V137L187.887 137V135.96L187.919 135.96C188.185 135.96 188.399 135.912 188.559 135.816C188.729 135.72 188.815 135.544 188.815 135.288V130.216C188.815 130.045 188.751 129.928 188.623 129.864C188.495 129.8 188.292 129.741 188.015 129.688L187.887 129.656V128.504L191.663 128.504ZM193.258 128.504L200.346 128.504V129.736L193.258 129.736V128.504ZM202.026 127.4C201.525 127.4 201.13 127.288 200.842 127.064C200.565 126.829 200.426 126.493 200.426 126.056C200.426 125.619 200.565 125.288 200.842 125.064C201.13 124.829 201.525 124.712 202.026 124.712C202.506 124.712 202.89 124.829 203.178 125.064C203.466 125.288 203.61 125.619 203.61 126.056C203.61 126.493 203.466 126.829 203.178 127.064C202.89 127.288 202.506 127.4 202.026 127.4ZM199.674 137V135.96L199.818 135.96C199.935 135.96 200.058 135.955 200.186 135.944C200.325 135.933 200.437 135.917 200.522 135.896C200.618 135.875 200.666 135.848 200.666 135.816V130.264C200.666 130.179 200.639 130.104 200.586 130.04C200.533 129.965 200.458 129.907 200.362 129.864C200.277 129.821 200.165 129.789 200.026 129.768C199.898 129.747 199.759 129.736 199.61 129.736L199.466 129.736L199.562 128.504L203.514 128.504V135.256C203.514 135.533 203.594 135.72 203.754 135.816C203.925 135.912 204.143 135.96 204.41 135.96L204.442 135.96V137L199.674 137ZM198.618 137L193.418 137V135.96L193.674 135.96C193.994 135.96 194.245 135.907 194.426 135.8C194.607 135.683 194.698 135.491 194.698 135.224V127.864C194.698 127.085 194.847 126.477 195.146 126.04C195.455 125.592 195.855 125.277 196.346 125.096C196.847 124.904 197.397 124.808 197.994 124.808C198.314 124.808 198.602 124.829 198.858 124.872C199.125 124.915 199.311 124.957 199.418 125V126.264C199.375 126.243 199.306 126.221 199.21 126.2C199.114 126.179 199.007 126.157 198.89 126.136C198.783 126.115 198.666 126.104 198.538 126.104C198.325 126.104 198.138 126.147 197.978 126.232C197.829 126.307 197.717 126.445 197.642 126.648C197.567 126.851 197.53 127.133 197.53 127.496V135.816C197.53 135.848 197.573 135.875 197.658 135.896C197.743 135.917 197.855 135.933 197.994 135.944C198.143 135.955 198.303 135.96 198.474 135.96L198.618 135.96V137ZM208.189 132.808C208.189 133.331 208.232 133.784 208.317 134.168C208.413 134.552 208.557 134.867 208.749 135.112C208.941 135.357 209.181 135.539 209.469 135.656C209.757 135.773 210.093 135.832 210.477 135.832C210.883 135.832 211.229 135.768 211.517 135.64C211.805 135.501 212.051 135.32 212.253 135.096C212.467 134.872 212.648 134.632 212.797 134.376L213.869 135.128C213.645 135.544 213.363 135.907 213.021 136.216C212.68 136.525 212.269 136.765 211.789 136.936C211.309 137.096 210.744 137.176 210.093 137.176C209.133 137.176 208.296 137.005 207.581 136.664C206.867 136.323 206.317 135.827 205.933 135.176C205.549 134.515 205.357 133.725 205.357 132.808C205.357 131.912 205.544 131.128 205.917 130.456C206.291 129.784 206.813 129.267 207.485 128.904C208.157 128.531 208.931 128.344 209.805 128.344C210.509 128.344 211.117 128.451 211.629 128.664C212.152 128.867 212.584 129.171 212.925 129.576C213.277 129.981 213.539 130.493 213.709 131.112C213.891 131.731 213.981 132.445 213.981 133.256L207.645 133.256V132.104L211.693 132.104L211.341 132.568C211.331 131.992 211.293 131.512 211.229 131.128C211.176 130.744 211.091 130.445 210.973 130.232C210.856 130.008 210.707 129.853 210.525 129.768C210.344 129.672 210.12 129.624 209.853 129.624C209.597 129.624 209.368 129.683 209.165 129.8C208.963 129.907 208.787 130.088 208.637 130.344C208.488 130.589 208.376 130.915 208.301 131.32C208.227 131.725 208.189 132.221 208.189 132.808ZM224.323 135.352C224.323 135.523 224.393 135.64 224.531 135.704C224.681 135.757 224.889 135.805 225.155 135.848L225.251 135.88V137L221.747 137L221.603 135.064L221.475 135.208V126.696C221.475 126.579 221.443 126.493 221.379 126.44C221.315 126.376 221.219 126.323 221.091 126.28C220.974 126.237 220.825 126.195 220.643 126.152L220.499 126.12V125L224.323 125V135.352ZM218.963 128.344C219.465 128.344 219.907 128.435 220.291 128.616C220.675 128.787 221.011 129.043 221.299 129.384C221.598 129.715 221.849 130.125 222.051 130.616V131.96C221.785 131.48 221.534 131.091 221.299 130.792C221.075 130.483 220.841 130.253 220.595 130.104C220.35 129.944 220.067 129.864 219.747 129.864C219.449 129.864 219.193 129.933 218.979 130.072C218.766 130.2 218.585 130.392 218.435 130.648C218.297 130.893 218.195 131.203 218.131 131.576C218.067 131.949 218.035 132.376 218.035 132.856C218.035 133.315 218.062 133.72 218.115 134.072C218.179 134.424 218.275 134.717 218.403 134.952C218.531 135.187 218.697 135.363 218.899 135.48C219.102 135.597 219.342 135.656 219.619 135.656C219.939 135.656 220.222 135.576 220.467 135.416C220.723 135.256 220.974 135.011 221.219 134.68C221.475 134.339 221.753 133.896 222.051 133.352V134.696C221.795 135.229 221.518 135.683 221.219 136.056C220.921 136.419 220.579 136.696 220.195 136.888C219.811 137.08 219.353 137.176 218.819 137.176C218.041 137.176 217.374 136.995 216.819 136.632C216.265 136.269 215.838 135.763 215.539 135.112C215.251 134.461 215.107 133.709 215.107 132.856C215.107 131.981 215.262 131.208 215.571 130.536C215.891 129.853 216.339 129.32 216.915 128.936C217.502 128.541 218.185 128.344 218.963 128.344ZM232.456 127.384C231.965 127.384 231.576 127.272 231.288 127.048C231 126.813 230.856 126.477 230.856 126.04C230.856 125.603 231 125.272 231.288 125.048C231.576 124.813 231.965 124.696 232.456 124.696C232.946 124.696 233.336 124.813 233.624 125.048C233.912 125.272 234.056 125.603 234.056 126.04C234.056 126.477 233.912 126.813 233.624 127.048C233.336 127.272 232.946 127.384 232.456 127.384ZM233.96 128.504V135.288C233.96 135.544 234.04 135.72 234.2 135.816C234.37 135.912 234.589 135.96 234.856 135.96L234.888 135.96V137L230.184 137V135.96L230.215 135.96C230.482 135.96 230.696 135.912 230.856 135.816C231.026 135.72 231.112 135.544 231.112 135.288V130.216C231.112 130.045 231.048 129.928 230.92 129.864C230.792 129.8 230.589 129.741 230.312 129.688L230.184 129.656V128.504L233.96 128.504ZM235.715 137V135.96L235.731 135.96C235.923 135.96 236.083 135.939 236.211 135.896C236.349 135.853 236.451 135.784 236.515 135.688C236.589 135.581 236.627 135.437 236.627 135.256V130.216C236.627 130.099 236.6 130.013 236.547 129.96C236.493 129.896 236.408 129.848 236.291 129.816C236.173 129.773 236.024 129.731 235.843 129.688L235.715 129.656V128.504L239.219 128.504L239.347 130.408L239.475 130.44V135.816C239.475 135.848 239.517 135.875 239.603 135.896C239.688 135.917 239.789 135.933 239.907 135.944C240.024 135.955 240.131 135.96 240.227 135.96L240.291 135.96V137L235.715 137ZM245.987 137L241.411 137V135.96L241.459 135.96C241.555 135.96 241.661 135.955 241.779 135.944C241.907 135.933 242.008 135.917 242.083 135.896C242.168 135.875 242.211 135.848 242.211 135.816V131.08C242.211 130.824 242.179 130.616 242.115 130.456C242.061 130.296 241.965 130.179 241.827 130.104C241.699 130.019 241.523 129.976 241.299 129.976C241.032 129.976 240.776 130.045 240.531 130.184C240.285 130.323 240.045 130.536 239.811 130.824C239.576 131.101 239.341 131.459 239.107 131.896L239.123 130.536C239.357 130.088 239.635 129.699 239.955 129.368C240.285 129.037 240.659 128.787 241.075 128.616C241.501 128.435 241.949 128.344 242.419 128.344C242.973 128.344 243.448 128.445 243.843 128.648C244.237 128.851 244.536 129.149 244.739 129.544C244.952 129.928 245.059 130.419 245.059 131.016V135.256C245.059 135.437 245.096 135.581 245.171 135.688C245.245 135.784 245.347 135.853 245.475 135.896C245.613 135.939 245.773 135.96 245.955 135.96L245.987 135.96V137ZM251.944 134.904C251.944 134.701 251.891 134.536 251.784 134.408C251.677 134.28 251.528 134.173 251.336 134.088C251.155 134.003 250.941 133.933 250.696 133.88C250.461 133.816 250.211 133.752 249.944 133.688C249.603 133.603 249.261 133.507 248.92 133.4C248.579 133.283 248.264 133.133 247.976 132.952C247.688 132.76 247.459 132.509 247.288 132.2C247.117 131.891 247.032 131.501 247.032 131.032C247.032 130.424 247.187 129.923 247.496 129.528C247.805 129.123 248.243 128.819 248.808 128.616C249.373 128.413 250.029 128.312 250.776 128.312C251.395 128.312 251.923 128.355 252.36 128.44C252.808 128.525 253.171 128.621 253.448 128.728C253.725 128.824 253.917 128.904 254.024 128.968V130.84L252.008 130.84V129.352C252.168 129.331 252.291 129.341 252.376 129.384C252.472 129.427 252.531 129.485 252.552 129.56C252.584 129.635 252.595 129.715 252.584 129.8C252.573 129.885 252.552 129.971 252.52 130.056C252.392 129.939 252.243 129.843 252.072 129.768C251.901 129.693 251.709 129.64 251.496 129.608C251.283 129.565 251.048 129.544 250.792 129.544C250.344 129.544 250.008 129.619 249.784 129.768C249.56 129.917 249.448 130.136 249.448 130.424C249.448 130.627 249.501 130.792 249.608 130.92C249.715 131.037 249.864 131.139 250.056 131.224C250.248 131.309 250.467 131.384 250.712 131.448C250.968 131.512 251.24 131.576 251.528 131.64C251.88 131.736 252.232 131.843 252.584 131.96C252.947 132.067 253.272 132.221 253.56 132.424C253.859 132.616 254.093 132.861 254.264 133.16C254.445 133.459 254.536 133.837 254.536 134.296C254.536 134.925 254.381 135.453 254.072 135.88C253.773 136.307 253.32 136.632 252.712 136.856C252.104 137.069 251.347 137.176 250.44 137.176C249.843 137.176 249.304 137.133 248.824 137.048C248.355 136.973 247.949 136.872 247.608 136.744C247.277 136.616 247.021 136.499 246.84 136.392V134.376L248.888 134.376V136.36C248.696 136.285 248.541 136.195 248.424 136.088C248.317 135.971 248.243 135.859 248.2 135.752C248.168 135.645 248.168 135.555 248.2 135.48C248.232 135.405 248.291 135.368 248.376 135.368C248.525 135.485 248.701 135.592 248.904 135.688C249.107 135.773 249.336 135.843 249.592 135.896C249.859 135.939 250.147 135.96 250.456 135.96C250.787 135.96 251.059 135.923 251.272 135.848C251.496 135.773 251.661 135.661 251.768 135.512C251.885 135.352 251.944 135.149 251.944 134.904ZM255.097 129.752V128.584L255.193 128.584C255.46 128.584 255.684 128.568 255.865 128.536C256.057 128.493 256.201 128.413 256.297 128.296C256.404 128.168 256.457 127.987 256.457 127.752L258.153 128.504L261.545 128.504V129.752L255.097 129.752ZM259.209 134.216C259.209 134.611 259.257 134.92 259.353 135.144C259.46 135.357 259.604 135.512 259.785 135.608C259.977 135.693 260.212 135.736 260.489 135.736C260.724 135.736 260.942 135.715 261.145 135.672C261.348 135.629 261.486 135.597 261.561 135.576V136.904C261.454 136.947 261.305 136.984 261.113 137.016C260.932 137.059 260.718 137.096 260.473 137.128C260.238 137.16 259.977 137.176 259.689 137.176C259.06 137.176 258.489 137.096 257.977 136.936C257.476 136.765 257.081 136.472 256.793 136.056C256.505 135.64 256.361 135.064 256.361 134.328V128.808L256.457 128.68V126.136L259.209 126.136V134.216ZM268.049 131.864V132.904C267.611 132.968 267.233 133.048 266.913 133.144C266.593 133.229 266.321 133.331 266.097 133.448C265.883 133.555 265.713 133.677 265.585 133.816C265.457 133.955 265.361 134.109 265.297 134.28C265.243 134.44 265.217 134.616 265.217 134.808C265.217 135.064 265.259 135.277 265.345 135.448C265.43 135.608 265.553 135.725 265.713 135.8C265.873 135.875 266.059 135.912 266.273 135.912C266.507 135.912 266.726 135.853 266.929 135.736C267.131 135.619 267.323 135.443 267.505 135.208C267.697 134.963 267.878 134.664 268.049 134.312L268.113 135.272C267.921 135.699 267.691 136.051 267.425 136.328C267.158 136.605 266.849 136.819 266.497 136.968C266.155 137.107 265.75 137.176 265.281 137.176C264.705 137.176 264.214 137.096 263.809 136.936C263.403 136.765 263.094 136.515 262.881 136.184C262.678 135.853 262.577 135.437 262.577 134.936C262.577 134.477 262.678 134.088 262.881 133.768C263.094 133.437 263.425 133.155 263.873 132.92C264.321 132.685 264.886 132.483 265.569 132.312C266.262 132.141 267.089 131.992 268.049 131.864ZM268.049 137L267.921 135.304L267.777 135.32V130.776C267.777 130.509 267.734 130.291 267.649 130.12C267.574 129.949 267.446 129.827 267.265 129.752C267.083 129.667 266.838 129.624 266.529 129.624C266.07 129.624 265.691 129.699 265.393 129.848C265.094 129.987 264.881 130.152 264.753 130.344C264.667 130.269 264.619 130.189 264.609 130.104C264.598 130.008 264.619 129.917 264.673 129.832C264.737 129.747 264.827 129.672 264.945 129.608C265.062 129.544 265.206 129.507 265.377 129.496V131.288L263.105 131.288V129.368C263.265 129.251 263.505 129.112 263.825 128.952C264.155 128.792 264.566 128.653 265.057 128.536C265.558 128.408 266.139 128.344 266.801 128.344C267.366 128.344 267.878 128.397 268.337 128.504C268.806 128.611 269.206 128.776 269.537 129C269.867 129.224 270.118 129.512 270.289 129.864C270.47 130.205 270.561 130.616 270.561 131.096V135.352C270.561 135.469 270.593 135.56 270.657 135.624C270.721 135.677 270.811 135.725 270.929 135.768C271.057 135.8 271.211 135.827 271.393 135.848L271.489 135.88V137L268.049 137ZM272.262 137V135.96L272.278 135.96C272.47 135.96 272.63 135.939 272.758 135.896C272.896 135.853 272.998 135.784 273.062 135.688C273.136 135.581 273.174 135.437 273.174 135.256V130.216C273.174 130.099 273.147 130.013 273.094 129.96C273.04 129.896 272.955 129.848 272.838 129.816C272.72 129.773 272.571 129.731 272.39 129.688L272.262 129.656V128.504L275.766 128.504L275.894 130.408L276.022 130.44V135.816C276.022 135.848 276.064 135.875 276.15 135.896C276.235 135.917 276.336 135.933 276.454 135.944C276.571 135.955 276.678 135.96 276.774 135.96L276.838 135.96V137L272.262 137ZM282.534 137L277.958 137V135.96L278.006 135.96C278.102 135.96 278.208 135.955 278.326 135.944C278.454 135.933 278.555 135.917 278.63 135.896C278.715 135.875 278.758 135.848 278.758 135.816V131.08C278.758 130.824 278.726 130.616 278.662 130.456C278.608 130.296 278.512 130.179 278.374 130.104C278.246 130.019 278.07 129.976 277.846 129.976C277.579 129.976 277.323 130.045 277.078 130.184C276.832 130.323 276.592 130.536 276.358 130.824C276.123 131.101 275.888 131.459 275.654 131.896L275.67 130.536C275.904 130.088 276.182 129.699 276.502 129.368C276.832 129.037 277.206 128.787 277.622 128.616C278.048 128.435 278.496 128.344 278.966 128.344C279.52 128.344 279.995 128.445 280.39 128.648C280.784 128.851 281.083 129.149 281.286 129.544C281.499 129.928 281.606 130.419 281.606 131.016V135.256C281.606 135.437 281.643 135.581 281.718 135.688C281.792 135.784 281.894 135.853 282.022 135.896C282.16 135.939 282.32 135.96 282.502 135.96L282.534 135.96V137ZM283.019 129.752V128.584L283.115 128.584C283.382 128.584 283.606 128.568 283.787 128.536C283.979 128.493 284.123 128.413 284.219 128.296C284.326 128.168 284.379 127.987 284.379 127.752L286.075 128.504L289.467 128.504V129.752L283.019 129.752ZM287.131 134.216C287.131 134.611 287.179 134.92 287.275 135.144C287.382 135.357 287.526 135.512 287.707 135.608C287.899 135.693 288.134 135.736 288.411 135.736C288.646 135.736 288.864 135.715 289.067 135.672C289.27 135.629 289.408 135.597 289.483 135.576V136.904C289.376 136.947 289.227 136.984 289.035 137.016C288.854 137.059 288.64 137.096 288.395 137.128C288.16 137.16 287.899 137.176 287.611 137.176C286.982 137.176 286.411 137.096 285.899 136.936C285.398 136.765 285.003 136.472 284.715 136.056C284.427 135.64 284.283 135.064 284.283 134.328V128.808L284.379 128.68V126.136L287.131 126.136V134.216ZM294.162 125V135.288C294.162 135.544 294.242 135.72 294.402 135.816C294.573 135.912 294.792 135.96 295.058 135.96L295.106 135.96V137L290.402 137V135.96L290.434 135.96C290.701 135.96 290.914 135.912 291.074 135.816C291.245 135.72 291.33 135.544 291.33 135.288V126.696C291.33 126.579 291.298 126.493 291.234 126.44C291.181 126.376 291.096 126.323 290.978 126.28C290.861 126.237 290.712 126.195 290.53 126.152L290.386 126.12V125L294.162 125ZM301.646 135.304L300.878 136.68L300.014 137.832L296.654 130.248C296.58 130.077 296.5 129.949 296.414 129.864C296.34 129.779 296.244 129.72 296.126 129.688C296.009 129.645 295.86 129.624 295.678 129.624L295.614 129.624V128.504L300.462 128.504V129.608L300.398 129.608C300.228 129.608 300.062 129.613 299.902 129.624C299.742 129.635 299.609 129.651 299.502 129.672C299.406 129.683 299.358 129.704 299.358 129.736L301.646 135.304ZM301.63 136.712C301.31 137.448 300.996 138.072 300.686 138.584C300.388 139.107 300.078 139.528 299.758 139.848C299.449 140.179 299.108 140.419 298.734 140.568C298.372 140.717 297.966 140.792 297.518 140.792C297.177 140.792 296.873 140.755 296.606 140.68C296.35 140.616 296.158 140.541 296.03 140.456V138.456C296.073 138.467 296.174 138.504 296.334 138.568C296.505 138.632 296.713 138.691 296.958 138.744C297.204 138.797 297.465 138.824 297.742 138.824C298.02 138.824 298.27 138.787 298.494 138.712C298.729 138.648 298.948 138.525 299.15 138.344C299.353 138.173 299.545 137.933 299.726 137.624C299.918 137.315 300.1 136.925 300.27 136.456L300.686 135.752L303.166 129.944C303.166 129.88 303.118 129.827 303.022 129.784C302.937 129.731 302.814 129.688 302.654 129.656C302.505 129.624 302.345 129.608 302.174 129.608L302.11 129.608V128.504L305.47 128.504V129.624L305.39 129.624C305.241 129.624 305.108 129.651 304.99 129.704C304.873 129.747 304.761 129.827 304.654 129.944C304.558 130.051 304.468 130.2 304.382 130.392L301.63 136.712Z" fill="#2C3667"/>
<g filter="url(#filter0_d_15188_20492)">
<path d="M103.875 184C103.875 179.858 107.233 176.5 111.375 176.5H313.375C317.517 176.5 320.875 179.858 320.875 184V243.5H103.875V184Z" fill="white" stroke="#AFB7DC"/>
<path d="M125.727 217.224C125.727 217.405 125.802 217.544 125.951 217.64C126.1 217.736 126.303 217.805 126.559 217.848C126.826 217.88 127.13 217.896 127.471 217.896H127.903V219H120.591V217.896H121.231C121.562 217.896 121.855 217.88 122.111 217.848C122.367 217.805 122.564 217.736 122.703 217.64C122.852 217.544 122.927 217.405 122.927 217.224V210.264L123.231 210.12C123.135 210.44 122.996 210.712 122.815 210.936C122.644 211.16 122.431 211.341 122.175 211.48C121.93 211.608 121.647 211.699 121.327 211.752C121.007 211.805 120.655 211.832 120.271 211.832V210.168C120.708 210.168 121.092 210.141 121.423 210.088C121.754 210.024 122.042 209.944 122.287 209.848C122.543 209.741 122.762 209.613 122.943 209.464C123.135 209.304 123.3 209.117 123.439 208.904H125.727V217.224ZM133.448 217.032C133.864 217.032 134.2 217.021 134.456 217C134.712 216.968 134.899 216.909 135.016 216.824C135.144 216.728 135.224 216.589 135.256 216.408L135.384 215.384H136.632V219H128.872V216.696C129.437 216.344 129.96 216.019 130.44 215.72C130.931 215.421 131.373 215.128 131.768 214.84C132.163 214.541 132.499 214.237 132.776 213.928C133.064 213.608 133.283 213.261 133.432 212.888C133.581 212.504 133.656 212.077 133.656 211.608C133.656 211.224 133.603 210.92 133.496 210.696C133.4 210.461 133.251 210.291 133.048 210.184C132.856 210.077 132.605 210.024 132.296 210.024C132.029 210.024 131.784 210.067 131.56 210.152C131.336 210.227 131.139 210.328 130.968 210.456C130.797 210.584 130.653 210.723 130.536 210.872C130.525 210.797 130.531 210.717 130.552 210.632C130.573 210.536 130.611 210.44 130.664 210.344C130.728 210.248 130.803 210.168 130.888 210.104C130.973 210.04 131.069 210.008 131.176 210.008V212.12H129.016V209.976C129.219 209.784 129.491 209.592 129.832 209.4C130.184 209.208 130.595 209.048 131.064 208.92C131.544 208.792 132.072 208.728 132.648 208.728C133.469 208.728 134.157 208.845 134.712 209.08C135.267 209.304 135.683 209.635 135.96 210.072C136.237 210.499 136.376 211.021 136.376 211.64C136.376 212.173 136.248 212.669 135.992 213.128C135.747 213.576 135.405 213.997 134.968 214.392C134.541 214.776 134.051 215.139 133.496 215.48C132.941 215.821 132.355 216.147 131.736 216.456C131.117 216.765 130.499 217.069 129.88 217.368C129.816 217.379 129.763 217.368 129.72 217.336C129.688 217.293 129.672 217.245 129.672 217.192C129.683 217.128 129.704 217.075 129.736 217.032H133.448ZM141.521 220.264C140.775 220.264 140.14 220.157 139.617 219.944C139.105 219.741 138.684 219.453 138.353 219.08C138.023 218.707 137.756 218.275 137.553 217.784L138.849 217.048C138.967 217.336 139.121 217.624 139.313 217.912C139.505 218.2 139.751 218.44 140.049 218.632C140.359 218.824 140.743 218.92 141.201 218.92C141.607 218.92 141.943 218.829 142.209 218.648C142.476 218.456 142.679 218.168 142.817 217.784C142.956 217.4 143.025 216.915 143.025 216.328C143.025 215.827 142.961 215.416 142.833 215.096C142.716 214.765 142.54 214.52 142.305 214.36C142.071 214.2 141.777 214.12 141.425 214.12C141.148 214.12 140.903 214.168 140.689 214.264C140.487 214.349 140.305 214.477 140.145 214.648C139.996 214.819 139.857 215.037 139.729 215.304H138.481V208.904H144.961L144.641 210.92H139.537L139.873 209.224V214.328C139.852 214.392 139.809 214.445 139.745 214.488C139.692 214.52 139.639 214.536 139.585 214.536C139.532 214.536 139.495 214.509 139.473 214.456C139.655 214.125 139.863 213.843 140.097 213.608C140.343 213.363 140.641 213.171 140.993 213.032C141.356 212.893 141.788 212.824 142.289 212.824C143.015 212.824 143.633 212.973 144.145 213.272C144.657 213.571 145.047 213.987 145.313 214.52C145.58 215.043 145.713 215.651 145.713 216.344C145.713 217.165 145.543 217.869 145.201 218.456C144.871 219.043 144.391 219.491 143.761 219.8C143.143 220.109 142.396 220.264 141.521 220.264ZM150.714 219.176C150.106 219.176 149.552 219.064 149.05 218.84C148.56 218.605 148.133 218.269 147.77 217.832C147.408 217.384 147.125 216.835 146.922 216.184C146.73 215.533 146.634 214.787 146.634 213.944C146.634 213.112 146.73 212.371 146.922 211.72C147.125 211.069 147.408 210.525 147.77 210.088C148.133 209.64 148.56 209.304 149.05 209.08C149.552 208.845 150.106 208.728 150.714 208.728C151.322 208.728 151.872 208.845 152.362 209.08C152.864 209.304 153.296 209.64 153.658 210.088C154.021 210.525 154.298 211.069 154.49 211.72C154.693 212.371 154.794 213.112 154.794 213.944C154.794 214.787 154.693 215.533 154.49 216.184C154.298 216.835 154.021 217.384 153.658 217.832C153.296 218.269 152.864 218.605 152.362 218.84C151.872 219.064 151.322 219.176 150.714 219.176ZM150.714 217.896C150.949 217.896 151.152 217.832 151.322 217.704C151.493 217.565 151.632 217.347 151.738 217.048C151.856 216.749 151.941 216.349 151.994 215.848C152.048 215.336 152.074 214.701 152.074 213.944C152.074 213.197 152.048 212.573 151.994 212.072C151.941 211.56 151.856 211.155 151.738 210.856C151.632 210.557 151.493 210.344 151.322 210.216C151.152 210.077 150.949 210.008 150.714 210.008C150.48 210.008 150.277 210.077 150.106 210.216C149.936 210.344 149.792 210.557 149.674 210.856C149.568 211.155 149.488 211.56 149.434 212.072C149.381 212.573 149.354 213.197 149.354 213.944C149.354 214.701 149.381 215.336 149.434 215.848C149.488 216.349 149.568 216.749 149.674 217.048C149.792 217.347 149.936 217.565 150.106 217.704C150.277 217.832 150.48 217.896 150.714 217.896ZM157.908 219.224C157.385 219.224 156.969 219.085 156.66 218.808C156.35 218.52 156.196 218.136 156.196 217.656C156.196 217.165 156.35 216.781 156.66 216.504C156.969 216.216 157.385 216.072 157.908 216.072C158.441 216.072 158.862 216.216 159.172 216.504C159.481 216.781 159.636 217.165 159.636 217.656C159.636 218.136 159.481 218.52 159.172 218.808C158.862 219.085 158.441 219.224 157.908 219.224ZM164.881 220.264C164.134 220.264 163.499 220.157 162.977 219.944C162.465 219.741 162.043 219.453 161.713 219.08C161.382 218.707 161.115 218.275 160.913 217.784L162.209 217.048C162.326 217.336 162.481 217.624 162.673 217.912C162.865 218.2 163.11 218.44 163.409 218.632C163.718 218.824 164.102 218.92 164.561 218.92C164.966 218.92 165.302 218.829 165.569 218.648C165.835 218.456 166.038 218.168 166.177 217.784C166.315 217.4 166.385 216.915 166.385 216.328C166.385 215.827 166.321 215.416 166.193 215.096C166.075 214.765 165.899 214.52 165.665 214.36C165.43 214.2 165.137 214.12 164.785 214.12C164.507 214.12 164.262 214.168 164.049 214.264C163.846 214.349 163.665 214.477 163.505 214.648C163.355 214.819 163.217 215.037 163.089 215.304H161.841V208.904H168.321L168.001 210.92H162.897L163.233 209.224V214.328C163.211 214.392 163.169 214.445 163.105 214.488C163.051 214.52 162.998 214.536 162.945 214.536C162.891 214.536 162.854 214.509 162.833 214.456C163.014 214.125 163.222 213.843 163.457 213.608C163.702 213.363 164.001 213.171 164.353 213.032C164.715 212.893 165.147 212.824 165.649 212.824C166.374 212.824 166.993 212.973 167.505 213.272C168.017 213.571 168.406 213.987 168.673 214.52C168.939 215.043 169.073 215.651 169.073 216.344C169.073 217.165 168.902 217.869 168.561 218.456C168.23 219.043 167.75 219.491 167.121 219.8C166.502 220.109 165.755 220.264 164.881 220.264ZM173.706 214.088C174.495 214.099 175.167 214.173 175.722 214.312C176.287 214.44 176.74 214.632 177.082 214.888C177.434 215.133 177.69 215.432 177.85 215.784C178.02 216.136 178.106 216.531 178.106 216.968C178.106 217.693 177.919 218.301 177.546 218.792C177.183 219.283 176.687 219.651 176.058 219.896C175.428 220.141 174.714 220.264 173.914 220.264C173.114 220.264 172.447 220.152 171.914 219.928C171.38 219.704 170.954 219.395 170.634 219C170.314 218.616 170.058 218.184 169.866 217.704L171.098 216.968C171.194 217.181 171.306 217.405 171.434 217.64C171.572 217.864 171.738 218.077 171.93 218.28C172.122 218.472 172.351 218.632 172.618 218.76C172.895 218.877 173.215 218.936 173.578 218.936C173.983 218.936 174.319 218.867 174.586 218.728C174.863 218.589 175.071 218.371 175.21 218.072C175.359 217.773 175.434 217.384 175.434 216.904C175.434 216.488 175.37 216.131 175.242 215.832C175.124 215.523 174.911 215.288 174.602 215.128C174.292 214.957 173.855 214.872 173.29 214.872H172.202V213.592H173.098C173.578 213.592 173.972 213.523 174.282 213.384C174.591 213.235 174.82 213.011 174.97 212.712C175.13 212.403 175.21 212.008 175.21 211.528C175.21 211.155 175.151 210.861 175.034 210.648C174.927 210.424 174.772 210.264 174.57 210.168C174.367 210.061 174.116 210.008 173.818 210.008C173.391 210.008 173.034 210.088 172.746 210.248C172.468 210.408 172.255 210.589 172.106 210.792C172.095 210.728 172.095 210.653 172.106 210.568C172.116 210.483 172.143 210.397 172.186 210.312C172.228 210.227 172.287 210.157 172.362 210.104C172.436 210.04 172.532 210.003 172.65 209.992V211.88H170.522V209.928C170.735 209.725 171.012 209.533 171.354 209.352C171.695 209.171 172.095 209.021 172.554 208.904C173.023 208.787 173.54 208.728 174.106 208.728C174.831 208.728 175.466 208.829 176.01 209.032C176.564 209.224 176.996 209.517 177.306 209.912C177.626 210.307 177.786 210.808 177.786 211.416C177.786 212.056 177.588 212.584 177.194 213C176.81 213.416 176.292 213.731 175.642 213.944C174.991 214.147 174.271 214.259 173.482 214.28L174.33 213.88V214.472L173.706 214.088Z" fill="#475385"/>
<path d="M103.875 243.5H320.875V303C320.875 307.142 317.517 310.5 313.375 310.5H111.375C107.233 310.5 103.875 307.142 103.875 303V243.5Z" fill="white" stroke="#AFB7DC"/>
<g clip-path="url(#clip0_15188_20492)">
<g clip-path="url(#clip1_15188_20492)">
<mask id="mask0_15188_20492" style="mask-type:luminance" maskUnits="userSpaceOnUse" x="277" y="269" width="33" height="24">
<rect x="277.375" y="269" width="32" height="24" fill="white"/>
</mask>
<g mask="url(#mask0_15188_20492)">
<path fill-rule="evenodd" clip-rule="evenodd" d="M277.375 269V293H309.375V269H277.375Z" fill="#2E42A5"/>
<mask id="mask1_15188_20492" style="mask-type:luminance" maskUnits="userSpaceOnUse" x="277" y="269" width="33" height="24">
<path fill-rule="evenodd" clip-rule="evenodd" d="M277.375 269V293H309.375V269H277.375Z" fill="white"/>
</mask>
<g mask="url(#mask1_15188_20492)">
<mask id="mask2_15188_20492" style="mask-type:luminance" maskUnits="userSpaceOnUse" x="277" y="269" width="33" height="24">
<rect x="277.375" y="269" width="32" height="24" fill="white"/>
</mask>
<g mask="url(#mask2_15188_20492)">
<path d="M273.812 291.285L280.853 294.263L309.534 272.238L313.249 267.812L305.719 266.817L294.02 276.308L284.604 282.703L273.812 291.285Z" fill="white"/>
<path d="M274.775 293.372L278.363 295.1L311.915 267.401H306.878L274.775 293.372Z" fill="#F50100"/>
<path d="M312.938 291.285L305.897 294.263L277.216 272.238L273.501 267.812L281.031 266.817L292.73 276.308L302.146 282.703L312.938 291.285Z" fill="white"/>
<path d="M312.698 292.783L309.111 294.511L294.824 282.651L290.588 281.326L273.144 267.827H278.181L295.616 281.006L300.247 282.595L312.698 292.783Z" fill="#F50100"/>
<mask id="path-17-inside-1_15188_20492" fill="white">
<path fill-rule="evenodd" clip-rule="evenodd" d="M297.153 267H289.597V277H275.402V285H289.597V295H297.153V285H311.402V277H297.153V267Z"/>
</mask>
<path fill-rule="evenodd" clip-rule="evenodd" d="M297.153 267H289.597V277H275.402V285H289.597V295H297.153V285H311.402V277H297.153V267Z" fill="#F50100"/>
<path d="M289.597 267V265H287.597V267H289.597ZM297.153 267H299.153V265H297.153V267ZM289.597 277V279H291.597V277H289.597ZM275.402 277V275H273.402V277H275.402ZM275.402 285H273.402V287H275.402V285ZM289.597 285H291.597V283H289.597V285ZM289.597 295H287.597V297H289.597V295ZM297.153 295V297H299.153V295H297.153ZM297.153 285V283H295.153V285H297.153ZM311.402 285V287H313.402V285H311.402ZM311.402 277H313.402V275H311.402V277ZM297.153 277H295.153V279H297.153V277ZM289.597 269H297.153V265H289.597V269ZM291.597 277V267H287.597V277H291.597ZM275.402 279H289.597V275H275.402V279ZM277.402 285V277H273.402V285H277.402ZM289.597 283H275.402V287H289.597V283ZM291.597 295V285H287.597V295H291.597ZM297.153 293H289.597V297H297.153V293ZM295.153 285V295H299.153V285H295.153ZM311.402 283H297.153V287H311.402V283ZM309.402 277V285H313.402V277H309.402ZM297.153 279H311.402V275H297.153V279ZM295.153 267V277H299.153V267H295.153Z" fill="white" mask="url(#path-17-inside-1_15188_20492)"/>
</g>
</g>
</g>
<rect x="277.375" y="269" width="32" height="24" fill="url(#paint0_linear_15188_20492)" style="mix-blend-mode:overlay"/>
</g>
</g>
<g clip-path="url(#clip2_15188_20492)">
<g clip-path="url(#clip3_15188_20492)">
<mask id="mask3_15188_20492" style="mask-type:luminance" maskUnits="userSpaceOnUse" x="277" y="194" width="33" height="24">
<rect x="277.375" y="194" width="32" height="24" fill="white"/>
</mask>
<g mask="url(#mask3_15188_20492)">
<path fill-rule="evenodd" clip-rule="evenodd" d="M277.375 194H309.375V218H277.375V194Z" fill="#F7FCFF"/>
<path fill-rule="evenodd" clip-rule="evenodd" d="M277.375 208.667V210.667H309.375V208.667H277.375Z" fill="#E31D1C"/>
<path fill-rule="evenodd" clip-rule="evenodd" d="M277.375 212.333V214.333H309.375V212.333H277.375Z" fill="#E31D1C"/>
<path fill-rule="evenodd" clip-rule="evenodd" d="M277.375 201.333V203.333H309.375V201.333H277.375Z" fill="#E31D1C"/>
<path fill-rule="evenodd" clip-rule="evenodd" d="M277.375 216V218H309.375V216H277.375Z" fill="#E31D1C"/>
<path fill-rule="evenodd" clip-rule="evenodd" d="M277.375 205V207H309.375V205H277.375Z" fill="#E31D1C"/>
<path fill-rule="evenodd" clip-rule="evenodd" d="M277.375 194V196H309.375V194H277.375Z" fill="#E31D1C"/>
<path fill-rule="evenodd" clip-rule="evenodd" d="M277.375 197.667V199.667H309.375V197.667H277.375Z" fill="#E31D1C"/>
<rect x="277.375" y="194" width="20" height="13" fill="#2E42A5"/>
<path fill-rule="evenodd" clip-rule="evenodd" d="M279.097 196.939L278.371 197.448L278.616 196.542L277.972 195.968H278.814L279.096 195.229L279.427 195.968H280.145L279.581 196.542L279.8 197.448L279.097 196.939ZM283.097 196.939L282.371 197.448L282.616 196.542L281.972 195.968H282.814L283.096 195.229L283.427 195.968H284.145L283.581 196.542L283.8 197.448L283.097 196.939ZM286.371 197.448L287.097 196.939L287.8 197.448L287.581 196.542L288.145 195.968H287.427L287.096 195.229L286.814 195.968H285.972L286.616 196.542L286.371 197.448ZM291.097 196.939L290.371 197.448L290.616 196.542L289.972 195.968H290.814L291.096 195.229L291.427 195.968H292.145L291.581 196.542L291.8 197.448L291.097 196.939ZM278.371 201.448L279.097 200.939L279.8 201.448L279.581 200.542L280.145 199.968H279.427L279.096 199.229L278.814 199.968H277.972L278.616 200.542L278.371 201.448ZM283.097 200.939L282.371 201.448L282.616 200.542L281.972 199.968H282.814L283.096 199.229L283.427 199.968H284.145L283.581 200.542L283.8 201.448L283.097 200.939ZM286.371 201.448L287.097 200.939L287.8 201.448L287.581 200.542L288.145 199.968H287.427L287.096 199.229L286.814 199.968H285.972L286.616 200.542L286.371 201.448ZM291.097 200.939L290.371 201.448L290.616 200.542L289.972 199.968H290.814L291.096 199.229L291.427 199.968H292.145L291.581 200.542L291.8 201.448L291.097 200.939ZM278.371 205.448L279.097 204.939L279.8 205.448L279.581 204.542L280.145 203.968H279.427L279.096 203.229L278.814 203.968H277.972L278.616 204.542L278.371 205.448ZM283.097 204.939L282.371 205.448L282.616 204.542L281.972 203.968H282.814L283.096 203.229L283.427 203.968H284.145L283.581 204.542L283.8 205.448L283.097 204.939ZM286.371 205.448L287.097 204.939L287.8 205.448L287.581 204.542L288.145 203.968H287.427L287.096 203.229L286.814 203.968H285.972L286.616 204.542L286.371 205.448ZM291.097 204.939L290.371 205.448L290.616 204.542L289.972 203.968H290.814L291.096 203.229L291.427 203.968H292.145L291.581 204.542L291.8 205.448L291.097 204.939ZM294.371 197.448L295.097 196.939L295.8 197.448L295.581 196.542L296.145 195.968H295.427L295.096 195.229L294.814 195.968H293.972L294.616 196.542L294.371 197.448ZM295.097 200.939L294.371 201.448L294.616 200.542L293.972 199.968H294.814L295.096 199.229L295.427 199.968H296.145L295.581 200.542L295.8 201.448L295.097 200.939ZM294.371 205.448L295.097 204.939L295.8 205.448L295.581 204.542L296.145 203.968H295.427L295.096 203.229L294.814 203.968H293.972L294.616 204.542L294.371 205.448ZM281.097 198.939L280.371 199.448L280.616 198.542L279.972 197.968H280.814L281.096 197.229L281.427 197.968H282.145L281.581 198.542L281.8 199.448L281.097 198.939ZM284.371 199.448L285.097 198.939L285.8 199.448L285.581 198.542L286.145 197.968H285.427L285.096 197.229L284.814 197.968H283.972L284.616 198.542L284.371 199.448ZM289.097 198.939L288.371 199.448L288.616 198.542L287.972 197.968H288.814L289.096 197.229L289.427 197.968H290.145L289.581 198.542L289.8 199.448L289.097 198.939ZM280.371 203.448L281.097 202.939L281.8 203.448L281.581 202.542L282.145 201.968H281.427L281.096 201.229L280.814 201.968H279.972L280.616 202.542L280.371 203.448ZM285.097 202.939L284.371 203.448L284.616 202.542L283.972 201.968H284.814L285.096 201.229L285.427 201.968H286.145L285.581 202.542L285.8 203.448L285.097 202.939ZM288.371 203.448L289.097 202.939L289.8 203.448L289.581 202.542L290.145 201.968H289.427L289.096 201.229L288.814 201.968H287.972L288.616 202.542L288.371 203.448ZM293.097 198.939L292.371 199.448L292.616 198.542L291.972 197.968H292.814L293.096 197.229L293.427 197.968H294.145L293.581 198.542L293.8 199.448L293.097 198.939ZM292.371 203.448L293.097 202.939L293.8 203.448L293.581 202.542L294.145 201.968H293.427L293.096 201.229L292.814 201.968H291.972L292.616 202.542L292.371 203.448Z" fill="#F7FCFF"/>
</g>
<rect x="277.375" y="194" width="32" height="24" fill="url(#paint1_linear_15188_20492)" style="mix-blend-mode:overlay"/>
</g>
</g>
<path d="M123.375 190.55L126.075 198H125.075L124.455 196.22H121.205L120.585 198H119.585L122.285 190.55H123.375ZM121.495 195.39H124.165L122.835 191.58L121.495 195.39ZM132.619 192.58C133.719 192.58 134.529 193.39 134.529 194.51V198H133.669V194.79C133.669 193.94 133.179 193.41 132.419 193.41C131.669 193.41 131.169 193.95 131.169 194.79V198H130.309V194.79C130.309 193.94 129.819 193.41 129.059 193.41C128.309 193.41 127.809 193.95 127.809 194.79V198H126.949V192.7H127.789V193.31C128.089 192.85 128.629 192.58 129.259 192.58C129.989 192.58 130.599 192.94 130.919 193.52C131.259 192.92 131.879 192.58 132.619 192.58ZM138.178 198.12C136.648 198.12 135.448 196.95 135.448 195.34C135.448 193.73 136.638 192.58 138.178 192.58C139.718 192.58 140.908 193.73 140.908 195.34C140.908 196.95 139.708 198.12 138.178 198.12ZM138.178 197.29C139.208 197.29 139.998 196.46 139.998 195.35C139.998 194.24 139.208 193.41 138.178 193.41C137.148 193.41 136.358 194.24 136.358 195.35C136.358 196.46 137.148 197.29 138.178 197.29ZM145.32 192.7H146.18V198H145.34V197.39C145.03 197.85 144.46 198.12 143.82 198.12C142.67 198.12 141.83 197.2 141.83 196.07V192.7H142.69V195.91C142.69 196.75 143.21 197.29 144.01 197.29C144.79 197.29 145.32 196.74 145.32 195.91V192.7ZM149.866 192.58C151.016 192.58 151.846 193.4 151.846 194.51V198H150.986V194.79C150.986 193.95 150.476 193.41 149.676 193.41C148.886 193.41 148.356 193.96 148.356 194.79V198H147.496V192.7H148.336V193.31C148.646 192.85 149.216 192.58 149.866 192.58ZM155.282 198.06C154.212 198.06 153.612 197.45 153.612 196.38V193.52H152.582V192.7H152.852C153.312 192.7 153.612 192.39 153.612 191.92V190.98H154.472V192.7H155.752V193.52H154.472V196.38C154.472 196.72 154.532 197.34 155.442 197.34C155.552 197.34 155.702 197.33 155.812 197.31V198.01C155.642 198.05 155.432 198.06 155.282 198.06Z" fill="#64748B"/>
<path d="M120.639 294.224C121.375 294.139 122.031 293.973 122.607 293.728C123.183 293.472 123.663 293.115 124.047 292.656C124.442 292.197 124.735 291.621 124.927 290.928C125.13 290.235 125.231 289.403 125.231 288.432C125.231 287.739 125.199 287.168 125.135 286.72C125.082 286.272 124.991 285.925 124.863 285.68C124.746 285.424 124.596 285.243 124.415 285.136C124.244 285.029 124.047 284.976 123.823 284.976C123.599 284.976 123.402 285.024 123.231 285.12C123.071 285.216 122.938 285.365 122.831 285.568C122.724 285.76 122.644 286.011 122.591 286.32C122.548 286.629 122.527 286.997 122.527 287.424C122.527 287.904 122.564 288.315 122.639 288.656C122.714 288.997 122.836 289.259 123.007 289.44C123.188 289.611 123.439 289.696 123.759 289.696C124.047 289.696 124.298 289.632 124.511 289.504C124.735 289.365 124.938 289.173 125.119 288.928C125.311 288.672 125.492 288.363 125.663 288L125.759 288.88C125.62 289.243 125.434 289.584 125.199 289.904C124.964 290.213 124.666 290.464 124.303 290.656C123.94 290.848 123.498 290.944 122.975 290.944C122.346 290.944 121.791 290.811 121.311 290.544C120.831 290.277 120.458 289.888 120.191 289.376C119.935 288.864 119.807 288.235 119.807 287.488C119.807 286.688 119.967 286.011 120.287 285.456C120.618 284.891 121.082 284.464 121.679 284.176C122.276 283.877 122.975 283.728 123.775 283.728C124.639 283.728 125.38 283.893 125.999 284.224C126.618 284.544 127.092 285.061 127.423 285.776C127.754 286.48 127.919 287.397 127.919 288.528C127.919 289.541 127.759 290.453 127.439 291.264C127.119 292.075 126.655 292.779 126.047 293.376C125.439 293.963 124.698 294.432 123.823 294.784C122.948 295.147 121.951 295.387 120.831 295.504L120.639 294.224ZM132.568 295.264C131.821 295.264 131.187 295.157 130.664 294.944C130.152 294.741 129.731 294.453 129.4 294.08C129.069 293.707 128.803 293.275 128.6 292.784L129.896 292.048C130.013 292.336 130.168 292.624 130.36 292.912C130.552 293.2 130.797 293.44 131.096 293.632C131.405 293.824 131.789 293.92 132.248 293.92C132.653 293.92 132.989 293.829 133.256 293.648C133.523 293.456 133.725 293.168 133.864 292.784C134.003 292.4 134.072 291.915 134.072 291.328C134.072 290.827 134.008 290.416 133.88 290.096C133.763 289.765 133.587 289.52 133.352 289.36C133.117 289.2 132.824 289.12 132.472 289.12C132.195 289.12 131.949 289.168 131.736 289.264C131.533 289.349 131.352 289.477 131.192 289.648C131.043 289.819 130.904 290.037 130.776 290.304H129.528V283.904H136.008L135.688 285.92H130.584L130.92 284.224V289.328C130.899 289.392 130.856 289.445 130.792 289.488C130.739 289.52 130.685 289.536 130.632 289.536C130.579 289.536 130.541 289.509 130.52 289.456C130.701 289.125 130.909 288.843 131.144 288.608C131.389 288.363 131.688 288.171 132.04 288.032C132.403 287.893 132.835 287.824 133.336 287.824C134.061 287.824 134.68 287.973 135.192 288.272C135.704 288.571 136.093 288.987 136.36 289.52C136.627 290.043 136.76 290.651 136.76 291.344C136.76 292.165 136.589 292.869 136.248 293.456C135.917 294.043 135.437 294.491 134.808 294.8C134.189 295.109 133.443 295.264 132.568 295.264ZM144.865 283.408C144.151 283.525 143.516 283.733 142.961 284.032C142.417 284.331 141.953 284.725 141.569 285.216C141.185 285.696 140.892 286.283 140.689 286.976C140.497 287.659 140.401 288.453 140.401 289.36C140.401 290.053 140.433 290.635 140.497 291.104C140.561 291.563 140.652 291.925 140.769 292.192C140.897 292.448 141.052 292.635 141.233 292.752C141.425 292.859 141.633 292.912 141.857 292.912C142.156 292.912 142.396 292.816 142.577 292.624C142.759 292.432 142.892 292.144 142.977 291.76C143.073 291.365 143.121 290.869 143.121 290.272C143.121 289.771 143.084 289.344 143.009 288.992C142.935 288.64 142.807 288.373 142.625 288.192C142.455 288 142.215 287.904 141.905 287.904C141.703 287.904 141.511 287.941 141.329 288.016C141.148 288.091 140.977 288.203 140.817 288.352C140.668 288.501 140.524 288.677 140.385 288.88C140.247 289.083 140.113 289.317 139.985 289.584L139.873 288.72C139.98 288.453 140.113 288.197 140.273 287.952C140.444 287.707 140.641 287.488 140.865 287.296C141.089 287.093 141.356 286.939 141.665 286.832C141.975 286.715 142.321 286.656 142.705 286.656C143.345 286.656 143.895 286.795 144.353 287.072C144.823 287.339 145.185 287.733 145.441 288.256C145.697 288.779 145.825 289.419 145.825 290.176C145.825 291.008 145.665 291.723 145.345 292.32C145.036 292.917 144.588 293.376 144.001 293.696C143.415 294.005 142.721 294.16 141.921 294.16C141.079 294.16 140.343 293.995 139.713 293.664C139.084 293.323 138.593 292.789 138.241 292.064C137.9 291.339 137.729 290.405 137.729 289.264C137.729 288.304 137.884 287.424 138.193 286.624C138.513 285.824 138.972 285.115 139.569 284.496C140.167 283.877 140.892 283.365 141.745 282.96C142.609 282.555 143.58 282.277 144.657 282.128L144.865 283.408ZM148.954 294.224C148.432 294.224 148.016 294.085 147.706 293.808C147.397 293.52 147.242 293.136 147.242 292.656C147.242 292.165 147.397 291.781 147.706 291.504C148.016 291.216 148.432 291.072 148.954 291.072C149.488 291.072 149.909 291.216 150.218 291.504C150.528 291.781 150.682 292.165 150.682 292.656C150.682 293.136 150.528 293.52 150.218 293.808C149.909 294.085 149.488 294.224 148.954 294.224ZM156.168 292.88C156.402 292.88 156.605 292.837 156.776 292.752C156.946 292.656 157.09 292.523 157.208 292.352C157.325 292.171 157.41 291.947 157.464 291.68C157.528 291.403 157.56 291.088 157.56 290.736C157.56 290.224 157.506 289.813 157.4 289.504C157.293 289.184 157.138 288.955 156.936 288.816C156.733 288.667 156.477 288.592 156.168 288.592C155.869 288.592 155.613 288.667 155.4 288.816C155.197 288.955 155.042 289.184 154.936 289.504C154.829 289.813 154.776 290.224 154.776 290.736C154.776 291.088 154.802 291.403 154.856 291.68C154.92 291.947 155.01 292.171 155.128 292.352C155.245 292.523 155.389 292.656 155.56 292.752C155.741 292.837 155.944 292.88 156.168 292.88ZM156.168 287.344C156.424 287.344 156.637 287.285 156.808 287.168C156.978 287.04 157.106 286.843 157.192 286.576C157.288 286.309 157.336 285.963 157.336 285.536C157.336 285.109 157.288 284.768 157.192 284.512C157.106 284.245 156.978 284.048 156.808 283.92C156.637 283.792 156.424 283.728 156.168 283.728C155.922 283.728 155.709 283.792 155.528 283.92C155.357 284.048 155.224 284.245 155.128 284.512C155.042 284.768 155 285.109 155 285.536C155 285.963 155.042 286.309 155.128 286.576C155.224 286.843 155.357 287.04 155.528 287.168C155.709 287.285 155.922 287.344 156.168 287.344ZM156.168 282.448C156.925 282.448 157.576 282.565 158.12 282.8C158.674 283.035 159.096 283.371 159.384 283.808C159.682 284.235 159.832 284.736 159.832 285.312C159.832 285.824 159.72 286.267 159.496 286.64C159.282 287.013 158.968 287.317 158.552 287.552C158.146 287.787 157.666 287.952 157.112 288.048L157.592 287.664V288.224L157.112 287.792C157.752 287.888 158.312 288.069 158.792 288.336C159.272 288.592 159.645 288.933 159.911 289.36C160.178 289.776 160.312 290.272 160.312 290.848C160.312 291.52 160.146 292.107 159.816 292.608C159.485 293.099 159.01 293.483 158.392 293.76C157.773 294.027 157.032 294.16 156.168 294.16C155.304 294.16 154.562 294.027 153.944 293.76C153.325 293.483 152.85 293.099 152.52 292.608C152.189 292.107 152.024 291.52 152.024 290.848C152.024 290.272 152.157 289.776 152.424 289.36C152.69 288.933 153.064 288.592 153.544 288.336C154.034 288.069 154.594 287.888 155.224 287.792L154.744 288.224V287.664L155.224 288.048C154.669 287.952 154.184 287.787 153.768 287.552C153.362 287.317 153.048 287.013 152.824 286.64C152.61 286.267 152.504 285.824 152.504 285.312C152.504 284.736 152.648 284.235 152.936 283.808C153.234 283.371 153.656 283.035 154.2 282.8C154.754 282.565 155.41 282.448 156.168 282.448ZM164.401 285.92C164.027 285.92 163.718 285.936 163.473 285.968C163.238 286 163.062 286.069 162.945 286.176C162.827 286.272 162.758 286.416 162.737 286.608L162.609 287.984H161.473V283.904H169.153V285.84C168.705 286.437 168.294 287.024 167.921 287.6C167.558 288.165 167.233 288.784 166.945 289.456C166.667 290.128 166.443 290.917 166.273 291.824C166.102 292.72 165.99 293.797 165.937 295.056H163.233C163.318 294.085 163.494 293.173 163.761 292.32C164.038 291.467 164.369 290.677 164.753 289.952C165.147 289.227 165.558 288.576 165.985 288C166.411 287.424 166.817 286.928 167.201 286.512C167.585 286.096 167.905 285.771 168.161 285.536L168.449 285.92H164.401Z" fill="#475385"/>
<path d="M123.375 265.55L126.075 273H125.075L124.455 271.22H121.205L120.585 273H119.585L122.285 265.55H123.375ZM121.495 270.39H124.165L122.835 266.58L121.495 270.39ZM132.619 267.58C133.719 267.58 134.529 268.39 134.529 269.51V273H133.669V269.79C133.669 268.94 133.179 268.41 132.419 268.41C131.669 268.41 131.169 268.95 131.169 269.79V273H130.309V269.79C130.309 268.94 129.819 268.41 129.059 268.41C128.309 268.41 127.809 268.95 127.809 269.79V273H126.949V267.7H127.789V268.31C128.089 267.85 128.629 267.58 129.259 267.58C129.989 267.58 130.599 267.94 130.919 268.52C131.259 267.92 131.879 267.58 132.619 267.58ZM138.178 273.12C136.648 273.12 135.448 271.95 135.448 270.34C135.448 268.73 136.638 267.58 138.178 267.58C139.718 267.58 140.908 268.73 140.908 270.34C140.908 271.95 139.708 273.12 138.178 273.12ZM138.178 272.29C139.208 272.29 139.998 271.46 139.998 270.35C139.998 269.24 139.208 268.41 138.178 268.41C137.148 268.41 136.358 269.24 136.358 270.35C136.358 271.46 137.148 272.29 138.178 272.29ZM145.32 267.7H146.18V273H145.34V272.39C145.03 272.85 144.46 273.12 143.82 273.12C142.67 273.12 141.83 272.2 141.83 271.07V267.7H142.69V270.91C142.69 271.75 143.21 272.29 144.01 272.29C144.79 272.29 145.32 271.74 145.32 270.91V267.7ZM149.866 267.58C151.016 267.58 151.846 268.4 151.846 269.51V273H150.986V269.79C150.986 268.95 150.476 268.41 149.676 268.41C148.886 268.41 148.356 268.96 148.356 269.79V273H147.496V267.7H148.336V268.31C148.646 267.85 149.216 267.58 149.866 267.58ZM155.282 273.06C154.212 273.06 153.612 272.45 153.612 271.38V268.52H152.582V267.7H152.852C153.312 267.7 153.612 267.39 153.612 266.92V265.98H154.472V267.7H155.752V268.52H154.472V271.38C154.472 271.72 154.532 272.34 155.442 272.34C155.552 272.34 155.702 272.33 155.812 272.31V273.01C155.642 273.05 155.432 273.06 155.282 273.06Z" fill="#64748B"/>
<rect x="196.375" y="222" width="40" height="40" rx="7" fill="#182252"/>
<rect x="196.375" y="222" width="40" height="40" rx="7" stroke="#171E21" stroke-width="2"/>
<path d="M222.112 233.013L225.362 236.263C225.591 236.492 225.72 236.802 225.72 237.126C225.72 237.45 225.591 237.76 225.362 237.989C225.134 238.218 224.823 238.347 224.499 238.347C224.175 238.347 223.865 238.218 223.636 237.989L222.469 236.82V250.125C222.469 250.448 222.341 250.758 222.112 250.987C221.883 251.215 221.573 251.344 221.25 251.344C220.927 251.344 220.617 251.215 220.388 250.987C220.16 250.758 220.031 250.448 220.031 250.125V236.82L218.862 237.99C218.634 238.219 218.323 238.348 217.999 238.348C217.675 238.348 217.365 238.219 217.136 237.99C216.907 237.761 216.778 237.451 216.778 237.127C216.778 236.803 216.907 236.493 217.136 236.264L220.386 233.014C220.499 232.9 220.634 232.81 220.782 232.748C220.93 232.687 221.089 232.655 221.249 232.655C221.409 232.655 221.568 232.686 221.716 232.748C221.865 232.809 221.999 232.899 222.112 233.013ZM215.612 247.739C215.841 247.51 215.97 247.2 215.97 246.876C215.97 246.552 215.841 246.242 215.612 246.013C215.384 245.784 215.073 245.655 214.749 245.655C214.425 245.655 214.115 245.784 213.886 246.013L212.719 247.18V233.875C212.719 233.552 212.591 233.242 212.362 233.013C212.133 232.785 211.823 232.656 211.5 232.656C211.177 232.656 210.867 232.785 210.638 233.013C210.41 233.242 210.281 233.552 210.281 233.875V247.18L209.112 246.013C208.884 245.784 208.573 245.655 208.249 245.655C207.925 245.655 207.615 245.784 207.386 246.013C207.157 246.242 207.028 246.552 207.028 246.876C207.028 247.2 207.157 247.51 207.386 247.739L210.636 250.989C210.749 251.103 210.884 251.193 211.032 251.254C211.18 251.316 211.339 251.348 211.499 251.348C211.66 251.348 211.818 251.316 211.967 251.254C212.115 251.193 212.249 251.103 212.362 250.989L215.612 247.739Z" fill="white"/>
</g>
<g filter="url(#filter1_d_15188_20492)">
<rect x="12.375" y="12" width="172" height="138" rx="16" fill="white"/>
<rect x="12.875" y="12.5" width="171" height="137" rx="15.5" stroke="#AFB7DC"/>
</g>
<rect x="80.375" y="36" width="36" height="36" rx="18" fill="url(#paint2_linear_15188_20492)"/>
<path fill-rule="evenodd" clip-rule="evenodd" d="M108.632 46.7029C109.623 47.6402 109.623 49.1598 108.632 50.0971L96.7853 61.2971C95.794 62.2343 94.1868 62.2343 93.1954 61.2971L88.1185 56.4971C87.1272 55.5598 87.1272 54.0402 88.1185 53.1029C89.1098 52.1657 90.7171 52.1657 91.7084 53.1029L94.9904 56.2059L105.042 46.7029C106.033 45.7657 107.64 45.7657 108.632 46.7029Z" fill="white"/>
<path d="M77.0684 89.802C76.6018 89.802 76.1818 89.8953 75.8084 90.082C75.4351 90.2593 75.1131 90.5253 74.8424 90.88C74.5811 91.2253 74.3804 91.664 74.2404 92.196C74.1004 92.7187 74.0304 93.33 74.0304 94.03C74.0304 94.73 74.1004 95.346 74.2404 95.878C74.3804 96.4007 74.5858 96.8393 74.8564 97.194C75.1271 97.5487 75.4584 97.8147 75.8504 97.992C76.2518 98.1693 76.7138 98.258 77.2364 98.258C77.8244 98.258 78.3284 98.1367 78.7484 97.894C79.1684 97.6513 79.5138 97.32 79.7844 96.9C80.0644 96.48 80.2791 96.004 80.4284 95.472L81.3664 95.864C81.1798 96.5453 80.8951 97.1427 80.5124 97.656C80.1298 98.16 79.6538 98.552 79.0844 98.832C78.5151 99.1027 77.8478 99.238 77.0824 99.238C76.3544 99.238 75.6918 99.1213 75.0944 98.888C74.4971 98.6547 73.9791 98.314 73.5404 97.866C73.1111 97.418 72.7798 96.872 72.5464 96.228C72.3131 95.584 72.1964 94.8513 72.1964 94.03C72.1964 93.2087 72.3131 92.476 72.5464 91.832C72.7891 91.1787 73.1251 90.628 73.5544 90.18C73.9931 89.732 74.5018 89.3913 75.0804 89.158C75.6591 88.9247 76.2844 88.808 76.9564 88.808C77.6191 88.808 78.1838 88.9247 78.6504 89.158C79.1171 89.3913 79.4998 89.7227 79.7984 90.152C80.0971 90.5813 80.3071 91.104 80.4284 91.72L79.9524 91.342L80.1764 88.99L81.1704 88.99V92.336L80.0504 92.336C79.9011 91.8227 79.6911 91.3793 79.4204 91.006C79.1591 90.6233 78.8324 90.3293 78.4404 90.124C78.0484 89.9093 77.5911 89.802 77.0684 89.802ZM85.2998 88.388V98.118C85.2998 98.146 85.3511 98.1693 85.4538 98.188C85.5564 98.2067 85.6778 98.2207 85.8178 98.23C85.9578 98.2393 86.0838 98.244 86.1958 98.244L86.2518 98.244V99L82.5558 99V98.244L82.5978 98.244C82.8124 98.244 82.9991 98.2253 83.1578 98.188C83.3164 98.1413 83.4378 98.062 83.5218 97.95C83.6151 97.838 83.6618 97.684 83.6618 97.488V89.816C83.6618 89.6947 83.6244 89.6013 83.5498 89.536C83.4844 89.4707 83.3771 89.4147 83.2278 89.368C83.0878 89.3213 82.9104 89.2793 82.6958 89.242L82.5558 89.214V88.388L85.2998 88.388ZM91.2498 99L87.5538 99V98.244L87.5958 98.244C87.7171 98.244 87.8478 98.244 87.9878 98.244C88.1278 98.2347 88.2491 98.2207 88.3518 98.202C88.4544 98.174 88.5058 98.146 88.5058 98.118V93.624C88.5058 93.3533 88.4684 93.1293 88.3938 92.952C88.3284 92.7747 88.2164 92.644 88.0578 92.56C87.8991 92.4667 87.6844 92.42 87.4138 92.42C87.1338 92.42 86.8584 92.4807 86.5878 92.602C86.3171 92.7233 86.0511 92.91 85.7898 93.162C85.5378 93.4047 85.2811 93.7127 85.0198 94.086L85.0338 93.218C85.2764 92.8167 85.5471 92.476 85.8458 92.196C86.1538 91.916 86.4804 91.7013 86.8258 91.552C87.1804 91.4027 87.5584 91.328 87.9598 91.328C88.4264 91.328 88.8184 91.4073 89.1358 91.566C89.4624 91.7247 89.7144 91.9673 89.8918 92.294C90.0691 92.6113 90.1578 93.0127 90.1578 93.498V97.488C90.1578 97.684 90.1998 97.838 90.2838 97.95C90.3678 98.062 90.4891 98.1413 90.6478 98.188C90.8064 98.2253 90.9931 98.244 91.2078 98.244L91.2498 98.244V99ZM100.022 95.248C100.022 96.0413 99.8631 96.732 99.5458 97.32C99.2284 97.908 98.7758 98.3653 98.1878 98.692C97.5998 99.0093 96.9091 99.168 96.1158 99.168C95.3224 99.168 94.6318 99.0093 94.0438 98.692C93.4651 98.3653 93.0124 97.908 92.6858 97.32C92.3684 96.732 92.2098 96.0413 92.2098 95.248C92.2098 94.6507 92.2984 94.1093 92.4758 93.624C92.6624 93.1387 92.9284 92.728 93.2738 92.392C93.6191 92.0467 94.0298 91.7853 94.5058 91.608C94.9818 91.4213 95.5184 91.328 96.1158 91.328C96.7131 91.328 97.2498 91.4213 97.7258 91.608C98.2018 91.7853 98.6124 92.0467 98.9578 92.392C99.3031 92.728 99.5644 93.1387 99.7418 93.624C99.9284 94.1093 100.022 94.6507 100.022 95.248ZM93.9318 95.248C93.9318 95.9107 94.0111 96.466 94.1698 96.914C94.3378 97.3527 94.5804 97.6793 94.8978 97.894C95.2244 98.1087 95.6304 98.216 96.1158 98.216C96.6104 98.216 97.0164 98.1087 97.3338 97.894C97.6604 97.6793 97.9031 97.3527 98.0618 96.914C98.2204 96.466 98.2998 95.9107 98.2998 95.248C98.2998 94.5947 98.2204 94.0487 98.0618 93.61C97.9031 93.1713 97.6604 92.84 97.3338 92.616C97.0164 92.392 96.6104 92.28 96.1158 92.28C95.6304 92.28 95.2244 92.392 94.8978 92.616C94.5804 92.84 94.3378 93.1713 94.1698 93.61C94.0111 94.0487 93.9318 94.5947 93.9318 95.248ZM109.073 95.248C109.073 96.0413 108.914 96.732 108.597 97.32C108.279 97.908 107.827 98.3653 107.239 98.692C106.651 99.0093 105.96 99.168 105.167 99.168C104.373 99.168 103.683 99.0093 103.095 98.692C102.516 98.3653 102.063 97.908 101.737 97.32C101.419 96.732 101.261 96.0413 101.261 95.248C101.261 94.6507 101.349 94.1093 101.527 93.624C101.713 93.1387 101.979 92.728 102.325 92.392C102.67 92.0467 103.081 91.7853 103.557 91.608C104.033 91.4213 104.569 91.328 105.167 91.328C105.764 91.328 106.301 91.4213 106.777 91.608C107.253 91.7853 107.663 92.0467 108.009 92.392C108.354 92.728 108.615 93.1387 108.793 93.624C108.979 94.1093 109.073 94.6507 109.073 95.248ZM102.983 95.248C102.983 95.9107 103.062 96.466 103.221 96.914C103.389 97.3527 103.631 97.6793 103.949 97.894C104.275 98.1087 104.681 98.216 105.167 98.216C105.661 98.216 106.067 98.1087 106.385 97.894C106.711 97.6793 106.954 97.3527 107.113 96.914C107.271 96.466 107.351 95.9107 107.351 95.248C107.351 94.5947 107.271 94.0487 107.113 93.61C106.954 93.1713 106.711 92.84 106.385 92.616C106.067 92.392 105.661 92.28 105.167 92.28C104.681 92.28 104.275 92.392 103.949 92.616C103.631 92.84 103.389 93.1713 103.221 93.61C103.062 94.0487 102.983 94.5947 102.983 95.248ZM114.96 97.068C114.96 96.8533 114.904 96.676 114.792 96.536C114.689 96.396 114.544 96.284 114.358 96.2C114.18 96.1067 113.975 96.032 113.742 95.976C113.518 95.92 113.284 95.864 113.042 95.808C112.724 95.7333 112.416 95.6493 112.118 95.556C111.819 95.4533 111.544 95.3227 111.292 95.164C111.049 95.0053 110.853 94.7953 110.704 94.534C110.564 94.2727 110.494 93.946 110.494 93.554C110.494 93.078 110.61 92.6767 110.844 92.35C111.077 92.0233 111.413 91.7713 111.852 91.594C112.29 91.4167 112.818 91.328 113.434 91.328C113.919 91.328 114.339 91.356 114.694 91.412C115.058 91.468 115.356 91.538 115.59 91.622C115.823 91.6967 115.991 91.7667 116.094 91.832V93.568L114.694 93.568V92.154C114.806 92.154 114.894 92.168 114.96 92.196C115.034 92.224 115.09 92.266 115.128 92.322C115.165 92.378 115.188 92.448 115.198 92.532C115.216 92.6067 115.216 92.6907 115.198 92.784C115.086 92.6627 114.941 92.5647 114.764 92.49C114.586 92.406 114.386 92.3453 114.162 92.308C113.947 92.2613 113.704 92.238 113.434 92.238C112.92 92.238 112.542 92.3313 112.3 92.518C112.066 92.6953 111.95 92.9473 111.95 93.274C111.95 93.4887 112.001 93.666 112.104 93.806C112.206 93.946 112.351 94.058 112.538 94.142C112.724 94.226 112.934 94.3007 113.168 94.366C113.41 94.4313 113.662 94.492 113.924 94.548C114.232 94.6227 114.535 94.7113 114.834 94.814C115.142 94.9073 115.417 95.038 115.66 95.206C115.912 95.3647 116.112 95.5747 116.262 95.836C116.411 96.088 116.486 96.41 116.486 96.802C116.486 97.278 116.364 97.6933 116.122 98.048C115.888 98.4027 115.534 98.678 115.058 98.874C114.591 99.07 114.008 99.168 113.308 99.168C112.822 99.168 112.384 99.1353 111.992 99.07C111.609 99.0047 111.273 98.9207 110.984 98.818C110.704 98.706 110.466 98.594 110.27 98.482V96.648L111.712 96.648V98.524C111.553 98.4587 111.432 98.3887 111.348 98.314C111.264 98.23 111.203 98.146 111.166 98.062C111.138 97.978 111.128 97.8987 111.138 97.824C111.147 97.7493 111.17 97.684 111.208 97.628C111.348 97.7493 111.52 97.8567 111.726 97.95C111.931 98.0433 112.164 98.118 112.426 98.174C112.696 98.2207 112.99 98.244 113.308 98.244C113.681 98.244 113.984 98.202 114.218 98.118C114.46 98.034 114.642 97.9033 114.764 97.726C114.894 97.5487 114.96 97.3293 114.96 97.068ZM119.292 95.304C119.292 95.8267 119.348 96.2747 119.46 96.648C119.572 97.012 119.735 97.3107 119.95 97.544C120.164 97.768 120.416 97.936 120.706 98.048C120.995 98.1507 121.317 98.202 121.672 98.202C122.045 98.202 122.372 98.1367 122.652 98.006C122.932 97.8753 123.174 97.7073 123.38 97.502C123.585 97.2967 123.758 97.0727 123.898 96.83L124.668 97.418C124.481 97.7633 124.238 98.0713 123.94 98.342C123.641 98.6033 123.291 98.8087 122.89 98.958C122.498 99.098 122.05 99.168 121.546 99.168C120.79 99.168 120.113 99.0187 119.516 98.72C118.928 98.412 118.466 97.9687 118.13 97.39C117.794 96.8113 117.626 96.1113 117.626 95.29C117.626 94.4967 117.78 93.806 118.088 93.218C118.405 92.6207 118.839 92.1587 119.39 91.832C119.94 91.496 120.575 91.328 121.294 91.328C121.863 91.328 122.358 91.4167 122.778 91.594C123.198 91.7713 123.548 92.042 123.828 92.406C124.108 92.7607 124.318 93.2087 124.458 93.75C124.607 94.282 124.686 94.9073 124.696 95.626L118.9 95.626V94.744L123.422 94.744L123.072 95.08C123.053 94.5573 123.006 94.114 122.932 93.75C122.866 93.386 122.764 93.0967 122.624 92.882C122.493 92.6673 122.316 92.5133 122.092 92.42C121.877 92.3173 121.616 92.266 121.308 92.266C121 92.266 120.72 92.3267 120.468 92.448C120.225 92.56 120.015 92.742 119.838 92.994C119.66 93.2367 119.525 93.5493 119.432 93.932C119.338 94.3147 119.292 94.772 119.292 95.304Z" fill="#596495"/>
<path d="M35.5011 117.432V110.194L35.0811 110.194C34.7077 110.194 34.4044 110.217 34.1711 110.264C33.9471 110.301 33.7837 110.371 33.6811 110.474C33.5784 110.567 33.5224 110.698 33.5131 110.866L33.3591 112.63L32.0991 112.63V109.06L41.5071 109.06V112.63L40.2331 112.63L40.0931 110.866C40.0837 110.698 40.0231 110.567 39.9111 110.474C39.8084 110.371 39.6451 110.301 39.4211 110.264C39.1971 110.217 38.8984 110.194 38.5251 110.194L38.1051 110.194V117.432C38.1051 117.637 38.1891 117.773 38.3571 117.838C38.5251 117.903 38.7351 117.936 38.9871 117.936L39.2251 117.936V119L34.3671 119V117.936L34.6051 117.936C34.8571 117.936 35.0671 117.903 35.2351 117.838C35.4124 117.773 35.5011 117.637 35.5011 117.432ZM48.6321 111.384V113.624C48.5574 113.605 48.4547 113.591 48.3241 113.582C48.2027 113.563 48.0674 113.554 47.9181 113.554C47.7781 113.545 47.6427 113.54 47.5121 113.54C47.3067 113.54 47.1107 113.554 46.9241 113.582C46.7467 113.601 46.5787 113.643 46.4201 113.708C46.2707 113.773 46.1307 113.857 46.0001 113.96C45.8694 114.053 45.7434 114.179 45.6221 114.338L45.5801 113.806C45.8041 113.274 46.0234 112.821 46.2381 112.448C46.4621 112.075 46.7141 111.79 46.9941 111.594C47.2834 111.398 47.6381 111.3 48.0581 111.3C48.1887 111.3 48.3054 111.309 48.4081 111.328C48.5107 111.347 48.5854 111.365 48.6321 111.384ZM42.5841 119V118.076L42.6261 118.076C42.8687 118.076 43.0601 118.029 43.2001 117.936C43.3494 117.833 43.4241 117.647 43.4241 117.376V112.966C43.4241 112.873 43.3961 112.798 43.3401 112.742C43.2934 112.686 43.2141 112.644 43.1021 112.616C42.9994 112.579 42.8687 112.541 42.7101 112.504L42.5841 112.476V111.44L45.6081 111.44L45.8041 113.624L45.8881 113.582V117.88C45.8881 117.936 45.9347 117.978 46.0281 118.006C46.1307 118.034 46.2567 118.053 46.4061 118.062C46.5554 118.071 46.7001 118.076 46.8401 118.076L47.0081 118.076V119L42.5841 119ZM54.3076 114.422V115.346C53.8876 115.411 53.5283 115.486 53.2296 115.57C52.931 115.654 52.6836 115.747 52.4876 115.85C52.301 115.953 52.1516 116.065 52.0396 116.186C51.937 116.307 51.8623 116.443 51.8156 116.592C51.769 116.732 51.7456 116.886 51.7456 117.054C51.7456 117.287 51.783 117.479 51.8576 117.628C51.9323 117.768 52.0396 117.871 52.1796 117.936C52.329 118.001 52.5016 118.034 52.6976 118.034C52.903 118.034 53.0896 117.987 53.2576 117.894C53.435 117.801 53.6076 117.656 53.7756 117.46C53.953 117.255 54.1303 116.989 54.3076 116.662L54.3916 117.39C54.205 117.791 53.9903 118.123 53.7476 118.384C53.5143 118.645 53.239 118.841 52.9216 118.972C52.6136 119.093 52.2543 119.154 51.8436 119.154C51.3303 119.154 50.8963 119.084 50.5416 118.944C50.187 118.795 49.9163 118.575 49.7296 118.286C49.5523 117.987 49.4636 117.614 49.4636 117.166C49.4636 116.765 49.5523 116.419 49.7296 116.13C49.907 115.841 50.187 115.593 50.5696 115.388C50.9616 115.173 51.461 114.991 52.0676 114.842C52.6836 114.683 53.4303 114.543 54.3076 114.422ZM54.3776 119L54.2096 117.46L54.1116 117.474V113.4C54.1116 113.185 54.079 113.008 54.0136 112.868C53.9483 112.719 53.8316 112.607 53.6636 112.532C53.505 112.457 53.2716 112.42 52.9636 112.42C52.5343 112.42 52.175 112.481 51.8856 112.602C51.6056 112.714 51.4096 112.845 51.2976 112.994C51.2323 112.938 51.195 112.873 51.1856 112.798C51.1856 112.723 51.2136 112.649 51.2696 112.574C51.3256 112.499 51.405 112.439 51.5076 112.392C51.6103 112.336 51.741 112.308 51.8996 112.308V113.932L49.9116 113.932V112.154C50.0516 112.061 50.2663 111.949 50.5556 111.818C50.8543 111.678 51.223 111.557 51.6616 111.454C52.1003 111.342 52.6136 111.286 53.2016 111.286C53.715 111.286 54.1723 111.333 54.5736 111.426C54.9843 111.519 55.3343 111.664 55.6236 111.86C55.913 112.047 56.1323 112.294 56.2816 112.602C56.4403 112.901 56.5196 113.255 56.5196 113.666V117.516C56.5196 117.619 56.5476 117.698 56.6036 117.754C56.6596 117.81 56.739 117.852 56.8416 117.88C56.9536 117.908 57.0936 117.936 57.2616 117.964L57.3456 117.992V119L54.3776 119ZM58.088 119V118.076L58.13 118.076C58.298 118.076 58.438 118.057 58.55 118.02C58.6713 117.973 58.7646 117.899 58.83 117.796C58.8953 117.693 58.928 117.553 58.928 117.376V112.966C58.928 112.863 58.9 112.789 58.844 112.742C58.7973 112.686 58.718 112.644 58.606 112.616C58.5033 112.579 58.3726 112.541 58.214 112.504L58.088 112.476V111.44L61.126 111.44L61.294 113.148L61.392 113.19V117.95C61.392 117.978 61.4293 118.001 61.504 118.02C61.5786 118.039 61.6673 118.053 61.77 118.062C61.8726 118.071 61.966 118.076 62.05 118.076L62.106 118.076V119L58.088 119ZM67.188 119L63.17 119V118.076L63.212 118.076C63.3053 118.076 63.4033 118.071 63.506 118.062C63.6086 118.053 63.6973 118.039 63.772 118.02C63.8466 118.001 63.884 117.978 63.884 117.95V113.666C63.884 113.461 63.856 113.288 63.8 113.148C63.7533 113.008 63.6693 112.905 63.548 112.84C63.4266 112.765 63.2633 112.728 63.058 112.728C62.834 112.728 62.61 112.793 62.386 112.924C62.162 113.045 61.938 113.227 61.714 113.47C61.4993 113.713 61.28 114.025 61.056 114.408L61.084 113.302C61.2893 112.891 61.5413 112.537 61.84 112.238C62.148 111.939 62.4886 111.706 62.862 111.538C63.2446 111.37 63.646 111.286 64.066 111.286C64.5513 111.286 64.962 111.375 65.298 111.552C65.634 111.72 65.8906 111.977 66.068 112.322C66.2546 112.658 66.348 113.078 66.348 113.582V117.376C66.348 117.553 66.3806 117.693 66.446 117.796C66.5113 117.899 66.6 117.973 66.712 118.02C66.8333 118.057 66.978 118.076 67.146 118.076L67.188 118.076V119ZM72.5651 117.124C72.5651 116.937 72.5137 116.783 72.4111 116.662C72.3177 116.541 72.1871 116.443 72.0191 116.368C71.8511 116.293 71.6597 116.233 71.4451 116.186C71.2304 116.13 71.0017 116.074 70.7591 116.018C70.4511 115.943 70.1431 115.859 69.8351 115.766C69.5271 115.663 69.2471 115.528 68.9951 115.36C68.7431 115.192 68.5377 114.973 68.3791 114.702C68.2297 114.431 68.1551 114.091 68.1551 113.68C68.1551 113.139 68.2951 112.691 68.5751 112.336C68.8551 111.972 69.2424 111.706 69.7371 111.538C70.2411 111.361 70.8291 111.272 71.5011 111.272C72.0424 111.272 72.5091 111.305 72.9011 111.37C73.3024 111.435 73.6244 111.51 73.8671 111.594C74.1191 111.678 74.2917 111.748 74.3851 111.804V113.512L72.6211 113.512V112.168C72.7611 112.149 72.8684 112.159 72.9431 112.196C73.0177 112.233 73.0691 112.285 73.0971 112.35C73.1251 112.406 73.1344 112.471 73.1251 112.546C73.1251 112.621 73.1157 112.695 73.0971 112.77C72.9851 112.677 72.8497 112.602 72.6911 112.546C72.5324 112.481 72.3551 112.434 72.1591 112.406C71.9631 112.369 71.7437 112.35 71.5011 112.35C71.0811 112.35 70.7684 112.42 70.5631 112.56C70.3671 112.691 70.2691 112.891 70.2691 113.162C70.2691 113.339 70.3157 113.484 70.4091 113.596C70.5024 113.708 70.6331 113.801 70.8011 113.876C70.9784 113.951 71.1791 114.016 71.4031 114.072C71.6271 114.128 71.8697 114.184 72.1311 114.24C72.4484 114.315 72.7657 114.403 73.0831 114.506C73.4004 114.609 73.6897 114.749 73.9511 114.926C74.2124 115.094 74.4224 115.313 74.5811 115.584C74.7397 115.855 74.8191 116.191 74.8191 116.592C74.8191 117.161 74.6837 117.637 74.4131 118.02C74.1517 118.403 73.7504 118.692 73.2091 118.888C72.6677 119.075 71.9911 119.168 71.1791 119.168C70.6564 119.168 70.1851 119.131 69.7651 119.056C69.3451 118.991 68.9857 118.907 68.6871 118.804C68.3977 118.701 68.1737 118.603 68.0151 118.51V116.662L69.8211 116.662V118.454C69.6437 118.389 69.5037 118.314 69.4011 118.23C69.3077 118.137 69.2424 118.043 69.2051 117.95C69.1771 117.857 69.1724 117.782 69.1911 117.726C69.2191 117.661 69.2657 117.628 69.3311 117.628C69.4524 117.712 69.6017 117.791 69.7791 117.866C69.9657 117.931 70.1757 117.987 70.4091 118.034C70.6517 118.071 70.9131 118.09 71.1931 118.09C71.5104 118.09 71.7671 118.057 71.9631 117.992C72.1684 117.927 72.3177 117.824 72.4111 117.684C72.5137 117.535 72.5651 117.348 72.5651 117.124ZM80.708 114.422V115.346C80.288 115.411 79.9287 115.486 79.63 115.57C79.3314 115.654 79.084 115.747 78.888 115.85C78.7014 115.953 78.552 116.065 78.44 116.186C78.3374 116.307 78.2627 116.443 78.216 116.592C78.1694 116.732 78.146 116.886 78.146 117.054C78.146 117.287 78.1834 117.479 78.258 117.628C78.3327 117.768 78.44 117.871 78.58 117.936C78.7294 118.001 78.902 118.034 79.098 118.034C79.3034 118.034 79.49 117.987 79.658 117.894C79.8354 117.801 80.008 117.656 80.176 117.46C80.3534 117.255 80.5307 116.989 80.708 116.662L80.792 117.39C80.6054 117.791 80.3907 118.123 80.148 118.384C79.9147 118.645 79.6394 118.841 79.322 118.972C79.014 119.093 78.6547 119.154 78.244 119.154C77.7307 119.154 77.2967 119.084 76.942 118.944C76.5874 118.795 76.3167 118.575 76.13 118.286C75.9527 117.987 75.864 117.614 75.864 117.166C75.864 116.765 75.9527 116.419 76.13 116.13C76.3074 115.841 76.5874 115.593 76.97 115.388C77.362 115.173 77.8614 114.991 78.468 114.842C79.084 114.683 79.8307 114.543 80.708 114.422ZM80.778 119L80.61 117.46L80.512 117.474V113.4C80.512 113.185 80.4794 113.008 80.414 112.868C80.3487 112.719 80.232 112.607 80.064 112.532C79.9054 112.457 79.672 112.42 79.364 112.42C78.9347 112.42 78.5754 112.481 78.286 112.602C78.006 112.714 77.81 112.845 77.698 112.994C77.6327 112.938 77.5954 112.873 77.586 112.798C77.586 112.723 77.614 112.649 77.67 112.574C77.726 112.499 77.8054 112.439 77.908 112.392C78.0107 112.336 78.1414 112.308 78.3 112.308V113.932L76.312 113.932V112.154C76.452 112.061 76.6667 111.949 76.956 111.818C77.2547 111.678 77.6234 111.557 78.062 111.454C78.5007 111.342 79.014 111.286 79.602 111.286C80.1154 111.286 80.5727 111.333 80.974 111.426C81.3847 111.519 81.7347 111.664 82.024 111.86C82.3134 112.047 82.5327 112.294 82.682 112.602C82.8407 112.901 82.92 113.255 82.92 113.666V117.516C82.92 117.619 82.948 117.698 83.004 117.754C83.06 117.81 83.1394 117.852 83.242 117.88C83.354 117.908 83.494 117.936 83.662 117.964L83.746 117.992V119L80.778 119ZM89.0537 117.964C89.3803 117.964 89.665 117.899 89.9077 117.768C90.1503 117.637 90.365 117.465 90.5517 117.25C90.7383 117.035 90.897 116.816 91.0277 116.592L91.9237 117.194C91.7463 117.586 91.5037 117.931 91.1957 118.23C90.897 118.529 90.5377 118.757 90.1177 118.916C89.707 119.075 89.2263 119.154 88.6757 119.154C87.845 119.154 87.1123 119.005 86.4777 118.706C85.8523 118.398 85.3623 117.95 85.0077 117.362C84.6623 116.774 84.4897 116.06 84.4897 115.22C84.4897 114.38 84.6577 113.671 84.9937 113.092C85.339 112.504 85.829 112.061 86.4637 111.762C87.0983 111.454 87.859 111.3 88.7457 111.3C89.2777 111.3 89.7397 111.337 90.1317 111.412C90.533 111.487 90.8643 111.575 91.1257 111.678C91.3963 111.771 91.5877 111.855 91.6997 111.93V114.254L89.7817 114.254V112.196C89.903 112.196 90.001 112.229 90.0757 112.294C90.1503 112.35 90.2017 112.425 90.2297 112.518C90.267 112.602 90.281 112.686 90.2717 112.77C90.2717 112.854 90.2623 112.919 90.2437 112.966C90.085 112.817 89.889 112.695 89.6557 112.602C89.4317 112.509 89.1657 112.462 88.8577 112.462C88.4283 112.462 88.0783 112.565 87.8077 112.77C87.537 112.966 87.3363 113.269 87.2057 113.68C87.0843 114.091 87.0237 114.604 87.0237 115.22C87.0237 115.696 87.061 116.107 87.1357 116.452C87.2197 116.797 87.341 117.082 87.4997 117.306C87.6677 117.53 87.8777 117.698 88.1297 117.81C88.391 117.913 88.699 117.964 89.0537 117.964ZM92.6026 112.56V111.51L92.7146 111.51C92.9479 111.51 93.1486 111.491 93.3166 111.454C93.4939 111.417 93.6292 111.342 93.7226 111.23C93.8159 111.109 93.8626 110.936 93.8626 110.712L95.3326 111.44L98.3986 111.44V112.56L92.6026 112.56ZM96.2426 116.606C96.2426 116.933 96.2846 117.189 96.3686 117.376C96.4619 117.553 96.5972 117.679 96.7746 117.754C96.9519 117.829 97.1619 117.866 97.4046 117.866C97.6286 117.866 97.8292 117.852 98.0066 117.824C98.1932 117.787 98.3192 117.759 98.3846 117.74V118.93C98.2912 118.958 98.1559 118.991 97.9786 119.028C97.8012 119.065 97.6052 119.093 97.3906 119.112C97.1759 119.14 96.9472 119.154 96.7046 119.154C96.1446 119.154 95.6406 119.084 95.1926 118.944C94.7539 118.804 94.4086 118.557 94.1566 118.202C93.9046 117.847 93.7786 117.353 93.7786 116.718V111.692L93.8626 111.58V109.298L96.2426 109.298V116.606ZM101.27 110.46C100.84 110.46 100.5 110.362 100.248 110.166C99.9957 109.961 99.8697 109.657 99.8697 109.256C99.8697 108.864 99.9957 108.57 100.248 108.374C100.5 108.169 100.84 108.066 101.27 108.066C101.699 108.066 102.04 108.169 102.292 108.374C102.544 108.57 102.67 108.864 102.67 109.256C102.67 109.648 102.544 109.947 102.292 110.152C102.04 110.357 101.699 110.46 101.27 110.46ZM102.572 111.44V117.404C102.572 117.665 102.642 117.843 102.782 117.936C102.931 118.029 103.132 118.076 103.384 118.076L103.412 118.076V119L99.2817 119V118.076L99.3097 118.076C99.5617 118.076 99.7577 118.029 99.8977 117.936C100.047 117.843 100.122 117.665 100.122 117.404V112.966C100.122 112.817 100.061 112.719 99.9397 112.672C99.8277 112.616 99.6457 112.56 99.3937 112.504L99.2677 112.476V111.44L102.572 111.44ZM112.589 115.234C112.589 116.037 112.421 116.732 112.085 117.32C111.759 117.908 111.283 118.365 110.657 118.692C110.041 119.009 109.299 119.168 108.431 119.168C107.554 119.168 106.803 119.009 106.177 118.692C105.561 118.365 105.085 117.908 104.749 117.32C104.423 116.732 104.259 116.037 104.259 115.234C104.259 114.627 104.353 114.081 104.539 113.596C104.726 113.111 104.997 112.695 105.351 112.35C105.715 112.005 106.154 111.743 106.667 111.566C107.19 111.379 107.778 111.286 108.431 111.286C109.085 111.286 109.668 111.379 110.181 111.566C110.695 111.743 111.129 112.005 111.483 112.35C111.847 112.695 112.123 113.111 112.309 113.596C112.496 114.081 112.589 114.627 112.589 115.234ZM106.793 115.234C106.793 115.878 106.849 116.405 106.961 116.816C107.073 117.227 107.251 117.53 107.493 117.726C107.736 117.922 108.049 118.02 108.431 118.02C108.814 118.02 109.122 117.927 109.355 117.74C109.598 117.544 109.775 117.241 109.887 116.83C109.999 116.41 110.055 115.878 110.055 115.234C110.055 114.59 109.999 114.063 109.887 113.652C109.775 113.241 109.598 112.943 109.355 112.756C109.122 112.56 108.814 112.462 108.431 112.462C108.049 112.462 107.736 112.56 107.493 112.756C107.251 112.943 107.073 113.241 106.961 113.652C106.849 114.063 106.793 114.59 106.793 115.234ZM113.568 119V118.076L113.61 118.076C113.778 118.076 113.918 118.057 114.03 118.02C114.152 117.973 114.245 117.899 114.31 117.796C114.376 117.693 114.408 117.553 114.408 117.376V112.966C114.408 112.863 114.38 112.789 114.324 112.742C114.278 112.686 114.198 112.644 114.086 112.616C113.984 112.579 113.853 112.541 113.694 112.504L113.568 112.476V111.44L116.606 111.44L116.774 113.148L116.872 113.19V117.95C116.872 117.978 116.91 118.001 116.984 118.02C117.059 118.039 117.148 118.053 117.25 118.062C117.353 118.071 117.446 118.076 117.53 118.076L117.586 118.076V119L113.568 119ZM122.668 119L118.65 119V118.076L118.692 118.076C118.786 118.076 118.884 118.071 118.986 118.062C119.089 118.053 119.178 118.039 119.252 118.02C119.327 118.001 119.364 117.978 119.364 117.95V113.666C119.364 113.461 119.336 113.288 119.28 113.148C119.234 113.008 119.15 112.905 119.028 112.84C118.907 112.765 118.744 112.728 118.538 112.728C118.314 112.728 118.09 112.793 117.866 112.924C117.642 113.045 117.418 113.227 117.194 113.47C116.98 113.713 116.76 114.025 116.536 114.408L116.564 113.302C116.77 112.891 117.022 112.537 117.32 112.238C117.628 111.939 117.969 111.706 118.342 111.538C118.725 111.37 119.126 111.286 119.546 111.286C120.032 111.286 120.442 111.375 120.778 111.552C121.114 111.72 121.371 111.977 121.548 112.322C121.735 112.658 121.828 113.078 121.828 113.582V117.376C121.828 117.553 121.861 117.693 121.926 117.796C121.992 117.899 122.08 117.973 122.192 118.02C122.314 118.057 122.458 118.076 122.626 118.076L122.668 118.076V119ZM130.534 117.432V110.194L130.114 110.194C129.741 110.194 129.438 110.217 129.204 110.264C128.98 110.301 128.817 110.371 128.714 110.474C128.612 110.567 128.556 110.698 128.546 110.866L128.392 112.63L127.132 112.63V109.06L136.54 109.06V112.63L135.266 112.63L135.126 110.866C135.117 110.698 135.056 110.567 134.944 110.474C134.842 110.371 134.678 110.301 134.454 110.264C134.23 110.217 133.932 110.194 133.558 110.194L133.138 110.194V117.432C133.138 117.637 133.222 117.773 133.39 117.838C133.558 117.903 133.768 117.936 134.02 117.936L134.258 117.936V119L129.4 119V117.936L129.638 117.936C129.89 117.936 130.1 117.903 130.268 117.838C130.446 117.773 130.534 117.637 130.534 117.432ZM142.81 117.558L142.166 118.692L141.368 119.714L138.414 113.022C138.348 112.873 138.278 112.761 138.204 112.686C138.129 112.602 138.036 112.546 137.924 112.518C137.821 112.481 137.69 112.462 137.532 112.462L137.448 112.462V111.44L141.704 111.44V112.434L141.634 112.434C141.484 112.434 141.34 112.439 141.2 112.448C141.069 112.457 140.957 112.471 140.864 112.49C140.78 112.499 140.738 112.518 140.738 112.546L142.81 117.558ZM142.81 118.762C142.53 119.406 142.254 119.957 141.984 120.414C141.722 120.881 141.452 121.254 141.172 121.534C140.901 121.814 140.598 122.019 140.262 122.15C139.935 122.281 139.557 122.346 139.128 122.346C138.82 122.346 138.54 122.313 138.288 122.248C138.045 122.192 137.868 122.127 137.756 122.052V120.358C137.793 120.367 137.886 120.395 138.036 120.442C138.185 120.498 138.372 120.549 138.596 120.596C138.82 120.643 139.053 120.666 139.296 120.666C139.557 120.666 139.79 120.633 139.996 120.568C140.21 120.503 140.406 120.386 140.584 120.218C140.77 120.059 140.943 119.835 141.102 119.546C141.27 119.257 141.433 118.893 141.592 118.454L141.984 117.866L144.182 112.714C144.182 112.667 144.14 112.625 144.056 112.588C143.981 112.541 143.874 112.504 143.734 112.476C143.603 112.448 143.458 112.434 143.3 112.434L143.244 112.434V111.44L146.24 111.44V112.462L146.17 112.462C146.02 112.462 145.89 112.485 145.778 112.532C145.675 112.569 145.582 112.639 145.498 112.742C145.414 112.835 145.334 112.975 145.26 113.162L142.81 118.762ZM151.447 122.122L147.037 122.122V121.198L147.079 121.198C147.238 121.198 147.378 121.175 147.499 121.128C147.621 121.091 147.709 121.021 147.765 120.918C147.831 120.815 147.863 120.675 147.863 120.498V112.966C147.863 112.873 147.835 112.798 147.779 112.742C147.733 112.686 147.653 112.644 147.541 112.616C147.439 112.579 147.308 112.541 147.149 112.504L147.023 112.476V111.44L150.047 111.44L150.243 113.442L150.327 113.47V121.072C150.327 121.1 150.374 121.123 150.467 121.142C150.57 121.161 150.691 121.175 150.831 121.184C150.981 121.193 151.125 121.198 151.265 121.198L151.447 121.198V122.122ZM152.595 119.154C152.175 119.154 151.802 119.084 151.475 118.944C151.149 118.804 150.855 118.599 150.593 118.328C150.341 118.048 150.117 117.717 149.921 117.334L149.935 116.186C150.15 116.522 150.351 116.811 150.537 117.054C150.733 117.297 150.939 117.483 151.153 117.614C151.377 117.745 151.634 117.81 151.923 117.81C152.185 117.81 152.413 117.754 152.609 117.642C152.805 117.53 152.969 117.362 153.099 117.138C153.23 116.905 153.323 116.625 153.379 116.298C153.445 115.962 153.477 115.579 153.477 115.15C153.477 114.73 153.449 114.366 153.393 114.058C153.337 113.741 153.253 113.479 153.141 113.274C153.029 113.059 152.88 112.901 152.693 112.798C152.516 112.695 152.297 112.644 152.035 112.644C151.746 112.644 151.489 112.709 151.265 112.84C151.041 112.961 150.822 113.153 150.607 113.414C150.393 113.675 150.164 114.011 149.921 114.422V113.372C150.145 112.933 150.388 112.56 150.649 112.252C150.911 111.935 151.209 111.697 151.545 111.538C151.881 111.379 152.278 111.3 152.735 111.3C153.435 111.3 154.028 111.463 154.513 111.79C154.999 112.107 155.367 112.555 155.619 113.134C155.881 113.713 156.011 114.385 156.011 115.15C156.011 115.915 155.871 116.601 155.591 117.208C155.321 117.815 154.929 118.291 154.415 118.636C153.911 118.981 153.305 119.154 152.595 119.154ZM159.482 115.262C159.482 115.757 159.524 116.177 159.608 116.522C159.702 116.867 159.832 117.147 160 117.362C160.178 117.577 160.397 117.735 160.658 117.838C160.92 117.931 161.223 117.978 161.568 117.978C161.923 117.978 162.226 117.922 162.478 117.81C162.74 117.698 162.964 117.549 163.15 117.362C163.346 117.166 163.514 116.951 163.654 116.718L164.592 117.376C164.396 117.749 164.144 118.071 163.836 118.342C163.538 118.613 163.174 118.818 162.744 118.958C162.324 119.098 161.83 119.168 161.26 119.168C160.402 119.168 159.655 119.019 159.02 118.72C158.395 118.421 157.91 117.983 157.564 117.404C157.219 116.816 157.046 116.107 157.046 115.276C157.046 114.473 157.21 113.773 157.536 113.176C157.872 112.579 158.339 112.117 158.936 111.79C159.534 111.454 160.22 111.286 160.994 111.286C161.62 111.286 162.161 111.379 162.618 111.566C163.085 111.743 163.468 112.019 163.766 112.392C164.065 112.756 164.289 113.213 164.438 113.764C164.597 114.305 164.681 114.94 164.69 115.668L158.894 115.668V114.674L162.702 114.674L162.408 115.066C162.399 114.534 162.366 114.095 162.31 113.75C162.254 113.405 162.17 113.134 162.058 112.938C161.956 112.742 161.82 112.607 161.652 112.532C161.484 112.448 161.279 112.406 161.036 112.406C160.794 112.406 160.574 112.457 160.378 112.56C160.192 112.653 160.028 112.812 159.888 113.036C159.758 113.251 159.655 113.545 159.58 113.918C159.515 114.282 159.482 114.73 159.482 115.262Z" fill="#2C3667"/>
<defs>
<filter id="filter0_d_15188_20492" x="97.375" y="170" width="230" height="147" filterUnits="userSpaceOnUse" color-interpolation-filters="sRGB">
<feFlood flood-opacity="0" result="BackgroundImageFix"/>
<feColorMatrix in="SourceAlpha" type="matrix" values="0 0 0 0 0 0 0 0 0 0 0 0 0 0 0 0 0 0 127 0" result="hardAlpha"/>
<feOffset/>
<feGaussianBlur stdDeviation="3"/>
<feComposite in2="hardAlpha" operator="out"/>
<feColorMatrix type="matrix" values="0 0 0 0 0.686275 0 0 0 0 0.717647 0 0 0 0 0.862745 0 0 0 0.4 0"/>
<feBlend mode="normal" in2="BackgroundImageFix" result="effect1_dropShadow_15188_20492"/>
<feBlend mode="normal" in="SourceGraphic" in2="effect1_dropShadow_15188_20492" result="shape"/>
</filter>
<filter id="filter1_d_15188_20492" x="0.375" y="0" width="196" height="162" filterUnits="userSpaceOnUse" color-interpolation-filters="sRGB">
<feFlood flood-opacity="0" result="BackgroundImageFix"/>
<feColorMatrix in="SourceAlpha" type="matrix" values="0 0 0 0 0 0 0 0 0 0 0 0 0 0 0 0 0 0 127 0" result="hardAlpha"/>
<feOffset/>
<feGaussianBlur stdDeviation="6"/>
<feComposite in2="hardAlpha" operator="out"/>
<feColorMatrix type="matrix" values="0 0 0 0 0.54902 0 0 0 0 0.584314 0 0 0 0 0.760784 0 0 0 0.4 0"/>
<feBlend mode="normal" in2="BackgroundImageFix" result="effect1_dropShadow_15188_20492"/>
<feBlend mode="normal" in="SourceGraphic" in2="effect1_dropShadow_15188_20492" result="shape"/>
</filter>
<linearGradient id="paint0_linear_15188_20492" x1="309.375" y1="269" x2="277.375" y2="293" gradientUnits="userSpaceOnUse">
<stop stop-color="white" stop-opacity="0.3"/>
<stop offset="0.262741" stop-opacity="0.27"/>
<stop offset="0.369956" stop-color="white" stop-opacity="0.26"/>
<stop offset="0.487001" stop-opacity="0.55"/>
<stop offset="0.594445" stop-opacity="0.24"/>
<stop offset="0.736408" stop-color="white" stop-opacity="0.3"/>
<stop offset="0.901459" stop-color="#272727" stop-opacity="0.22"/>
<stop offset="1" stop-opacity="0.2"/>
</linearGradient>
<linearGradient id="paint1_linear_15188_20492" x1="309.375" y1="194" x2="277.375" y2="218" gradientUnits="userSpaceOnUse">
<stop stop-color="white" stop-opacity="0.3"/>
<stop offset="0.262741" stop-opacity="0.27"/>
<stop offset="0.369956" stop-color="white" stop-opacity="0.26"/>
<stop offset="0.487001" stop-opacity="0.55"/>
<stop offset="0.594445" stop-opacity="0.24"/>
<stop offset="0.736408" stop-color="white" stop-opacity="0.3"/>
<stop offset="0.901459" stop-color="#272727" stop-opacity="0.22"/>
<stop offset="1" stop-opacity="0.2"/>
</linearGradient>
<linearGradient id="paint2_linear_15188_20492" x1="96.4684" y1="51.2313" x2="101.881" y2="73.3959" gradientUnits="userSpaceOnUse">
<stop offset="0.0076178" stop-color="#00D2D3"/>
<stop offset="0.91" stop-color="#00B3FF"/>
</linearGradient>
<clipPath id="clip0_15188_20492">
<path d="M281.375 281C281.375 274.373 286.748 269 293.375 269C300.002 269 305.375 274.373 305.375 281C305.375 287.627 300.002 293 293.375 293C286.748 293 281.375 287.627 281.375 281Z" fill="white"/>
</clipPath>
<clipPath id="clip1_15188_20492">
<rect width="32" height="24" fill="white" transform="translate(277.375 269)"/>
</clipPath>
<clipPath id="clip2_15188_20492">
<path d="M281.375 206C281.375 199.373 286.748 194 293.375 194C300.002 194 305.375 199.373 305.375 206C305.375 212.627 300.002 218 293.375 218C286.748 218 281.375 212.627 281.375 206Z" fill="white"/>
</clipPath>
<clipPath id="clip3_15188_20492">
<rect width="32" height="24" fill="white" transform="translate(277.375 194)"/>
</clipPath>
</defs>
</svg>
