<svg width="16" height="16" viewBox="0 0 16 16" fill="none" xmlns="http://www.w3.org/2000/svg">
<path d="M14.5924 4.78175C14.6663 5.62276 14.6663 6.67108 14.6663 8.00065C14.6663 10.7564 14.6663 12.3039 14.0081 13.3015L10.0404 9.33386L14.5924 4.78175Z" fill="#394375"/>
<path d="M13.301 14.0087L9.3333 10.041L4.78079 14.5934C5.62179 14.6673 6.67011 14.6673 7.99967 14.6673C10.7559 14.6673 12.3035 14.6673 13.301 14.0087Z" fill="#394375"/>
<path fill-rule="evenodd" clip-rule="evenodd" d="M7.99967 1.33398C11.1424 1.33398 12.7137 1.33398 13.69 2.31029C14.0259 2.64621 14.2463 3.05256 14.3908 3.56912L3.56814 14.3918C3.05158 14.2473 2.64523 14.0269 2.30932 13.691C1.33301 12.7147 1.33301 11.1433 1.33301 8.00065C1.33301 4.85795 1.33301 3.28661 2.30932 2.3103C3.28563 1.33398 4.85698 1.33398 7.99967 1.33398ZM3.66634 5.83886C3.66634 7.02878 4.41106 8.41729 5.57299 8.91384C5.84385 9.02959 6.1555 9.02959 6.42636 8.91384C7.58829 8.41729 8.33301 7.02878 8.33301 5.83886C8.33301 4.63955 7.28834 3.66732 5.99967 3.66732C4.71101 3.66732 3.66634 4.63955 3.66634 5.83886Z" fill="#394375"/>
<path d="M6.99967 6.00065C6.99967 6.55294 6.55196 7.00065 5.99967 7.00065C5.44739 7.00065 4.99967 6.55294 4.99967 6.00065C4.99967 5.44837 5.44739 5.00065 5.99967 5.00065C6.55196 5.00065 6.99967 5.44837 6.99967 6.00065Z" fill="#394375"/>
</svg>
